<svg xmlns="http://www.w3.org/2000/svg" width="26.702" height="22.33" viewBox="0 0 26.702 22.33">
  <path id="a" d="M18.981,107.663a1.055,1.055,0,0,1-1.117-1.116v-2.233a3.29,3.29,0,0,0-3.35-3.35H5.583a3.29,3.29,0,0,0-3.35,3.35v2.233a1.055,1.055,0,0,1-1.117,1.116A1.055,1.055,0,0,1,0,106.547v-2.233a5.528,5.528,0,0,1,5.583-5.583h8.932a5.528,5.528,0,0,1,5.583,5.583v2.233A1.055,1.055,0,0,1,18.981,107.663ZM10.049,96.5a5.582,5.582,0,1,1,0-11.165,5.582,5.582,0,1,1,0,11.165Zm0-8.932a3.349,3.349,0,1,0,0,6.7,3.349,3.349,0,1,0,0-6.7Zm15.631,20.1a1.055,1.055,0,0,1-1.117-1.116v-2.233A3.236,3.236,0,0,0,22,101.076a1.1,1.1,0,1,1,.558-2.121,5.629,5.629,0,0,1,4.131,5.471v2.233c.112.558-.335,1-1,1ZM17.864,96.387a1.344,1.344,0,0,1-1.117-.782,1.06,1.06,0,0,1,.782-1.34,3.618,3.618,0,0,0,2.456-2.456,3.445,3.445,0,0,0-2.456-4.131,1.1,1.1,0,0,1,.558-2.121,5.594,5.594,0,0,1,4.019,6.811,5.826,5.826,0,0,1-4.019,4.019Z" transform="translate(0 -85.333)" fill="#8bffc9"/>
</svg>
