<svg xmlns="http://www.w3.org/2000/svg" width="25.59" height="25.591" viewBox="0 0 25.59 25.591">
  <path id="Dashboard" d="M85.021,87.763a.914.914,0,1,1,0,1.828H68.57a.914.914,0,1,1,0-1.828ZM86.849,64a2.742,2.742,0,0,1,2.742,2.742V83.193a2.742,2.742,0,0,1-2.742,2.742H66.742A2.742,2.742,0,0,1,64,83.193V66.742A2.742,2.742,0,0,1,66.742,64Zm.015,1.828H66.742a.914.914,0,0,0-.914.9V83.193a.914.914,0,0,0,.9.914H86.849a.914.914,0,0,0,.914-.9V66.742A.914.914,0,0,0,86.864,65.828Zm-1.57,7.219.009.012a.914.914,0,0,1-.189,1.268l-.012.009-4.532,3.3a1.828,1.828,0,0,1-2.033.078l-4.61-2.837a.457.457,0,0,0-.52.028l-3.362,2.615a.914.914,0,0,1-1.273-.148l-.009-.012a.914.914,0,0,1,.148-1.273l.012-.009,3.612-2.81a1.828,1.828,0,0,1,2.08-.114l4.619,2.842a.457.457,0,0,0,.508-.02l4.284-3.116a.914.914,0,0,1,1.268.189Z" transform="translate(-64 -64)" fill="#8bffc9"/>
</svg>
