<svg xmlns="http://www.w3.org/2000/svg" width="27.999" height="24.508" viewBox="0 0 27.999 24.508">
  <path id="device" d="M2,80.385v4.93a.973.973,0,0,0,1,.943H25a.973.973,0,0,0,1-.943V66.462a.972.972,0,0,0-1-.943H3a.973.973,0,0,0-1,.943v12.1H25.866v1.818H2ZM3,63.634H25a2.918,2.918,0,0,1,3,2.828V85.315a2.918,2.918,0,0,1-3,2.828H3a2.918,2.918,0,0,1-3-2.828V66.462a2.918,2.918,0,0,1,3-2.828Zm7.409,7.007-1.09,2.774a1,1,0,0,1-.933.616L5,74.044A.944.944,0,1,1,5,72.159l2.688-.011L9.467,67.6a1.022,1.022,0,0,1,1.876,0l2.669,6.772,2.931-4.441a1.034,1.034,0,0,1,1.663-.05l1.719,2.264h2.33a.944.944,0,1,1,0,1.885H19.812A1.019,1.019,0,0,1,19,73.637l-1.146-1.512L14.634,77a1.026,1.026,0,0,1-1.786-.168l-2.44-6.193ZM6,84.372a.944.944,0,1,1,0-1.885H9a.944.944,0,1,1,0,1.885H6Zm7,0a.944.944,0,1,1,0-1.885h3a.944.944,0,1,1,0,1.885H13Zm8.293-.276a.905.905,0,0,1,0-1.333,1.043,1.043,0,0,1,1.415,0,.905.905,0,0,1,0,1.333A1.043,1.043,0,0,1,21.292,84.1Z" transform="translate(0 -63.634)" fill="#fff"/>
</svg>
