<svg xmlns="http://www.w3.org/2000/svg" width="23.023" height="22.347" viewBox="0 0 23.023 22.347">
  <path id="Driver_Track" data-name="Driver Track" d="M107,109.713v2.032h-6.433a1.016,1.016,0,1,0,0,2.032H117.5a3.047,3.047,0,1,1,0,6.095H101.248v-2.032H117.5a1.016,1.016,0,0,0,0-2.032H100.571a3.047,3.047,0,1,1,0-6.095ZM113.1,97.524a5.877,5.877,0,0,1,6.095,5.632l0,.2c-.075,1.862-1.188,3.955-3.016,6.077a25,25,0,0,1-2.149,2.2l-.3.265-.141.123-.265.225-.221.181-.221-.181-.265-.225-.288-.252a25,25,0,0,1-2.3-2.331c-1.828-2.123-2.941-4.216-3.016-6.078q0-.1,0-.2a5.865,5.865,0,0,1,5.956-5.631Zm0,4.063a2.032,2.032,0,1,0,2.032,2.032A2.032,2.032,0,0,0,113.1,101.587Z" transform="translate(-97.524 -97.524)" fill="#8bffc9"/>
</svg>
