<svg xmlns="http://www.w3.org/2000/svg" width="22.487" height="22.669" viewBox="0 0 22.487 22.669">
  <g id="Driver_Control" data-name="Driver Control" transform="translate(-108.639 -560.204)">
    <g id="a" transform="translate(108.639 560.204)">
      <path id="a-2" data-name="a" d="M442.991,451.106m-1.469,0a1.469,1.469,0,1,0,1.469-1.469A1.469,1.469,0,0,0,441.521,451.106Z" transform="translate(-431.748 -439.683)" fill="#8bffc9"/>
      <path id="a-3" data-name="a" d="M22.314,13.664a11.09,11.09,0,0,0,.224-2.237v-.16a.127.127,0,0,0,0-.037,11.242,11.242,0,1,0-22.485.026v.16A11.34,11.34,0,0,0,.3,13.739a.048.048,0,0,0,0,.022A11.28,11.28,0,0,0,9,22.431a11.041,11.041,0,0,0,2.29.239,11.362,11.362,0,0,0,2.513-.287h.082a11.284,11.284,0,0,0,8.427-8.707ZM11.3,2.045A9.393,9.393,0,0,1,20.271,8.7,14.688,14.688,0,0,0,2.32,8.7,9.4,9.4,0,0,1,11.3,2.045ZM2.376,14.317c.131,0,.261-.022.4-.022a5.7,5.7,0,0,1,5.69,5.694,2.524,2.524,0,0,1-.019.373,9.415,9.415,0,0,1-6.067-6.044Zm7.909,6.432A7.427,7.427,0,0,0,10.326,20,7.566,7.566,0,0,0,2.772,12.43a5.131,5.131,0,0,0-.794.041,8.875,8.875,0,0,1-.06-.9,12.842,12.842,0,0,1,18.749,0,8.652,8.652,0,0,1-.052.884c-.175,0-.347-.026-.522-.026a7.566,7.566,0,0,0-7.551,7.558,5.194,5.194,0,0,0,.034.723,9.016,9.016,0,0,1-1.279.093,10.069,10.069,0,0,1-1.011-.056Zm4.135-.481v-.28A5.7,5.7,0,0,1,20.1,14.294h.127a9.423,9.423,0,0,1-5.8,5.974Z" transform="translate(-0.053 0)" fill="#8bffc9"/>
    </g>
  </g>
</svg>
