<svg xmlns="http://www.w3.org/2000/svg" width="25.731" height="25.632" viewBox="0 0 25.731 25.632">
  <g id="Driver" transform="translate(-93.288 -673)">
    <g id="e" transform="translate(93.287 673)">
      <circle id="e-2" data-name="e" cx="5.55" cy="5.55" r="5.55" transform="translate(7.328 0)" fill="#fff"/>
      <path id="e-3" data-name="e" d="M199.732,307.738l-4.393,5.777-2.269.179a5.155,5.155,0,0,0-2.906,1.21l-2.209,2.015a2.222,2.222,0,0,0-.759,1.371l-.261,1.782H184.07l-1.434-1.936a2.358,2.358,0,0,1,.1-2.928l1.974-2.33,2.013-3.684a3.441,3.441,0,0,1,3.02-1.791h9.825a.208.208,0,0,1,.164.335Z" transform="translate(-182.174 -294.445)" fill="#fff"/>
      <path id="e-4" data-name="e" d="M222.614,361.151h12.7l-.1-.8a2.762,2.762,0,0,0-1.194-1.943l-2.045-1.382a4.02,4.02,0,0,0-1.619-.639h0a7.854,7.854,0,0,0-2.774.055l-.487.1a4.02,4.02,0,0,0-1.741.817l-1.853,1.5a2.072,2.072,0,0,0-.747,1.314Z" transform="translate(-216.16 -335.524)" fill="#fff"/>
      <path id="e-5" data-name="e" d="M280.341,311.791l.5.4a3.96,3.96,0,0,1,1.11,1.391l1.357,2.834a2.873,2.873,0,0,0,.382.6l1.8,2.169a1.95,1.95,0,0,1,.046,2.435l-1.571,2.043h-2.8s-.448-3.223-2.186-4.4-3.026-1.821-3.867-1.7c-.713.107,3.252-4.354,4.472-5.709A.553.553,0,0,1,280.341,311.791Z" transform="translate(-260.209 -298.031)" fill="#fff"/>
    </g>
  </g>
</svg>
