<svg id="Events" xmlns="http://www.w3.org/2000/svg" width="24.198" height="23.948" viewBox="0 0 24.198 23.948">
  <path id="a" d="M167.477,201.175h.988a.768.768,0,1,0,0-1.536h-.988a1.343,1.343,0,0,1-1.341-1.341V183.677a1.343,1.343,0,0,1,1.341-1.341h1.142a.768.768,0,1,0,0-1.536h-1.142a2.881,2.881,0,0,0-2.877,2.877V198.3A2.878,2.878,0,0,0,167.477,201.175Zm10.16-18.842h.85a1.343,1.343,0,0,1,1.341,1.341v2.38a.768.768,0,0,0,1.536,0v-2.376a2.881,2.881,0,0,0-2.877-2.877h-.85a.766.766,0,1,0,0,1.533Z" transform="translate(-164.394 -180.138)" fill="#8bffc9"/>
  <path id="a-2" data-name="a" d="M251.472,166.229h6.45a.768.768,0,0,0,0-1.536h-1.282v-2.136a1.059,1.059,0,0,0-1.056-1.056h-1.776a1.059,1.059,0,0,0-1.056,1.056v2.136h-1.282a.768.768,0,1,0,0,1.536Zm3.223-3.813a.981.981,0,1,1-.981.981A.98.98,0,0,1,254.695,162.416Zm-5.027,5.469a.768.768,0,1,0,0,1.536h3.559a.768.768,0,1,0,0-1.536Zm17.9,6a4.991,4.991,0,0,0-4.982-4.893h-4.362a4.989,4.989,0,0,0-4.979,4.838,3.292,3.292,0,0,0-2.664,3.227v1.68a3.291,3.291,0,0,0,3.288,3.288h.072v1.025a.768.768,0,0,0,1.536,0v-1.025h9.772v1.025a.768.768,0,0,0,1.536,0v-1.029A3.289,3.289,0,0,0,270,178.734v-1.68A3.291,3.291,0,0,0,267.567,173.882Zm-9.344-3.36h4.358a3.456,3.456,0,0,1,3.443,3.24h-11.24A3.453,3.453,0,0,1,258.223,170.522Zm10.242,8.209a1.753,1.753,0,0,1-1.752,1.752H253.869a1.753,1.753,0,0,1-1.752-1.752v-1.68a1.753,1.753,0,0,1,1.752-1.752H266.71a1.753,1.753,0,0,1,1.752,1.752v1.68Z" transform="translate(-245.804 -161.5)" fill="#8bffc9"/>
  <path id="a-3" data-name="a" d="M386.951,601.451m-1.351,0a1.351,1.351,0,1,0,1.351-1.351A1.351,1.351,0,0,0,385.6,601.451Z" transform="translate(-377.816 -585.061)" fill="#8bffc9"/>
  <path id="a-4" data-name="a" d="M701.451,601.451m-1.351,0a1.351,1.351,0,1,0,1.351-1.351A1.351,1.351,0,0,0,700.1,601.451Z" transform="translate(-681.532 -585.061)" fill="#8bffc9"/>
  <path id="a-5" data-name="a" d="M95.721,815.1H74.215a.768.768,0,1,0,0,1.536H95.721a.768.768,0,1,0,0-1.536Zm-22.888.768Z" transform="translate(-72.833 -792.688)" fill="#8bffc9"/>
</svg>
