<svg xmlns="http://www.w3.org/2000/svg" width="31.489" height="19.695" viewBox="0 0 31.489 19.695">
  <g id="Keypress" transform="translate(-5.511 -195.12)">
    <path id="a" d="M34.508,195.12H8a2.492,2.492,0,0,0-2.489,2.489v14.717A2.492,2.492,0,0,0,8,214.815H34.508A2.492,2.492,0,0,0,37,212.326V197.609A2.492,2.492,0,0,0,34.508,195.12Zm.622,17.206a.622.622,0,0,1-.622.622H8a.622.622,0,0,1-.622-.622V197.609A.622.622,0,0,1,8,196.987H34.508a.622.622,0,0,1,.622.622Z" fill="#fff"/>
    <path id="a-2" data-name="a" d="M197.51,374.12h3.111v2.489H197.51Z" transform="translate(-186.026 -173.431)" fill="#fff"/>
    <path id="a-3" data-name="a" d="M197.51,570.12h3.111v2.489H197.51Z" transform="translate(-186.026 -363.333)" fill="#fff"/>
    <path id="a-4" data-name="a" d="M373.51,374.12h3.111v2.489H373.51Z" transform="translate(-356.55 -173.431)" fill="#fff"/>
    <path id="a-5" data-name="a" d="M373.51,570.12h8.59v2.489h-8.59Z" transform="translate(-356.55 -363.333)" fill="#fff"/>
    <path id="a-6" data-name="a" d="M550.51,374.12h3.111v2.489H550.51Z" transform="translate(-528.043 -173.431)" fill="#fff"/>
    <path id="a-7" data-name="a" d="M726.51,374.12h3.111v2.489H726.51Z" transform="translate(-698.567 -173.431)" fill="#fff"/>
    <path id="a-8" data-name="a" d="M726.51,570.12h3.111v2.489H726.51Z" transform="translate(-698.567 -363.333)" fill="#fff"/>
  </g>
</svg>
