<svg id="manage_role" data-name="manage role" xmlns="http://www.w3.org/2000/svg" width="28.569" height="21.863" viewBox="0 0 28.569 21.863">
  <path id="a" d="M18.134,106.668a1.008,1.008,0,0,1-1.067-1.067v-2.133a3.143,3.143,0,0,0-3.2-3.2H5.334a3.143,3.143,0,0,0-3.2,3.2V105.6a1.008,1.008,0,0,1-1.067,1.067A1.008,1.008,0,0,1,0,105.6v-2.133a5.282,5.282,0,0,1,5.334-5.334h8.534a5.282,5.282,0,0,1,5.334,5.334V105.6A1.008,1.008,0,0,1,18.134,106.668ZM9.6,96a5.334,5.334,0,0,1,0-10.667A5.334,5.334,0,0,1,9.6,96Zm0-8.534a3.2,3.2,0,0,0,0,6.4,3.2,3.2,0,0,0,0-6.4Z" transform="translate(0 -85.333)" fill="#8bffc9"/>
  <g id="a-2" data-name="a" transform="translate(18.136 0.768)">
    <g id="a-3" data-name="a" transform="translate(0 0)">
      <path id="a-4" data-name="a" d="M97.668,27.088l-.173-.08a.763.763,0,0,1-.31-.384,1.278,1.278,0,0,1-.091-.355V18.219h-1.22a.842.842,0,0,1-.585-.278.807.807,0,0,1-.216-.6.826.826,0,0,1,.8-.8H97.1V8.473a.773.773,0,0,1,.153-.478.877.877,0,0,1,.71-.4h2.159a.838.838,0,0,1,.6.262.863.863,0,0,1,.23.6.844.844,0,0,1-.816.817H98.79v7.248h1.343a.848.848,0,0,1,0,1.7H98.79v7.232h1.328a.848.848,0,0,1,0,1.7l-2.159,0-.291-.064Z" transform="translate(-95.074 -6.823)" fill="#8bffc9"/>
      <path id="a-5" data-name="a" d="M103.827,25.893a1.62,1.62,0,1,1,1.62-1.62A1.62,1.62,0,0,1,103.827,25.893ZM95.069,15.313C95.082,14.877,95.055,15.535,95.069,15.313Zm8.758,1.651a1.62,1.62,0,1,1,1.621-1.62A1.62,1.62,0,0,1,103.827,16.964Zm0-8.929a1.62,1.62,0,1,1,1.445-.794A1.62,1.62,0,0,1,103.827,8.035Z" transform="translate(-95.064 -4.797)" fill="#8bffc9"/>
    </g>
    <path id="a-6" data-name="a" d="M102.4,8.5a.773.773,0,0,0,.153.478.877.877,0,0,0,.71.4h2.159a.838.838,0,0,0,.6-.262.863.863,0,0,0,.23-.6.844.844,0,0,0-.816-.817H104.1C103.511,7.546,103.24,7.4,102.4,8.5Z" transform="translate(-100.382 10.945)" fill="#8bffc9"/>
  </g>
</svg>
