<svg id="notice" xmlns="http://www.w3.org/2000/svg" width="9.509" height="11.615" viewBox="0 0 9.509 11.615">
  <path id="a" d="M178.5,168.773h-8.11a.7.7,0,0,1-.648-.962l.662-1.635v-2.484a3.838,3.838,0,0,1,.308-1.512,3.927,3.927,0,0,1,2.072-2.072,3.838,3.838,0,0,1,1.512-.308h.009a3.838,3.838,0,0,1,1.512.308,3.927,3.927,0,0,1,2.072,2.072,3.838,3.838,0,0,1,.308,1.512v2.453l.908,1.58a.7.7,0,0,1-.605,1.048Zm-7.871-.861h7.591l-.884-1.536v-2.683a3.041,3.041,0,0,0-3.031-3.031H174.3a3.041,3.041,0,0,0-3.031,3.031v2.652Z" transform="translate(-169.692 -158.763)" fill="#fff"/>
  <path id="a-2" data-name="a" d="M345.885,84.719a.38.38,0,0,1-.374-.315,1.453,1.453,0,1,1,2.885-.252,1.591,1.591,0,0,1-.021.252.381.381,0,0,1-.436.309l-.764-.124a1.415,1.415,0,0,0-.464,0l-.764.124A.307.307,0,0,1,345.885,84.719Zm1.056-.908a2.227,2.227,0,0,1,.354.028l.285.046a.693.693,0,0,0-1.278,0l.285-.046A2.254,2.254,0,0,1,346.942,83.811Zm1.974,10.5h-3.785a.431.431,0,1,1,0-.861h3.785a.431.431,0,1,1,0,.861Z" transform="translate(-342.345 -82.7)" fill="#fff"/>
</svg>
