<svg id="report" xmlns="http://www.w3.org/2000/svg" width="23.88" height="22.515" viewBox="0 0 23.88 22.515">
  <path id="a" d="M181.71,83.956H170.026a2.766,2.766,0,0,1-2.772-2.772V63.7a2.275,2.275,0,0,1,2.26-2.26h12.707a2.275,2.275,0,0,1,2.26,2.26V81.227A2.757,2.757,0,0,1,181.71,83.956Zm-12.2-21.236a.992.992,0,0,0-.981.981V81.227a1.511,1.511,0,0,0,1.492,1.492H181.71a1.511,1.511,0,0,0,1.492-1.492V63.7a.992.992,0,0,0-.981-.981H169.514Z" transform="translate(-163.928 -61.441)" fill="#8bffc9"/>
  <path id="a-2" data-name="a" d="M56.307,218.529h-2.26a.656.656,0,0,1-.64-.64V203.733a.656.656,0,0,1,.64-.64h2.26a1.667,1.667,0,0,1,1.706,1.62v12.238a1.66,1.66,0,0,1-1.706,1.578Zm-1.62-1.279h1.62a.387.387,0,0,0,.426-.341v-12.2a.421.421,0,0,0-.426-.341h-1.62ZM38.1,218.529h-2.26a1.667,1.667,0,0,1-1.706-1.62v-12.2a1.667,1.667,0,0,1,1.706-1.62H38.1a.656.656,0,0,1,.64.64V217.89A.656.656,0,0,1,38.1,218.529Zm-2.26-14.157a.387.387,0,0,0-.426.341v12.238a.421.421,0,0,0,.426.341h1.62V204.372Z" transform="translate(-34.133 -199.554)" fill="#8bffc9"/>
  <path id="a-3" data-name="a" d="M323.28,252.159h-8.614a.64.64,0,0,1,0-1.279h8.656a.656.656,0,0,1,.64.64A.665.665,0,0,1,323.28,252.159Zm0,3.923h-8.614a.64.64,0,0,1,0-1.279h8.656a.656.656,0,0,1,.64.64A.665.665,0,0,1,323.28,256.082Zm0,3.923h-8.614a.64.64,0,0,1,0-1.279h8.656a.656.656,0,0,1,.64.64A.665.665,0,0,1,323.28,260.005Zm0,3.923h-8.614a.64.64,0,0,1,0-1.279h8.656a.656.656,0,0,1,.64.64A.665.665,0,0,1,323.28,263.928Z" transform="translate(-307.034 -246.147)" fill="#8bffc9"/>
</svg>
