<svg xmlns="http://www.w3.org/2000/svg" width="22.757" height="22.757" viewBox="0 0 22.757 22.757">
  <path id="Resources" d="M139.379,129.991l6.8,2.276-6.8,2.276-6.8-2.276,6.8-2.276m0-1.991L128,131.793v.948l11.379,3.793,11.379-3.793v-.948Zm0,11.545-9.482-3.082H128v.948l11.379,3.793,11.379-3.793v-.948h-1.9Zm0,4.812-9.482-3.082H128v.948l11.379,3.793,11.379-3.793v-.948h-1.9Zm0,4.741-9.482-3.082H128v.948l11.379,3.793,11.379-3.793v-.948h-1.9Z" transform="translate(-128 -128)" fill="#8bffc9"/>
</svg>
