<svg xmlns="http://www.w3.org/2000/svg" width="29.611" height="17.273" viewBox="0 0 29.611 17.273">
  <path id="SOS" d="M6.786,224.08a4.507,4.507,0,0,0-2.23-.587,3.194,3.194,0,1,1,3.155-3.664h1.38a4.557,4.557,0,1,0-4.534,5.028,3.194,3.194,0,1,1-3.081,4.022H.076a4.556,4.556,0,1,0,6.71-4.8Zm20.034,0a4.5,4.5,0,0,0-2.23-.585,3.194,3.194,0,1,1,3.155-3.664h1.377a4.557,4.557,0,1,0-4.533,5.026,3.194,3.194,0,1,1-3.081,4.022h-1.4a4.557,4.557,0,1,0,6.71-4.8ZM14.5,232.57a4.383,4.383,0,0,1-4.5-4.252v-8.3a4.384,4.384,0,0,1,4.494-4.254,4.384,4.384,0,0,1,4.494,4.254v8.3A4.381,4.381,0,0,1,14.5,232.57Zm0-15.445a3.022,3.022,0,0,0-3.132,2.891v8.3a3.02,3.02,0,0,0,3.132,2.889,3.02,3.02,0,0,0,3.132-2.889v-8.3A3.021,3.021,0,0,0,14.5,217.125Z" transform="translate(0.199 -215.542)" fill="#8bffc9" stroke="#8bfec9" stroke-width="0.4"/>
</svg>
