<svg xmlns="http://www.w3.org/2000/svg" width="27.988" height="26.822" viewBox="0 0 27.988 26.822">
  <path id="task" d="M153.1,133.533h-4.662v-3.112c0-1.2-1.051-1.553-2.327-1.553h-9.34c-1.277,0-2.327.347-2.327,1.553v3.112h-4.662a2.327,2.327,0,0,0-2.335,2.332v17.493a2.339,2.339,0,0,0,2.335,2.332H153.1a2.327,2.327,0,0,0,2.335-2.332V135.865a2.339,2.339,0,0,0-2.335-2.332ZM136.777,131.2h9.329v2.332h-9.329Zm-6.994,4.665H153.1v4.721a1.122,1.122,0,0,0-.279-.056H129.778c0-2.655,0-4.665.005-4.665Zm13.668,7a2.313,2.313,0,0,1-4.018,0Zm9.65,10.5H129.78v-10.5h7.164a4.643,4.643,0,0,0,9,0h6.884a1.119,1.119,0,0,0,.279-.056c0,4.884,0,10.552,0,10.552Z" transform="translate(-127.447 -128.868)" fill="#db7b48"/>
</svg>
