<svg xmlns="http://www.w3.org/2000/svg" width="23.433" height="22.456" viewBox="0 0 23.433 22.456">
  <path id="Task_Assign" data-name="Task Assign" d="M148.925,132.773h-3.9v-2.605c0-1-.88-1.3-1.948-1.3h-7.82c-1.069,0-1.948.291-1.948,1.3v2.605h-3.9a1.948,1.948,0,0,0-1.955,1.953v14.645a1.958,1.958,0,0,0,1.955,1.953h19.522a1.948,1.948,0,0,0,1.955-1.953V134.726A1.958,1.958,0,0,0,148.925,132.773Zm-13.667-1.953h7.811v1.953h-7.811Zm-5.856,3.905s19.525,0,19.525,0,0,1.706,0,3.953a.94.94,0,0,0-.233-.047H129.4C129.4,136.409,129.4,134.726,129.4,134.726Zm11.443,5.858a1.937,1.937,0,0,1-3.364,0Zm8.079,8.787s-19.525,0-19.525,0,0-4.709,0-8.787h6a3.887,3.887,0,0,0,7.535,0h5.764a.938.938,0,0,0,.234-.047C148.929,144.626,148.928,149.371,148.925,149.371Z" transform="translate(-127.447 -128.868)" fill="#8bffc9"/>
</svg>
