<svg xmlns="http://www.w3.org/2000/svg" width="29.384" height="29.383" viewBox="0 0 29.384 29.383">
  <path id="Telematics_" data-name="Telematics " d="M27.079,10.832a1.805,1.805,0,0,1,1.805,1.805V23.468a1.8,1.8,0,0,1-1.805,1.805H20.761v1.805h2.708a.9.9,0,1,1,0,1.805H16.247a.9.9,0,0,1,0-1.805h2.708v-1.8H12.637a1.805,1.805,0,0,1-1.805-1.805V12.637a1.805,1.805,0,0,1,1.805-1.805Zm0,1.805H12.637V23.468H27.079ZM6.318,14.442a.9.9,0,0,1,.9.9v4.513h.9a.9.9,0,1,1,0,1.805h-1.8a.9.9,0,0,1-.9-.9V15.345a.9.9,0,0,1,.9-.9ZM10.832,0a1.805,1.805,0,0,1,1.805,1.805V7.221a1.805,1.805,0,0,1-1.8,1.8H7.221v1.805h1.8a.9.9,0,0,1,0,1.805H3.611a.9.9,0,0,1,0-1.805h1.8V9.026H1.8A1.8,1.8,0,0,1,0,7.221V1.8A1.8,1.8,0,0,1,1.805,0Zm9.929,3.611a.9.9,0,0,1,.9.9V8.124a.9.9,0,0,1-1.805,0V5.416H15.345a.9.9,0,1,1,0-1.805ZM10.832,1.8H1.8V7.221h9.026Z" transform="translate(0.25 0.25)" fill="#12bf6f" stroke="#12bf6f" stroke-width="0.5"/>
</svg>
