<svg xmlns="http://www.w3.org/2000/svg" width="27.506" height="27.506" viewBox="0 0 27.506 27.506">
  <g id="turn_off" data-name="turn off" transform="translate(-102.4 -102.4)">
    <path id="a" d="M109.494,148.565a1.376,1.376,0,1,1,1.334,2.406,11,11,0,1,0,10.963.179,1.375,1.375,0,0,1,1.412-2.361,13.752,13.752,0,1,1-13.708-.225Z" transform="translate(0 -44.448)" fill="#8bfec9"/>
    <path id="a-2" data-name="a" d="M471.04,102.4m1.375,0h0a1.216,1.216,0,0,1,1.375,1.375v13.753a1.216,1.216,0,0,1-1.375,1.375h0a1.216,1.216,0,0,1-1.375-1.375V103.775A1.216,1.216,0,0,1,472.415,102.4Z" transform="translate(-356.262 0)" fill="#8bfec9"/>
  </g>
</svg>
