<svg xmlns="http://www.w3.org/2000/svg" width="25.825" height="23.936" viewBox="0 0 25.825 23.936">
  <path id="Vehicle_" data-name="Vehicle " d="M87.365,128.8a1.845,1.845,0,0,1-3.689,0v-.615H69.943v.615a1.845,1.845,0,0,1-3.689,0v-.615h-.409A1.845,1.845,0,0,1,64,126.342v-7.378a1.845,1.845,0,0,1,1.845-1.845h.091l1.316-8.879a1.845,1.845,0,0,1,1.824-1.574H84.749a1.845,1.845,0,0,1,1.824,1.574l1.316,8.879h.091a1.845,1.845,0,0,1,1.845,1.845v7.378a1.845,1.845,0,0,1-1.845,1.845h-.615Zm-16.294-7.378h-2.46a1.537,1.537,0,0,0-.157,3.067l.157.007H71.07a1.537,1.537,0,1,0,0-3.074Zm14.142,0h-2.46a1.537,1.537,0,0,0-.157,3.067l.157.007h2.459a1.537,1.537,0,1,0,0-3.074Zm-2.828-11.067H71.528a.984.984,0,0,0-.947.722l-.027.13-.8,5.911H84.167l-.808-5.912a.984.984,0,0,0-.842-.842Z" transform="translate(-64 -106.666)" fill="#fff" opacity="0.999"/>
</svg>
