<svg xmlns="http://www.w3.org/2000/svg" width="20" height="20" viewBox="0 0 23.894 24.106">
  <g id="HoTo" transform="translate(-1.974 21.29)">
    <path id="a" d="M25.363,567.2l-.108-.072c-.741-.6-4.46-3.79-4.783-4.125a1.674,1.674,0,0,0-1-.418H12.008a1.8,1.8,0,0,0-.359,0,1.662,1.662,0,0,0-1.459,1.841,2.1,2.1,0,0,0,1.71,2.045l1.028.132H9.186c-.514-.371-2.08-1.471-3.121-2.248a3.371,3.371,0,0,0-2.63-.682,2.1,2.1,0,0,0-1.279.909,1.53,1.53,0,0,0,.072,1.566c1.2,1.064,5.261,4.52,5.572,4.783a1.387,1.387,0,0,0,1.2.251h8.37a1.47,1.47,0,0,1,.717.3l1.65,1.375a1.59,1.59,0,0,0,.968.335,1.686,1.686,0,0,0,1.04-.43l3.766-3.922a1.2,1.2,0,0,0,.359-.933A1.028,1.028,0,0,0,25.363,567.2Zm-4.687,4.615a.227.227,0,0,1-.155-.06l-1.65-1.363a2.583,2.583,0,0,0-1.4-.562H8.827l-.084.072H8.672c-.287-.263-4.1-3.515-5.416-4.663v-.084a.622.622,0,0,1,.395-.251,2.152,2.152,0,0,1,1.566.5c1.267.945,3.276,2.391,3.3,2.391l.179.12H14l1.578-1.052A.837.837,0,0,0,16,565.9a.753.753,0,0,0-.777-.55c-1.112-.072-2.583-.179-3.121-.3a.682.682,0,0,1-.6-.682c-.012-.442-.012-.442.466-.442h7.282a.323.323,0,0,1,.2.072c.6.6,3.766,3.324,4.783,4.125Z" transform="translate(0 -570.376)" fill="#dbb227"/>
    <path id="a-2" data-name="a" d="M620.4,144.364m1.2,0h0a1.057,1.057,0,0,1,1.2,1.2v4.783a1.057,1.057,0,0,1-1.2,1.2h0a1.057,1.057,0,0,1-1.2-1.2v-4.783A1.057,1.057,0,0,1,621.6,144.364Z" transform="translate(-604.138 -161.826)" fill="#dbb227"/>
    <path id="a-3" data-name="a" d="M269.477,144.364m0,1.2h0a1.057,1.057,0,0,1-1.2,1.2h-8.37a1.057,1.057,0,0,1-1.2-1.2h0a1.057,1.057,0,0,1,1.2-1.2h8.37A1.057,1.057,0,0,1,269.477,145.559Z" transform="translate(-250.81 -161.826)" fill="#dbb227"/>
    <path id="a-4" data-name="a" d="M259.97-21.29m.845.845h0a1.057,1.057,0,0,1,0,1.691l-3.34,3.34a1.057,1.057,0,0,1-1.691,0h0a1.057,1.057,0,0,1,0-1.691l3.34-3.34A1.057,1.057,0,0,1,260.815-20.445Z" transform="translate(-247.533 0)" fill="#dbb227"/>
    <path id="a-5" data-name="a" d="M237.03,142.722m.845-.845h0a1.057,1.057,0,0,1,1.691,0l3.34,3.34a1.057,1.057,0,0,1,0,1.691h0a1.057,1.057,0,0,1-1.691,0l-3.34-3.34A1.057,1.057,0,0,1,237.876,141.876Z" transform="translate(-229.625 -158.983)" fill="#dbb227"/>
  </g>
</svg>
