<svg xmlns="http://www.w3.org/2000/svg" width="14.724" height="14.724" viewBox="0 0 14.724 14.724">
  <g id="Parked" transform="translate(-175.276 -116.276)">
    <path id="O" d="M345.021,213.33H341.34v8.589h1.227v-3.681h2.454a2.454,2.454,0,0,0,0-4.908Zm0,3.681h-2.454v-2.454h2.454a1.227,1.227,0,1,1,0,2.454Z" transform="translate(-161.155 -93.986)" fill="#fff"/>
    <path id="P" d="M7.362,0a7.362,7.362,0,1,0,7.362,7.362A7.37,7.37,0,0,0,7.362,0Zm0,13.5A6.135,6.135,0,1,1,13.5,7.362,6.142,6.142,0,0,1,7.362,13.5Z" transform="translate(175.276 116.276)" fill="#fff"/>
  </g>
</svg>
