<svg xmlns="http://www.w3.org/2000/svg" width="34" height="34" viewBox="0 0 34 34">
  <g id="drag-waypoint" transform="translate(-10275 -8349)">
    <rect id="q" width="34" height="34" transform="translate(10275 8349)" fill="#fff" opacity="0"/>
    <path id="a" d="M64.441,66.882a1.441,1.441,0,1,1,1.441-1.441A1.441,1.441,0,0,1,64.441,66.882Zm0,8.647a1.441,1.441,0,1,1,1.441-1.441A1.441,1.441,0,0,1,64.441,75.529Zm0,8.647a1.441,1.441,0,1,1,1.441-1.441A1.441,1.441,0,0,1,64.441,84.177ZM68.067,64.54H82.3a.9.9,0,1,1,0,1.8H68.067a.9.9,0,0,1,0-1.8Zm0,8.647H82.3a.9.9,0,1,1,0,1.8H68.067a.9.9,0,0,1,0-1.8Zm0,8.647H82.3a.9.9,0,1,1,0,1.8H68.067a.9.9,0,0,1,0-1.8Z" transform="translate(10219 8292)" fill="#449ff1"/>
  </g>
</svg>
