<svg xmlns="http://www.w3.org/2000/svg" width="41.344" height="41.344" viewBox="0 0 41.344 41.344">
  <path id="icon1" d="M104.375,102.377l-11.66-11.66h11.153a1.477,1.477,0,1,0,0-2.953h-16.2v16.1a1.477,1.477,0,1,0,2.953,0V92.807l11.66,11.66a1.478,1.478,0,1,0,2.09-2.09ZM78.72,65.477V76.722L67.013,65.015a1.478,1.478,0,0,0-2.09,2.09l11.66,11.66H65.477a1.477,1.477,0,0,0,0,2.953h16.2V65.477a1.477,1.477,0,0,0-2.953,0Zm25.61-.323a1.479,1.479,0,0,0-2.09,0L90.625,76.768V65.477a1.477,1.477,0,0,0-2.953,0V81.719h16.2a1.477,1.477,0,1,0,0-2.953H92.807l11.522-11.522A1.479,1.479,0,0,0,104.329,65.154ZM64,89.24a1.475,1.475,0,0,0,1.477,1.477h11.2l-11.8,11.8a1.478,1.478,0,0,0,2.09,2.09L78.72,92.853v11.014a1.477,1.477,0,1,0,2.953,0v-16.1h-16.2A1.475,1.475,0,0,0,64,89.24Z" transform="translate(-64 -64)" fill="#e29700"/>
</svg>
