<svg xmlns="http://www.w3.org/2000/svg" width="40.289" height="40.289" viewBox="0 0 40.289 40.289">
  <path id="icon2" d="M20.727,16.918,32.07,5.575a.316.316,0,0,0-.224-.539H26.589a.321.321,0,0,1-.216-.087c-1.763-1.652-.618-3.691,1-3.691h9.789a1.889,1.889,0,0,1,1.889,1.889v9.758a1.913,1.913,0,0,1-1.857,1.92,1.889,1.889,0,0,1-1.92-1.889V8.467a.317.317,0,0,0-.539-.224L23.394,19.586a1.886,1.886,0,1,1-2.668-2.668ZM1.228,37.142V27.384a1.913,1.913,0,0,1,1.857-1.92A1.889,1.889,0,0,1,5,27.353v4.47a.317.317,0,0,0,.539.224L16.887,20.7a1.888,1.888,0,0,1,2.668,2.672L8.211,34.714a.316.316,0,0,0,.224.539h4.438a1.913,1.913,0,0,1,1.92,1.857,1.889,1.889,0,0,1-1.889,1.92H3.116a1.889,1.889,0,0,1-1.889-1.889ZM2.518,13.849H0V0H13.849V2.518H2.518Zm37.771,26.44H26.44V37.771H37.771V26.44h2.518Z" fill="#e29700"/>
</svg>
