<?xml version="1.0" standalone="no"?><!DOCTYPE svg PUBLIC "-//W3C//DTD SVG 1.1//EN" "http://www.w3.org/Graphics/SVG/1.1/DTD/svg11.dtd"><svg t="1667360117346" class="icon" viewBox="0 0 1180 1024" version="1.1" xmlns="http://www.w3.org/2000/svg" p-id="4358" width="55.3125" height="48" xmlns:xlink="http://www.w3.org/1999/xlink"><path d="M1179.765047 921.214851a104.269274 104.269274 0 0 1-105.905616 102.328495 51.031057 51.031057 0 0 1-16.591753-2.701868l-287.996302-96.810596-341.691172 97.457522a51.145221 51.145221 0 0 1-14.308485 2.016888 52.362964 52.362964 0 0 1-19.027239-3.805448l-0.4186 1.255798-297.624085-100.083282a103.964838 103.964838 0 0 1-96.201724-101.871842V102.586886A104.345383 104.345383 0 0 1 106.019851 0.25839a52.401018 52.401018 0 0 1 16.591753 2.663813l290.35568 97.609741L757.626705 2.237223a51.601874 51.601874 0 0 1 38.05448 3.805448L1083.563323 102.853267a104.193165 104.193165 0 0 1 96.277833 101.681569z m-818.171311-729.884919L106.134015 105.402917l-2.739923 713.445383a70.362733 70.362733 0 0 1 19.331676 2.701869l238.867968 80.294951V191.329932z m358.777634-71.961021l-255.459722 72.874328v712.151532l255.459722-72.912383V119.254748z m336.74409 82.844602l-233.464233-78.506391V834.260365l250.170149 84.138454 2.701868-713.521492a70.895495 70.895495 0 0 1-19.36973-2.663814z" p-id="4359" fill="#3899ED"></path></svg>