<svg xmlns="http://www.w3.org/2000/svg" width="62.391" height="74.667" viewBox="0 0 62.391 74.667">
  <g id="Hard_braking" data-name="Hard braking" transform="translate(-1410.876 -13982.308)">
    <g id="e" transform="translate(622.876 -139)">
      <path id="6607" data-name="6607" d="M121.81,0A31.106,31.106,0,0,0,90.6,30.991a30.731,30.731,0,0,0,7.832,20.491,3.383,3.383,0,0,0,.51.715l20.272,21.089a4.2,4.2,0,0,0,.321.394,3.206,3.206,0,0,0,1.035.685,3.119,3.119,0,0,0,3.529-.583,3.034,3.034,0,0,0,.613-.89L144.6,52.2a2.725,2.725,0,0,0,.467-.613,30.688,30.688,0,0,0,7.919-20.578A31.065,31.065,0,0,0,121.81,0ZM121.8,43.592a13.957,13.957,0,1,1,14.059-13.957A14.017,14.017,0,0,1,121.8,43.592Z" transform="translate(697.4 14121.308)" fill="#174C6D"/>
      <circle id="12" data-name="12" cx="23" cy="23" r="23" transform="translate(796 14129)" fill="#fff"/>
    </g>
    <g id="e-2" data-name="e" transform="translate(1426.274 13997.308)">
      <path id="6541" data-name="6541" d="M170.761,138.1a3.992,3.992,0,0,1-1.864-1.276,7.94,7.94,0,0,1-.687,5.1,10.564,10.564,0,0,1-1.766,2.355,9.339,9.339,0,0,1-.981,2.747,42.032,42.032,0,0,1-8.733-4.121c.2-.393.294-.491.589-1.079-6.868-2.551-13.639-6.868-15.012-10.4,0-1.668,2.257-2.355,3.729-1.962,1.374.392,2.944,1.374,4.514,1.766.589.2,10.7.589,11.48.589-1.668-.981-2.061-1.374-2.159-1.766,1.472-1.962,6.182-6.967,7.359-9.223,2.453,2.355,3.336,15.5,3.63,17.171Zm-18.25,9.518-.589.785a1.055,1.055,0,0,1-1.374.2l-4.317-3.336-5.4,6.868a5.942,5.942,0,0,1-1.57-2.747l4.71-5.985-2.747-2.061a1.055,1.055,0,0,1-.2-1.374l.589-.785a1.055,1.055,0,0,1,1.374-.2l9.321,7.261A1.038,1.038,0,0,1,152.51,147.619Z" transform="translate(-139.264 -120.832)" fill="#79BCDF"/>
    </g>
  </g>
</svg>
