<svg xmlns="http://www.w3.org/2000/svg" width="62.391" height="74.667" viewBox="0 0 62.391 74.667">
  <g id="Idle_Time" data-name="Idle Time" transform="translate(-1590.609 -13982.308)">
    <g id="b" transform="translate(802.609 -139)">
      <path id="6607" data-name="6607" d="M121.81,0A31.106,31.106,0,0,0,90.6,30.991a30.731,30.731,0,0,0,7.832,20.491,3.383,3.383,0,0,0,.51.715l20.272,21.089a4.2,4.2,0,0,0,.321.394,3.206,3.206,0,0,0,1.035.685,3.119,3.119,0,0,0,3.529-.583,3.034,3.034,0,0,0,.613-.89L144.6,52.2a2.725,2.725,0,0,0,.467-.613,30.688,30.688,0,0,0,7.919-20.578A31.065,31.065,0,0,0,121.81,0ZM121.8,43.592a13.957,13.957,0,1,1,14.059-13.957A14.017,14.017,0,0,1,121.8,43.592Z" transform="translate(697.4 14121.308)" fill="#7415A8"/>
      <circle id="12" data-name="12" cx="23" cy="23" r="23" transform="translate(796 14129)" fill="#fff"/>
    </g>
    <g id="b-2" data-name="b" transform="translate(1607.342 13997.308)">
      <path id="6547" data-name="6547" d="M134.645,142.55a.87.87,0,0,1-.785-.483.9.9,0,0,1,.362-1.207l3.8-1.992a.891.891,0,0,1,.845,1.57l-3.8,1.992A.651.651,0,0,1,134.645,142.55Zm4.407,5.554a1.137,1.137,0,0,1-.483-.121.952.952,0,0,1-.3-1.268l2.294-3.622a.922.922,0,0,1,1.57.966l-2.294,3.622A.88.88,0,0,1,139.052,148.1Zm6.641,2.6h0a.9.9,0,0,1-.906-.966l.181-4.287a.908.908,0,0,1,1.811.121l-.181,4.286A.968.968,0,0,1,145.694,150.7Zm7-1.087a.87.87,0,0,1-.785-.483l-1.992-3.8a.891.891,0,0,1,1.57-.845l1.992,3.8a.9.9,0,0,1-.362,1.207A1.537,1.537,0,0,1,152.7,149.613Zm5.494-4.468a1.138,1.138,0,0,1-.483-.121l-3.622-2.294a.922.922,0,0,1,.966-1.57l3.622,2.294a.952.952,0,0,1,.3,1.268A.88.88,0,0,1,158.191,145.146Zm-9.78-8.452a.929.929,0,0,1-.906-.906V122.506a.906.906,0,0,1,1.811,0v13.222A.942.942,0,0,1,148.41,136.693Zm-4.77-8.392a.87.87,0,0,1-.785-.483l-1.992-3.8a.891.891,0,1,1,1.57-.845l1.992,3.8a.9.9,0,0,1-.362,1.207A.509.509,0,0,1,143.641,128.3Zm-3.864,2.958a1.137,1.137,0,0,1-.483-.121l-3.622-2.294a.922.922,0,0,1,.966-1.57l3.622,2.294a.952.952,0,0,1,.3,1.268A1.275,1.275,0,0,1,139.777,131.26Zm-1.932,4.468h0l-4.347-.181a.908.908,0,1,1,.121-1.811l4.287.181a.86.86,0,0,1,.845.966A.918.918,0,0,1,137.845,135.727Z" transform="translate(-132.647 -121.6)" fill="#B976EA" stroke="#B976EA" stroke-width="1"/>
      <path id="6548" data-name="6548" d="M539.561,475.411H527.306a.906.906,0,0,1,0-1.811h12.256a.929.929,0,0,1,.906.906A.889.889,0,0,1,539.561,475.411Z" transform="translate(-511.542 -460.318)" fill="#B976EA" stroke="#B976EA" stroke-width="1"/>
    </g>
  </g>
</svg>
