<svg xmlns="http://www.w3.org/2000/svg" width="62.391" height="74.667" viewBox="0 0 62.391 74.667">
  <g id="Rapid_Acc" data-name="Rapid Acc" transform="translate(-1669.609 -13982.308)">
    <g id="c" transform="translate(673 13099)">
      <g id="9906" data-name="9906" transform="translate(208.609 -13238)">
        <path id="6607" data-name="6607" d="M121.81,0A31.106,31.106,0,0,0,90.6,30.991a30.731,30.731,0,0,0,7.832,20.491,3.383,3.383,0,0,0,.51.715l20.272,21.089a4.2,4.2,0,0,0,.321.394,3.206,3.206,0,0,0,1.035.685,3.119,3.119,0,0,0,3.529-.583,3.034,3.034,0,0,0,.613-.89L144.6,52.2a2.725,2.725,0,0,0,.467-.613,30.688,30.688,0,0,0,7.919-20.578A31.065,31.065,0,0,0,121.81,0ZM121.8,43.592a13.957,13.957,0,1,1,14.059-13.957A14.017,14.017,0,0,1,121.8,43.592Z" transform="translate(697.4 14121.308)" fill="#1C3CAA"/>
        <circle id="12" data-name="12" cx="23" cy="23" r="23" transform="translate(796 14129)" fill="#fff"/>
      </g>
      <g id="9908" data-name="9908" transform="translate(-180.745 -13330)">
        <path id="6608" data-name="6608" d="M17.975,137A18,18,0,0,0,2.62,164.361a.558.558,0,0,0,.479.269h29.82a.558.558,0,0,0,.479-.269,18.213,18.213,0,0,0,1.006-1.9A18.013,18.013,0,0,0,17.975,137Zm14.563,24.144c-.192.451-.4.891-.632,1.32H4.1c-.231-.43-.44-.87-.632-1.32a15.776,15.776,0,0,1,29.066-12.275,15.808,15.808,0,0,1,0,12.275Z" transform="translate(1190.745 14090.232)" fill="#6287F3"/>
        <rect id="6503" data-name="6503" width="27" height="5" transform="translate(1195 14251)" fill="#fff"/>
        <rect id="6502" data-name="6502" width="9.522" height="2.38" rx="1.19" transform="translate(1193.603 14252.481)" fill="#6287F3"/>
        <rect id="6504" data-name="6504" width="9.522" height="2.38" rx="1.19" transform="translate(1214.234 14252.481)" fill="#6287F3"/>
      </g>
      <g id="9909" data-name="9909" transform="translate(61.829 -13526.858)">
        <path id="6612" data-name="6612" d="M937.956,14422.8l1.9-6.031-4.758,4.316Z" transform="translate(31.26 17.492)" fill="#6287F3" stroke="#6287F3" stroke-linejoin="round" stroke-width="1"/>
        <g id="14" data-name="14" transform="translate(960.171 14436.5)" fill="#fff" stroke="#6287F3" stroke-width="1.8">
          <circle cx="5.5" cy="5.5" r="5.5" stroke="none"/>
          <circle cx="5.5" cy="5.5" r="4.6" fill="none"/>
        </g>
      </g>
    </g>
  </g>
</svg>
