<svg xmlns="http://www.w3.org/2000/svg" width="62.391" height="74.667" viewBox="0 0 62.391 74.667">
  <g id="Speeding" transform="translate(-1506.609 -13982.308)">
    <g id="a" transform="translate(718.609 -139)">
      <path id="6607" data-name="6607" d="M121.81,0A31.106,31.106,0,0,0,90.6,30.991a30.731,30.731,0,0,0,7.832,20.491,3.383,3.383,0,0,0,.51.715l20.272,21.089a4.2,4.2,0,0,0,.321.394,3.206,3.206,0,0,0,1.035.685,3.119,3.119,0,0,0,3.529-.583,3.034,3.034,0,0,0,.613-.89L144.6,52.2a2.725,2.725,0,0,0,.467-.613,30.688,30.688,0,0,0,7.919-20.578A31.065,31.065,0,0,0,121.81,0ZM121.8,43.592a13.957,13.957,0,1,1,14.059-13.957A14.017,14.017,0,0,1,121.8,43.592Z" transform="translate(697.4 14121.308)" fill="#664D07"/>
      <circle id="12" data-name="12" cx="23" cy="23" r="23" transform="translate(796 14129)" fill="#fff"/>
    </g>
    <g id="a-2" data-name="a" transform="translate(1523.288 13997.308)">
      <path id="6550" data-name="6550" d="M164.253,122.388c-2.763-2.763-9.634-.063-15.98,6.283-.868.868-1.668,1.762-2.413,2.663l-.007-.026-8.726,2.64,5.02,5.02,5.523,5.53,5.02,5.02,2.64-8.729-.022-.007c.9-.741,1.8-1.546,2.663-2.413C164.316,132.026,167.016,125.155,164.253,122.388Zm-20.293,11.5a25.033,25.033,0,0,0-1.553,2.637l-1.665-1.665Zm7.824,12.018-1.665-1.665a24.647,24.647,0,0,0,2.637-1.553Zm-3.1-3.1-4.849-4.849a28.668,28.668,0,0,1,5.791-7.929c5.761-5.761,11.619-7.932,13.273-6.283s-.521,7.511-6.283,13.273A29.138,29.138,0,0,1,148.686,142.8Zm-4.391-.384a3.193,3.193,0,0,0-.335-.3,3.511,3.511,0,0,0-3.11-.629,3.842,3.842,0,0,0-2.573,2.253l-1.977,6.662,6.573-1.944.089-.034a3.842,3.842,0,0,0,2.253-2.573,3.517,3.517,0,0,0-.629-3.106A3.136,3.136,0,0,0,144.3,142.42Zm-.931,2.949a1.919,1.919,0,0,1-1.084,1.27l-3.143.931.931-3.139a1.92,1.92,0,0,1,1.27-1.084,1.62,1.62,0,0,1,1.434.279,1.558,1.558,0,0,1,.168.153,1.989,1.989,0,0,1,.145.164A1.6,1.6,0,0,1,143.365,145.37Z" transform="translate(-136.3 -121.309)" fill="#BF9F27" stroke="#BF9F27" stroke-width="0.4"/>
      <path id="6551" data-name="6551" d="M539.308,331.615a3.408,3.408,0,1,1,2.409-1A3.379,3.379,0,0,1,539.308,331.615Zm0-4.9a1.493,1.493,0,0,0-1.054,2.547,1.532,1.532,0,0,0,2.112,0,1.491,1.491,0,0,0-1.058-2.547Z" transform="translate(-521.018 -317.222)" fill="#BF9F27" stroke="#BF9F27" stroke-width="0.4"/>
    </g>
  </g>
</svg>
