<svg xmlns="http://www.w3.org/2000/svg" width="62.391" height="74.667" viewBox="0 0 62.391 74.667">
  <g id="truck" transform="translate(-1781.609 -13982.308)">
    <g id="c" transform="translate(785 13099)">
      <g id="a" transform="translate(208.609 -13238)">
        <path id="a-2" data-name="a" d="M121.81,0A31.106,31.106,0,0,0,90.6,30.991a30.731,30.731,0,0,0,7.832,20.491,3.383,3.383,0,0,0,.51.715l20.272,21.089a4.2,4.2,0,0,0,.321.394,3.206,3.206,0,0,0,1.035.685,3.119,3.119,0,0,0,3.529-.583,3.034,3.034,0,0,0,.613-.89L144.6,52.2a2.725,2.725,0,0,0,.467-.613,30.688,30.688,0,0,0,7.919-20.578A31.065,31.065,0,0,0,121.81,0ZM121.8,43.592a13.957,13.957,0,1,1,14.059-13.957A14.017,14.017,0,0,1,121.8,43.592Z" transform="translate(697.4 14121.308)" fill="gray"/>
        <circle id="a-3" data-name="a" cx="23" cy="23" r="23" transform="translate(796 14129)" fill="#fff"/>
      </g>
    </g>
    <g id="a-4" data-name="a" transform="translate(1743.893 13783.969)">
      <path id="a-5" data-name="a" d="M55.3,228.267v7.646a.6.6,0,0,0,.6.6h.092A.6.6,0,0,0,56.58,236a3.43,3.43,0,0,1,6.784,0,.6.6,0,0,0,.591.513h1.211a.6.6,0,0,0,.6-.6V222.668a.6.6,0,0,0-.6-.6H62a3.58,3.58,0,0,0-2.61,1.131l-3.607,3.842A1.78,1.78,0,0,0,55.3,228.267Zm8.373-3.481v4.3a.6.6,0,0,1-.6.6H57.985a.6.6,0,0,1-.6-.6v-.406a1.19,1.19,0,0,1,.346-.838l2.562-2.586a3.572,3.572,0,0,1,2.545-1.062h.236A.6.6,0,0,1,63.674,224.786Zm3.917-6.593v17.123a1.193,1.193,0,0,0,1.193,1.193h5.223A.6.6,0,0,0,74.6,236a3.43,3.43,0,0,1,6.822.513,1.105,1.105,0,0,0,1.1-1.1V218.193A1.193,1.193,0,0,0,81.33,217H68.784A1.193,1.193,0,0,0,67.59,218.193Z" transform="translate(0)" fill="gray"/>
      <path id="a-6" data-name="a" d="M134.419,796.988a2.387,2.387,0,1,0,2.342,2.342A2.387,2.387,0,0,0,134.419,796.988Zm18.018,0a2.387,2.387,0,1,0,2.342,2.342A2.387,2.387,0,0,0,152.437,796.988Z" transform="translate(-74.4 -562.686)" fill="gray"/>
    </g>
  </g>
</svg>
