<svg xmlns="http://www.w3.org/2000/svg" width="54" height="54" viewBox="0 0 54 54">
  <g id="Active" transform="translate(-584 -236)">
    <circle id="a" cx="27" cy="27" r="27" transform="translate(584 236)" fill="#25c66f"/>
    <path id="a-2" data-name="a" d="M16.434,0A16.434,16.434,0,1,1,0,16.434,16.433,16.433,0,0,1,16.434,0Zm0,2.465A13.969,13.969,0,1,0,30.4,16.434,13.969,13.969,0,0,0,16.434,2.465ZM15.571,8.55a1.157,1.157,0,0,1,1.64.015l6.723,6.845a1.231,1.231,0,0,1,.237,1.895l-7.1,6.971a1.159,1.159,0,1,1-1.624-1.653l5.144-5.055H12.9a1.16,1.16,0,0,1,0-2.32h7.62l-4.968-5.058a1.157,1.157,0,0,1,.016-1.638Zm-7.839,6.7a1.16,1.16,0,1,1-1.16,1.16,1.16,1.16,0,0,1,1.16-1.16Z" transform="translate(594.566 247)" fill="#fff"/>
  </g>
</svg>
