<svg t="1650952997901" class="icon" viewBox="0 0 1024 1024" version="1.1" xmlns="http://www.w3.org/2000/svg" p-id="1815" width="32" height="32"><path d="M877.71428601 54.85714299a18.28571399 18.28571399 0 0 1 18.28571399 18.28571402v877.714286a18.28571399 18.28571399 0 0 1-18.28571399 18.285714H146.28571399a18.28571399 18.28571399 0 0 1-18.28571399-18.285714V73.14285701A18.28571399 18.28571399 0 0 1 146.28571399 54.85714299zM877.71428601 0H146.28571399a73.14285699 73.14285699 0 0 0-73.14285698 73.14285699v877.714286a73.14285699 73.14285699 0 0 0 73.14285701 73.14285701h731.42857199a73.14285699 73.14285699 0 0 0 73.142857-73.14285701V73.14285701a73.14285699 73.14285699 0 0 0-73.142857-73.14285701z" fill="#2A53A9" p-id="1816"></path><path d="M228.57142901 621.71428601h548.57142798a27.42857101 27.42857101 0 0 1 2e-8 54.857143h-548.571428a27.42857101 27.42857101 0 0 1-2e-8-54.857143z m0 164.57142798h548.57142798a27.42857101 27.42857101 0 0 1 2e-8 54.85714302h-548.571428a27.42857101 27.42857101 0 0 1-2e-8-54.85714302zM320 109.71428601a24.380952 24.380952 0 0 1 27.42857101 27.428571v365.71428598a27.526095 27.526095 0 1 1-54.85714202 0v-365.714286A24.380952 24.380952 0 0 1 320 109.71428601z" fill="#2A53A9" p-id="1817"></path><path d="M585.14285699 182.85714299v164.571428H329.14285701V182.85714299zM585.14285699 146.28571399H329.14285701A36.57142899 36.57142899 0 0 0 292.57142901 182.85714299v164.571428a36.57142899 36.57142899 0 0 0 36.571428 36.57142901H585.14285699a36.57142899 36.57142899 0 0 0 36.57142902-36.57142899V182.85714299A36.57142899 36.57142899 0 0 0 585.14285699 146.28571399z" fill="#2A53A9" p-id="1818"></path><path d="M694.85714299 219.42857099v182.857143h-73.14285701V219.42857099z m0-36.571428h-73.14285701A36.57142899 36.57142899 0 0 0 585.14285699 219.42857099v182.857143a36.57142899 36.57142899 0 0 0 36.57142902 36.571429h73.14285698a36.57142899 36.57142899 0 0 0 36.571428-36.571429V219.42857099a36.57142899 36.57142899 0 0 0-36.571428-36.571428z" fill="#2A53A9" p-id="1819"></path></svg>