<svg xmlns="http://www.w3.org/2000/svg" width="54" height="54" viewBox="0 0 54 54">
  <g id="Expiring_in_90_days_" data-name="Expiring(in 90 days)" transform="translate(-1103 -236)">
    <circle id="a" cx="27" cy="27" r="27" transform="translate(1103 236)" fill="#ea7c7c"/>
    <g id="a-2" data-name="a" transform="translate(1109.662 242.658)">
      <path id="a-3" data-name="a" d="M36.722,25.758a1.182,1.182,0,0,0-1.27.533C32.4,34.849,22.744,39.126,13.846,35.785S.249,22.95,3.3,14.393,16.008,1.558,24.9,4.9a17.33,17.33,0,0,1,8.9,7.219H30.116a1,1,0,0,0-1.016.936.926.926,0,0,0,1.016.936h6.1a1,1,0,0,0,1.016-.936V7.173a.926.926,0,0,0-1.016-.936,1,1,0,0,0-1.016.936v3.744a19.665,19.665,0,0,0-9.791-7.89,18.7,18.7,0,0,0-24.146,10.7c-3.432,9.628,1.778,20.322,11.692,23.932A18.7,18.7,0,0,0,37.1,26.959C37.487,26.56,37.23,26.027,36.722,25.758Zm0,0" transform="translate(0 0)" fill="#fff"/>
      <path id="a-4" data-name="a" d="M976.79,583.015a.707.707,0,1,0-.707-.707A.715.715,0,0,0,976.79,583.015Z" transform="translate(-940.47 -558.74)" fill="#fff"/>
    </g>
    <g id="a-5" data-name="a" transform="translate(-0.238 6.35)">
      <text id="_90" data-name="90" transform="translate(1119.238 257.65)" fill="#fff" font-size="17" font-family="Arial-BoldMT, Arial" font-weight="700"><tspan x="0" y="0">90</tspan></text>
      <text id="day" transform="translate(1119.238 266.65)" fill="#fff" font-size="9" font-family="Arial-BoldMT, Arial" font-weight="700"><tspan x="0" y="0">DAY</tspan></text>
    </g>
  </g>
</svg>
