<svg t="1650858025512" class="icon" viewBox="0 0 1024 1024" version="1.1" xmlns="http://www.w3.org/2000/svg" p-id="943" width="32" height="32"><path d="M877.625 455.75a365.625 365.625 0 1 0-453.09375 354.65625C409.90625 856.25 366.03125 849.5 329.1875 849.5a42.1875 42.1875 0 0 0 0 84.375h365.625a42.1875 42.1875 0 0 0 0-84.375c-36.5625 0-80.71875 6.75-95.34375-39.09375A365.625 365.625 0 0 0 877.625 455.75zM512 656.5625A200.8125 200.8125 0 1 1 712.53125 455.75 200.53125 200.53125 0 0 1 512 656.5625zM512 371.375a84.375 84.375 0 1 0 84.375 84.375 84.375 84.375 0 0 0-84.375-84.375z" fill="#5549E7" p-id="944"></path></svg>