<?xml version="1.0" standalone="no"?><!DOCTYPE svg PUBLIC "-//W3C//DTD SVG 1.1//EN" "http://www.w3.org/Graphics/SVG/1.1/DTD/svg11.dtd"><svg t="1682596689743" class="icon" viewBox="0 0 1024 1024" version="1.1" xmlns="http://www.w3.org/2000/svg" p-id="8541" xmlns:xlink="http://www.w3.org/1999/xlink" width="32" height="32"><path d="M810.666667 426.666667a42.666667 42.666667 0 0 0-42.666667 42.666666v144.213334l-63.146667-63.146667a119.04 119.04 0 0 0-167.68 0l-29.866666 30.293333-105.813334-106.24a119.04 119.04 0 0 0-167.68 0L170.666667 538.026667V298.666667a42.666667 42.666667 0 0 1 42.666666-42.666667h341.333334a42.666667 42.666667 0 0 0 0-85.333333H213.333333a128 128 0 0 0-128 128v521.386666A119.04 119.04 0 0 0 203.946667 938.666667h530.773333a122.88 122.88 0 0 0 34.133333-5.12 116.906667 116.906667 0 0 0 85.333334-113.066667V469.333333A42.666667 42.666667 0 0 0 810.666667 426.666667zM213.333333 853.333333a42.666667 42.666667 0 0 1-42.666666-42.666666v-152.32l123.306666-123.306667a33.28 33.28 0 0 1 46.933334 0L659.626667 853.333333z m554.666667-42.666666a42.666667 42.666667 0 0 1-7.68 23.04L567.466667 640l30.293333-29.866667a32.853333 32.853333 0 0 1 46.933333 0L768 734.293333z m128-640h-42.666667V128a42.666667 42.666667 0 0 0-85.333333 0v42.666667h-42.666667a42.666667 42.666667 0 0 0 0 85.333333h42.666667v42.666667a42.666667 42.666667 0 0 0 85.333333 0V256h42.666667a42.666667 42.666667 0 0 0 0-85.333333z" p-id="8542" fill="#198754"></path></svg>