<svg xmlns="http://www.w3.org/2000/svg" width="54" height="54" viewBox="0 0 54 54">
  <g id="Loaned_Out" data-name="Loaned Out" transform="translate(-851 -236)">
    <g id="a">
      <circle id="56" data-name="56" cx="27" cy="27" r="27" transform="translate(851 236)" fill="#8f9fc1"/>
      <g id="9979" data-name="9979" transform="translate(827.867 176.027)">
        <path id="7791" data-name="7791" d="M160.882,746.723a3.868,3.868,0,1,1,3.868-3.868A3.852,3.852,0,0,1,160.882,746.723Zm0-5.894a2.026,2.026,0,1,0,2.026,2.026A2,2,0,0,0,160.882,740.829Zm17.008,5.894a3.868,3.868,0,1,1,3.868-3.868A3.852,3.852,0,0,1,177.889,746.723Zm0-5.894a2.026,2.026,0,1,0,2.026,2.026A2,2,0,0,0,177.889,740.829Z" transform="translate(-118.459 -644.945)" fill="#fff"/>
        <path id="7792" data-name="7792" d="M56.483,347.266H45.431a.921.921,0,1,1,0-1.842H55.623v-15.9H54.15a.921.921,0,0,1,0-1.842h2.395a.944.944,0,0,1,.921.921v17.744A1,1,0,0,1,56.483,347.266Zm-17.008,0H35.054a.944.944,0,0,1-.921-.921V328.6a.944.944,0,0,1,.921-.921H37.94a.921.921,0,0,1,0,1.842H35.975v15.9h3.5a.944.944,0,0,1,.921.921A.9.9,0,0,1,39.475,347.266Z" transform="translate(0 -248.435)" fill="#fff"/>
        <path id="7793" data-name="7793" d="M641.794,485.469h-4.605a.921.921,0,0,1,0-1.842h3.684v-5.035l-4.3-5.649H631.6v11.666a.921.921,0,1,1-1.842,0V471.961a.944.944,0,0,1,.921-.921h6.324a.875.875,0,0,1,.737.368l4.728,6.263a.99.99,0,0,1,.184.553v6.263A.874.874,0,0,1,641.794,485.469Z" transform="translate(-574.198 -386.638)" fill="#fff"/>
        <path id="7794" data-name="7794" d="M119.836,87.718a8.872,8.872,0,1,1,8.9-8.842A8.909,8.909,0,0,1,119.836,87.718Zm0-15.9a7.1,7.1,0,0,0-7.061,7.061,7.061,7.061,0,1,0,7.061-7.061Z" transform="translate(-74.037 0)" fill="#fff"/>
        <path id="7795" data-name="7795" d="M232.353,234.612h-7.859a.921.921,0,0,1,0-1.842h5.71l-1.658-1.658a.912.912,0,1,1,1.289-1.289l3.131,3.193a.962.962,0,0,1,.184.982A.848.848,0,0,1,232.353,234.612Z" transform="translate(-182.625 -153.832)" fill="#fff"/>
      </g>
    </g>
  </g>
</svg>
