<svg xmlns="http://www.w3.org/2000/svg" width="54" height="54" viewBox="0 0 54 54">
  <g id="Out_of_Service" data-name="Out of Service" transform="translate(-338 -236)">
    <circle id="a" cx="27" cy="27" r="27" transform="translate(338 236)" fill="#e3af00"/>
    <g id="a-2" data-name="a" transform="translate(283.301 214.641)">
      <path id="7784" data-name="7784" d="M287.236,71.129h-9.471a2.311,2.311,0,0,1-2.309-2.309v-2.5a.989.989,0,1,1,1.979,0v2.5a.327.327,0,0,0,.33.33h9.465a.327.327,0,0,0,.33-.33v-2.5a.989.989,0,1,1,1.979,0v2.5A2.3,2.3,0,0,1,287.236,71.129Zm1.2,5.257H276.564a.989.989,0,1,1,0-1.979h11.872a.989.989,0,1,1,0,1.979Zm-7.255,5.277h-4.617a.989.989,0,1,1,0-1.979h4.617a.989.989,0,1,1,0,1.979Z" transform="translate(-201.772 -31.911)" fill="#fff"/>
      <path id="7785" data-name="7785" d="M79.759,63.682H71.785a4.821,4.821,0,0,1-4.815-4.815V37.173a4.821,4.821,0,0,1,4.815-4.815H89.692a4.821,4.821,0,0,1,4.815,4.815v9a.989.989,0,1,1-1.979,0v-9a2.84,2.84,0,0,0-2.836-2.836H71.785a2.84,2.84,0,0,0-2.836,2.836V58.867A2.84,2.84,0,0,0,71.785,61.7h7.968a.989.989,0,0,1,.007,1.979Z" fill="#fff"/>
      <path id="7786" data-name="7786" d="M489.809,529.263a7.915,7.915,0,1,1,7.915-7.915A7.921,7.921,0,0,1,489.809,529.263Zm0-13.851a5.936,5.936,0,1,0,5.936,5.936A5.945,5.945,0,0,0,489.809,515.412Z" transform="translate(-401.562 -465.582)" fill="#fff"/>
      <path id="7787" data-name="7787" d="M688.742,707.379v3.845" transform="translate(-601.748 -653.281)" fill="#fff"/>
      <path id="7788" data-name="7788" d="M659.012,682.483a.988.988,0,0,1-.989-.989v-3.845a.989.989,0,0,1,1.979,0v3.845A.988.988,0,0,1,659.012,682.483Z" transform="translate(-572.017 -623.551)" fill="#fff"/>
      <path id="7789" data-name="7789" d="M791.142,707.379v3.845" transform="translate(-700.85 -653.281)" fill="#fff"/>
      <path id="7790" data-name="7790" d="M761.412,682.483a.988.988,0,0,1-.989-.989v-3.845a.989.989,0,0,1,1.979,0v3.845A.988.988,0,0,1,761.412,682.483Z" transform="translate(-671.12 -623.551)" fill="#fff"/>
    </g>
  </g>
</svg>
