<svg t="1650945347578" class="icon" viewBox="0 0 1024 1024" version="1.1" xmlns="http://www.w3.org/2000/svg" p-id="4084" width="32" height="32"><path d="M512 512m-512 0a512 512 0 1 0 1024 0 512 512 0 1 0-1024 0Z" fill="#F2F2F2" p-id="4085"></path><path d="M607.085714 543.378286a176.128 176.128 0 1 0-163.84-1.060572 280.795429 280.795429 0 0 0-202.203428 270.518857 16.676571 16.676571 0 1 0 33.353143 1.206858 250.989714 250.989714 0 0 1 501.979428 0c0 16.822857 29.257143 14.262857 29.257143-1.206858a280.832 280.832 0 0 0-198.546286-269.458285z m-83.748571-12.836572c-3.401143 0-6.765714 0-10.166857 0.256a143.579429 143.579429 0 0 1 12.178285-286.646857 143.469714 143.469714 0 0 1 11.190858 286.72q-6.582857-0.329143-13.202286-0.329143z" fill="#2C56B4" p-id="4086"></path></svg>