<svg xmlns="http://www.w3.org/2000/svg" width="54" height="54" viewBox="0 0 54 54">
  <g id="vehicles_in_my_custody" data-name="vehicles in my custody" transform="translate(-108 -236)">
    <circle id="54" data-name="54" cx="27" cy="27" r="27" transform="translate(108 236)" fill="#6289de"/>
    <g id="car" transform="translate(-10051.058 -8104.455)">
      <g id="a" transform="translate(10168.359 8352.136)">
        <g id="a-2" data-name="a" transform="translate(0)">
          <path id="a-3" data-name="a" d="M-260.874,146.005c.095.807.095.8.772.777,1.45-.054,2.9-.106,4.349-.151.862-.027,1.054.16,1.061,1.036a19.649,19.649,0,0,1-.038,2,.917.917,0,0,1-.417.682,26.928,26.928,0,0,1-5.533,1.474c0-.679,0-1.293,0-1.906a9.362,9.362,0,0,0-.717-3.661c-.013-.03-.023-.061-.036-.091-.516-1.145-1.319-1.242-2.106-.263a3.8,3.8,0,0,0-.681,1.952c-.034.242-.121.372-.4.374-2.282.023-4.564.061-6.846.091a3.643,3.643,0,0,1-.385-.03c.271-1.207.581-2.4.8-3.605.175-.975.259-1.968.345-2.957a1.142,1.142,0,0,0-.916-1.319,6.574,6.574,0,0,0-1.73-.269q-3.714.028-7.428.156a6.546,6.546,0,0,0-1.383.35,4.093,4.093,0,0,1,1.577-1.748,1.052,1.052,0,0,0,.628-1.124c-.064-.662,0-1.336-.02-2-.013-.468.3-.423.593-.422s.608-.057.593.418c-.021.65-.005,1.3-.005,2.033.423-.161.8-.294,1.161-.45.064-.028.1-.15.125-.235q.419-1.576.827-3.155c.016-.061.053-.157.027-.181-.376-.35-.185-.728.037-1a2.956,2.956,0,0,1,1.058-.933c.7-.281,1.481-.36,2.208-.586a3.491,3.491,0,0,0,.88-.54.646.646,0,0,0,.192-.28c.68-1.628,2.075-2.179,3.663-2.476a43.715,43.715,0,0,1,7.2-.587,14.431,14.431,0,0,1,4.458.392c1.192.352,1.622.732,1.731,1.978.157,1.8.359,3.605.391,5.411.059,3.275.009,6.551,0,9.827,0,.53-.339.857-1.016.891-1.4.069-2.8.089-4.2.127C-260.318,146.011-260.578,146.005-260.874,146.005Zm-.226-13.3c-1.061-.053-2.032-.18-3-.137-3.774.168-7.544.406-11.317.575a1.113,1.113,0,0,0-1.1.765c-.064.149-.126.3-.183.452a9.969,9.969,0,0,0-.585,2.909c.286-.039.51-.087.735-.1,2.262-.091,4.523-.208,6.786-.253s4.5-.01,6.746-.025c.183,0,.488-.07.53-.183C-262.014,135.439-261.587,134.146-261.1,132.709Zm-6.837,15.426v0c.652,0,1.307.04,1.955-.017a1.527,1.527,0,0,0,.957-.375,1.666,1.666,0,0,0,.43-1.119c-.046-.438-.56-.345-.906-.328-1.057.051-2.119.081-3.168.21a5.419,5.419,0,0,0-1.646.521c-.222.106-.317.477-.469.727.248.126.491.264.747.371a.936.936,0,0,0,.34.012Zm7.6-14.432-.149-.063a2.51,2.51,0,0,0-.3.458,8.244,8.244,0,0,0-.515,1.521c-.162.956-.244,1.926-.324,2.893-.012.138.17.412.266.413a.917.917,0,0,0,.617-.218,1.013,1.013,0,0,0,.237-.623C-260.432,136.624-260.388,135.163-260.335,133.7Zm3.936,1.739c0,1.047-.019,2.077.024,3.1.005.122.336.282.536.319.076.014.291-.261.3-.413.035-.632.014-1.266.015-1.9C-255.522,135.807-255.587,135.72-256.4,135.442Zm-2.759-.185c.133-.989-.178-1.4-1.021-1.394v1.394Z" transform="translate(286.416 -127.366)" fill="#fff"/>
          <path id="a-4" data-name="a" d="M-132.92,131.618l2.2,2.092q3.664,3.483,7.322,6.972a.784.784,0,0,1,.253.485c.016,2.656.011,5.312.011,8.064l-9.786-.343Z" transform="translate(157.463 -130.786)" fill="#fff"/>
          <path id="a-5" data-name="a" d="M-296.74,234.359c6.952.216,13.777.735,20.582.317v3.757c-.751.056-1.425.149-2.1.15-2.686,0-5.373-.019-8.059-.04-.864-.007-1.727-.034-2.59-.07-.281-.012-.363.1-.461.356a9.984,9.984,0,0,1-.992,2.252c-.894,1.28-2.278,1.185-3.171-.1a6.234,6.234,0,0,1-.942-2.387c-.057-.28-.154-.417-.464-.435a10.7,10.7,0,0,1-1.4-.182c-.146-.028-.381-.18-.383-.28C-296.75,236.583-296.74,235.465-296.74,234.359Zm7.508,2.279v-.07c-.537,0-1.074.009-1.611,0-.339-.008-.478.144-.46.471a2.248,2.248,0,0,1,0,.391c-.053.432.146.571.562.572.912,0,1.824.036,2.736.068.807.029.814.03.826-.788,0-.065,0-.13,0-.2.019-.311-.131-.448-.436-.446C-288.156,236.641-288.694,236.638-289.232,236.638Zm3.865.1c-1.278-.009-1.12-.238-1.172,1.068-.013.321.115.486.454.484.473,0,.946.01,1.418.024.3.009.435-.124.458-.433.092-1.259,0-1.146-1.011-1.144Zm3.072.114v.005a3.421,3.421,0,0,0-.68.012.506.506,0,0,0-.335.274c-.263.877.007,1.225.914,1.227.211,0,.423-.007.634,0,.391.021.548-.139.545-.546-.006-.977.01-.977-.98-.977Zm-10.638.957c1.035.023,1.009.022,1.047-.744.022-.436-.152-.585-.551-.587a9.474,9.474,0,0,1-.97-.042c-.4-.043-.545.107-.555.513-.021.848-.04.848.787.86C-293.1,237.813-293.014,237.812-292.933,237.812Zm-2.964-.8c-.009.622.011.633.863.663.634.023.448-.46.495-.791.085-.606-.353-.539-.725-.546C-295.869,236.328-295.888,236.35-295.9,237.014Z" transform="translate(298.138 -213.421)" fill="#fff"/>
          <path id="a-6" data-name="a" d="M-303.865,241.163c1.062.227,2.12.5,3.188.669a44.4,44.4,0,0,0,5.05.631,65.446,65.446,0,0,0,7.034-.087,45.772,45.772,0,0,0,5.384-.848,30.01,30.01,0,0,0,7.433-2.569,28.454,28.454,0,0,0,7.34-5.03.188.188,0,0,1,.2-.058c-.215.257-.426.521-.647.769s-.47.518-.715.759a25.538,25.538,0,0,1-8.251,5.535,37.224,37.224,0,0,1-4.888,1.681,34.113,34.113,0,0,1-12.526.8,33.5,33.5,0,0,1-7.959-1.913c-.222-.085-.44-.192-.659-.288Z" transform="translate(303.879 -213.022)" fill="#fff"/>
          <path id="a-7" data-name="a" d="M-190.755,225.72c.184-.984.348-1.972.565-2.948a2.647,2.647,0,0,1,.43-.866.722.722,0,0,1,1.326.035,6.437,6.437,0,0,1,.852,2.771,13.2,13.2,0,0,1-.307,5.179,5.607,5.607,0,0,1-.582,1.333.7.7,0,0,1-1.238.049,4.608,4.608,0,0,1-.852-2.507c-.091-1-.021-2.014-.021-3.022Z" transform="translate(208.111 -203.067)" fill="#fff"/>
          <path id="a-8" data-name="a" d="M-144.883,131.649l1.988-.127v17.254h-1.152c.041-2.7.173-5.374.1-8.037-.078-2.681-.354-5.357-.57-8.033A4.7,4.7,0,0,0-144.883,131.649Z" transform="translate(169.483 -130.709)" fill="#fff"/>
          <path id="a-9" data-name="a" d="M-268.128,202.623c0,.863-.012,1.726.006,2.588.007.35-.1.509-.47.494-.488-.02-.977-.008-1.465,0-.269,0-.425-.072-.423-.385.008-1.791,0-3.582,0-5.372,0-.283.12-.417.412-.412.488.009.977.012,1.465,0,.363-.011.486.151.48.5C-268.138,200.9-268.128,201.76-268.128,202.623Z" transform="translate(276.07 -185.41)" fill="#fff"/>
          <path id="a-10" data-name="a" d="M-256.6,202.584c0-.863.01-1.726,0-2.589-.006-.355.126-.5.486-.487.471.019.944.014,1.416,0,.3-.007.459.118.459.427,0,1.791.006,3.583-.015,5.374a.5.5,0,0,1-.334.348c-.551.039-1.106.012-1.66.022-.341.006-.347-.219-.346-.459v-2.638Z" transform="translate(263.906 -185.389)" fill="#fff"/>
          <path id="a-11" data-name="a" d="M-242.531,202.582c0-.862.012-1.724-.007-2.586-.008-.358.112-.5.476-.488.438.02.878.016,1.317,0,.305-.008.455.112.454.425q0,2.684,0,5.367c0,.267-.129.379-.392.375-.488-.007-.976-.014-1.464,0-.309.01-.39-.136-.387-.415C-242.525,204.371-242.53,203.476-242.531,202.582Z" transform="translate(252.013 -185.389)" fill="#fff"/>
          <path id="a-12" data-name="a" d="M-279.357,202.613c0,.864-.013,1.728.006,2.591.008.367-.134.475-.487.481-1.359.023-1.359.033-1.359-1.314,0-1.434.011-2.868-.009-4.3-.006-.425.136-.572.564-.562,1.528.035,1.265-.19,1.286,1.3.009.6,0,1.206,0,1.809Z" transform="translate(285.643 -185.389)" fill="#fff"/>
          <path id="a-13" data-name="a" d="M-136.575,224.728c.143-.87.268-1.735.438-2.591.034-.175.233-.317.357-.474.124.156.313.295.361.471a9.638,9.638,0,0,1,0,5.2c-.05.176-.236.314-.359.469-.125-.154-.328-.293-.362-.466C-136.308,226.477-136.432,225.612-136.575,224.728Z" transform="translate(162.537 -203.209)" fill="#fff"/>
          <path id="a-14" data-name="a" d="M-115.02,226.355l-4.678.956-.18-1.666h4.857Z" transform="translate(146.973 -206.413)" fill="#fff"/>
          <path id="a-15" data-name="a" d="M-126.45,224.192c-.111.765-.206,1.536-.346,2.3-.029.158-.223.286-.34.427-.116-.144-.293-.271-.338-.434a8.687,8.687,0,0,1,0-4.616c.043-.163.224-.289.341-.432.119.142.316.269.345.427C-126.652,222.627-126.56,223.4-126.45,224.192Z" transform="translate(155.141 -203.027)" fill="#fff"/>
          <path id="a-16" data-name="a" d="M-295.272,215.7c.111-.084.217-.229.335-.24a7.875,7.875,0,0,1,.878.014c.334.005.713.1.806-.394a.913.913,0,0,0-.566-1.1c-.307-.091-.63-.125-.989-.193a3.879,3.879,0,0,1,1.4-2.233,12.357,12.357,0,0,0,.724,4.256h-2.509Z" transform="translate(296.956 -195.073)" fill="#fff"/>
          <path id="a-17" data-name="a" d="M-93.688,225.36a5.31,5.31,0,0,1-.024-3.086A3.724,3.724,0,0,1-93.688,225.36Z" transform="translate(126.103 -203.701)" fill="#fff"/>
          <path id="a-18" data-name="a" d="M-89.806,222.731v2.59h-.151v-2.584Z" transform="translate(122.908 -204.069)" fill="#fff"/>
        </g>
      </g>
    </g>
  </g>
</svg>
