<svg xmlns="http://www.w3.org/2000/svg" width="54" height="54" viewBox="0 0 54 54">
  <g id="vehicles_due_for_servicing_in_30_days_" data-name="vehicles due for servicing (in 30 days)" transform="translate(-1612 -236)">
    <circle id="a" cx="27" cy="27" r="27" transform="translate(1612 236)" fill="#a380e5"/>
    <g id="a-2" data-name="a" transform="translate(504.762 23.35)">
      <text id="_30" data-name="30" transform="translate(1119.238 254.65)" fill="#fff" font-size="13" font-family="Arial-BoldMT, Arial" font-weight="700"><tspan x="0" y="0">30</tspan></text>
      <text id="day" transform="translate(1134.238 253.65)" fill="#fff" font-size="7" font-family="Arial-BoldMT, Arial" font-weight="700"><tspan x="0" y="0">DAY</tspan></text>
    </g>
    <path id="a-3" data-name="a" d="M19.007,15.136a.435.435,0,1,1-.617.612L15.7,13.066a.435.435,0,0,1,.01-.617.451.451,0,0,1,.622,0ZM17.819,0a3.609,3.609,0,0,1,.845.088,3.811,3.811,0,0,1,.825.249.732.732,0,0,1,.379.96.758.758,0,0,1-.15.228c-.555.555-1.11,1.1-1.66,1.66l.093.332.083.337.342.093.332.088c.55-.555,1.1-1.1,1.66-1.66a.736.736,0,0,1,1.037,0,.748.748,0,0,1,.176.311,3.742,3.742,0,0,1,.223.737v.01h.005a4.433,4.433,0,0,1,.083.851,4.277,4.277,0,0,1-4.274,4.269c-.083,0-.166-.005-.249-.005l-.809.8,4.451,4.45.036.041a3.006,3.006,0,0,1-.036,4.217l-.01.01a3,3,0,0,1-2.116.872,2.965,2.965,0,0,1-2.127-.882L12.5,13.6,7.948,18.16a2.657,2.657,0,0,1-3.035.628,2.987,2.987,0,0,1-.96-.648H3.949a3.066,3.066,0,0,1-.643-.954,2.649,2.649,0,0,1,.633-3.034v-.01L9.011,9.067,7.154,7.21,5.5,6.717a.722.722,0,0,1-.467-.41L3.456,2.6a.728.728,0,0,1,.13-.851l.664-.659L4.9.436A.721.721,0,0,1,5.7.28l3.755,1.6a.719.719,0,0,1,.415.467L10.36,4l1.857,1.857L13.55,4.533c-.005-.093-.01-.182-.01-.249h.005A4.255,4.255,0,0,1,14.8,1.255V1.25A4.292,4.292,0,0,1,17.819,0Zm-2.1,10.384-2.189,2.189,4.45,4.45a1.547,1.547,0,0,0,2.189.005l.01-.005a1.567,1.567,0,0,0,.021-2.158l-.031-.031-4.451-4.451ZM10.038,8.04,11.185,6.9,9.2,4.907A.737.737,0,0,1,9,4.544L8.57,3.086,5.583,1.826l-.306.3-.306.311L6.242,5.426l1.5.441a.647.647,0,0,1,.311.192Zm7.677-6.577A2.838,2.838,0,0,0,15,4.285h.01v.2l.021.171a.723.723,0,0,1-.2.659L4.971,15.172H4.966a1.289,1.289,0,0,0-.322,1.447,1.79,1.79,0,0,0,.337.487,1.656,1.656,0,0,0,.5.337,1.261,1.261,0,0,0,1.437-.316l5.052-5.052.021-.021L15.2,8.834l.021-.026,1.546-1.535h.005a.692.692,0,0,1,.617-.213,1.491,1.491,0,0,0,.218.021c.052.005.124.01.207.01a2.846,2.846,0,0,0,1.992-.814v-.01a2.787,2.787,0,0,0,.814-1.888c-.316.322-.633.633-.949.96a.754.754,0,0,1-.737.223l-.737-.2-.747-.2a.712.712,0,0,1-.519-.519l-.2-.747-.2-.747a.712.712,0,0,1,.192-.69c.326-.332.653-.659.985-.991Z" transform="translate(1625.924 246.982)" fill="#fff"/>
  </g>
</svg>
