<svg xmlns="http://www.w3.org/2000/svg" width="54" height="54" viewBox="0 0 54 54">
  <g id="vehicles_due_for_servicing" data-name="vehicles due for servicing" transform="translate(-1352 -236)">
    <circle id="a" cx="27" cy="27" r="27" transform="translate(1352 236)" fill="#b4b42c"/>
    <g id="a-2" data-name="a" transform="translate(1194.271 89.047)">
      <path id="a-3" data-name="a" d="M199.778,170.411a4.694,4.694,0,0,0-4.722-4.722H195l-2.152-7.711a.718.718,0,0,0-.717-.538H175.092a.837.837,0,0,0-.717.538l-2.152,7.711a4.7,4.7,0,0,0-4.543,4.722v6.455a.691.691,0,0,0,.717.717h.6V179.5c0,1.435,1.674,2.57,3.766,2.57,2.152,0,3.766-1.136,3.766-2.57v-1.913h14.047V179.5c0,1.435,1.674,2.57,3.766,2.57,2.152,0,3.766-1.136,3.766-2.57v-1.913h.837a.691.691,0,0,0,.717-.717V170.59C199.778,170.53,199.778,170.47,199.778,170.411Zm-5.38-3.168h.418a3.6,3.6,0,0,1,3.586,3.407,3.29,3.29,0,0,1-6.575-.179,3.17,3.17,0,0,1,2.57-3.228Zm-18.649,3.168a3.29,3.29,0,0,1-6.575.179,3.6,3.6,0,0,1,3.586-3.407h.418a3.39,3.39,0,0,1,2.57,3.228Zm-.06-11.536h15.959l1.913,6.814H173.837Zm-.478,20.622c0,.538-1.016,1.136-2.391,1.136s-2.391-.6-2.391-1.136v-1.913h4.722V179.5Zm21.638,0c0,.538-1.016,1.136-2.391,1.136s-2.391-.6-2.391-1.136v-1.913h4.722V179.5Zm-27.675-3.287v-2.391a4.735,4.735,0,0,0,8.01-3.407,4.726,4.726,0,0,0-1.255-3.228h15.72a4.692,4.692,0,0,0,3.407,7.95,4.928,4.928,0,0,0,3.287-1.315v2.391Z" fill="#fff"/>
      <path id="a-4" data-name="a" d="M382.039,487.68h-9.683a.717.717,0,0,0,0,1.435h9.683a.717.717,0,1,0,0-1.435Zm6.934,13.329-11.3-3.228a3.667,3.667,0,0,0-2.391-2.212,3.627,3.627,0,0,0-3.527.9.745.745,0,0,0-.179.717.848.848,0,0,0,.478.538l.359.12a.768.768,0,0,1,.538.956.929.929,0,0,1-.359.478.707.707,0,0,1-.6.06l-.359-.12a.785.785,0,0,0-.717.179.745.745,0,0,0-.179.717,3.685,3.685,0,0,0,2.57,2.63,3.834,3.834,0,0,0,3.228-.6l11.3,3.228a2.034,2.034,0,0,0,.6.06,2.436,2.436,0,0,0,1.076-.3,2.323,2.323,0,0,0,1.076-1.315A2.386,2.386,0,0,0,388.973,501.009Zm.179,2.331a.929.929,0,0,1-.359.478.707.707,0,0,1-.6.06l-11.656-3.288h-.179a.679.679,0,0,0-.478.179,2.206,2.206,0,0,1-2.152.538,2.539,2.539,0,0,1-1.016-.6,2.5,2.5,0,0,0,.6-.239,2.323,2.323,0,0,0,1.076-1.315,2.074,2.074,0,0,0-.6-2.152,2.034,2.034,0,0,1,1.2,0,2.232,2.232,0,0,1,1.554,1.614.848.848,0,0,0,.478.538l11.656,3.287A.737.737,0,0,1,389.152,503.34Z" transform="translate(-193.559 -314.819)" fill="#fff"/>
    </g>
  </g>
</svg>
