<svg xmlns="http://www.w3.org/2000/svg" width="27.027" height="14.329" viewBox="0 0 27.027 14.329">
  <g id="lvjiantou" transform="translate(-6352.85 -5232.1)">
    <path id="a" d="M408.464,321.441a1.486,1.486,0,0,0,2,0l6.2-5.833a1.282,1.282,0,0,0,0-1.887l-6.2-5.833a1.486,1.486,0,0,0-2,0,1.282,1.282,0,0,0,0,1.887l5.193,4.889-5.193,4.889A1.282,1.282,0,0,0,408.464,321.441Z" transform="translate(5944.8 4924.6)" fill="orange"/>
    <path id="a-2" data-name="a" d="M408.464,321.441a1.486,1.486,0,0,0,2,0l6.2-5.833a1.282,1.282,0,0,0,0-1.887l-6.2-5.833a1.486,1.486,0,0,0-2,0,1.282,1.282,0,0,0,0,1.887l5.193,4.889-5.193,4.889A1.282,1.282,0,0,0,408.464,321.441Z" transform="translate(5953.8 4924.6)" fill="orange" opacity="0.622"/>
    <path id="a-3" data-name="a" d="M408.464,321.441a1.486,1.486,0,0,0,2,0l6.2-5.833a1.282,1.282,0,0,0,0-1.887l-6.2-5.833a1.486,1.486,0,0,0-2,0,1.282,1.282,0,0,0,0,1.887l5.193,4.889-5.193,4.889A1.282,1.282,0,0,0,408.464,321.441Z" transform="translate(5962.8 4924.6)" fill="orange" opacity="0.332"/>
  </g>
</svg>
