<svg xmlns="http://www.w3.org/2000/svg" xmlns:xlink="http://www.w3.org/1999/xlink" width="1920" height="1080" viewBox="0 0 1920 1080">
  <defs>
    <clipPath id="clip-path">
      <rect id="6755" data-name="6755" width="1920" height="1080" fill="#fff" stroke="#707070" stroke-width="1"/>
    </clipPath>
    <linearGradient id="linear-gradient" x1="0.044" y1="0.074" x2="0.907" y2="0.873" gradientUnits="objectBoundingBox">
      <stop offset="0" stop-color="#44b8a3"/>
      <stop offset="1" stop-color="#388db6"/>
    </linearGradient>
    <linearGradient id="linear-gradient-2" x1="0.369" y1="0.331" x2="0.924" y2="0.771" xlink:href="#linear-gradient"/>
    <linearGradient id="linear-gradient-3" x1="-0.177" y1="-0.195" x2="0.787" y2="0.824" gradientUnits="objectBoundingBox">
      <stop offset="0" stop-color="#44b8a3"/>
      <stop offset="0.515" stop-color="#3fa7a9"/>
      <stop offset="1" stop-color="#388db6"/>
    </linearGradient>
    <linearGradient id="linear-gradient-4" x1="1.012" y1="-0.294" x2="0.914" y2="0.721" xlink:href="#linear-gradient"/>
  </defs>
  <g id="bg" clip-path="url(#clip-path)">
    <rect id="bg-2" data-name="bg" width="1920" height="1080" fill="url(#linear-gradient)"/>
    <path id="8204" data-name="8204" d="M10665.093,23891.77s458.966,839.479,1282.754,945.395,748.293-37.227,748.293-37.227V23666.248H10643Z" transform="translate(-10680 -23706)" fill="url(#linear-gradient-2)"/>
    <path id="8201" data-name="8201" d="M10721.97,23556.078s493.562,773.025,1109.144,776.045,983.786-745.42,983.786-745.42Z" transform="translate(-10815.331 -23633.133)" fill="url(#linear-gradient-3)"/>
    <path id="8202" data-name="8202" d="M10643,24464.5s798.8,392.281,1246,70.609,509.963-945.393,486.426-1008.158S10643,23568.363,10643,23568.363Z" transform="translate(-10680 -23706)" opacity="0.32" fill="url(#linear-gradient-4)"/>
    <path id="6594" data-name="6594" d="M718.644,536h0Z" transform="translate(-461.516 328.608)" fill="#32374a" opacity="0.183"/>
  </g>
</svg>
