<svg xmlns="http://www.w3.org/2000/svg" width="37.95" height="37.949" viewBox="0 0 37.95 37.949">
  <g id="Deployed" transform="translate(-63.94 -63.94)">
    <path id="a" d="M96.468,63.94H69.362a5.422,5.422,0,0,0-5.422,5.422V96.468a5.422,5.422,0,0,0,5.422,5.422H96.468a5.422,5.422,0,0,0,5.422-5.422V69.362A5.422,5.422,0,0,0,96.468,63.94Zm2.714,32.535a2.7,2.7,0,0,1-2.71,2.706h-27.1a2.713,2.713,0,0,1-2.72-2.706V69.365a2.721,2.721,0,0,1,2.72-2.716h27.1a2.713,2.713,0,0,1,2.71,2.716Z" transform="translate(0 0)" fill="#e0bd03"/>
    <path id="a-2" data-name="a" d="M240.429,290.734H229.585a1.354,1.354,0,0,0,0,2.708h10.844a1.354,1.354,0,0,0,0-2.708Zm0,10.849H229.585a1.354,1.354,0,0,0,0,2.708h10.844a1.354,1.354,0,0,0,0-2.708ZM221.452,298.2a4.744,4.744,0,1,0,4.744,4.744,4.744,4.744,0,0,0-4.744-4.744Zm1.439,6.184a2.035,2.035,0,1,1,.6-1.439,2.035,2.035,0,0,1-.6,1.439Zm1.669-15.952-4.465,4.464-1.753-1.754a1.354,1.354,0,0,0-1.915,1.915l2.711,2.711a1.354,1.354,0,0,0,1.915,0l5.422-5.422a1.354,1.354,0,1,0-1.915-1.915Z" transform="translate(-145.649 -214.598)" fill="#e0bd03"/>
  </g>
</svg>
