<svg xmlns="http://www.w3.org/2000/svg" width="35.233" height="40.267" viewBox="0 0 35.233 40.267">
  <g id="Loan_Out" data-name="Loan Out" transform="translate(-4825 14409.501)">
    <g id="a" transform="translate(3925 -15204)">
      <g id="Loan_Out-2" data-name="Loan Out" transform="translate(806.133 760.365)">
        <path id="a-2" data-name="a" d="M125.146,74.4H97.821a3.99,3.99,0,0,1-3.955-3.955V38.088a3.99,3.99,0,0,1,3.955-3.955h27.324a3.99,3.99,0,0,1,3.955,3.955V70.446A3.99,3.99,0,0,1,125.146,74.4ZM97.821,36.29a1.78,1.78,0,0,0-1.8,1.8V70.446a1.78,1.78,0,0,0,1.8,1.8h27.324a1.78,1.78,0,0,0,1.8-1.8V38.088a1.78,1.78,0,0,0-1.8-1.8Z" fill="#2203ff"/>
        <path id="a-3" data-name="a" d="M682.856,684.37a.923.923,0,0,1-.719-.288,1.043,1.043,0,0,1,0-1.51l2.732-2.876-2.732-2.876a1.068,1.068,0,0,1,1.51-1.51l3.451,3.6a1.043,1.043,0,0,1,0,1.51l-3.451,3.6A1,1,0,0,1,682.856,684.37Z" transform="translate(-563.175 -613.853)" fill="#2203ff"/>
        <path id="a-4" data-name="a" d="M572.692,763.331h-8.413a1.079,1.079,0,0,1,0-2.157h8.413a1.079,1.079,0,1,1,0,2.157Z" transform="translate(-449.559 -696.408)" fill="#2203ff"/>
      </g>
      <path id="a-5" data-name="a" d="M21.311,92.6a2.4,2.4,0,0,1-4.607.233H7.348A2.4,2.4,0,0,1,2.741,92.6,3.027,3.027,0,0,1,.927,89.563l.229-3.121a3.44,3.44,0,0,1,2-2.86l1.009-4.865A4.178,4.178,0,0,1,8.05,75.492H16a4.176,4.176,0,0,1,3.886,3.226L20.9,83.582a3.442,3.442,0,0,1,2,2.86l.229,3.121A3.026,3.026,0,0,1,21.311,92.6Zm.23-6.056a2.078,2.078,0,0,0-1.451-1.789.693.693,0,0,1-.481-.587c-.005-.04-.008-.078-.01-.116a.47.47,0,0,0-.006-.062L18.56,79.008A2.789,2.789,0,0,0,16,76.884H8.05a2.788,2.788,0,0,0-2.558,2.124L4.457,83.994a.4.4,0,0,0-.006.06c0,.04-.006.08-.01.119a.693.693,0,0,1-.48.585A2.075,2.075,0,0,0,2.51,86.547l-.229,3.121A1.6,1.6,0,0,0,3.5,91.393a.694.694,0,0,1,.524.645,1.054,1.054,0,0,0,2.106.041.686.686,0,0,1,.676-.634H17.245a.685.685,0,0,1,.676.634,1.054,1.054,0,0,0,2.106-.041.694.694,0,0,1,.525-.645,1.6,1.6,0,0,0,1.217-1.725l-.228-3.121ZM19.16,89.31a1.508,1.508,0,0,1-2.17,0,1.6,1.6,0,0,1,0-2.225,1.508,1.508,0,0,1,2.17,0,1.6,1.6,0,0,1,0,2.225Zm-1.3-5.33a.757.757,0,0,1-.6.26H6.794a.766.766,0,0,1-.61-.27.8.8,0,0,1-.156-.646c0-.017.006-.034.01-.05l.822-3.661a1.325,1.325,0,0,1,1.235-1.06h7.861a1.325,1.325,0,0,1,1.234,1.06l.822,3.662c0,.017.007.033.01.05a.811.811,0,0,1-.164.655Zm-1.985-4.035H8.18l-.652,2.9h9l-.651-2.9ZM7.062,89.31a1.507,1.507,0,0,1-2.17,0,1.6,1.6,0,0,1,0-2.225,1.507,1.507,0,0,1,2.17,0,1.6,1.6,0,0,1,0,2.225Z" transform="translate(905.591 726.298)" fill="#2203ff"/>
    </g>
  </g>
</svg>
