<svg xmlns="http://www.w3.org/2000/svg" xmlns:xlink="http://www.w3.org/1999/xlink" fill="none" version="1.1" width="16.3232421875" height="16.3232421875" viewBox="0 0 16.3232421875 16.3232421875"><g><path d="M8.16162,16.3232C3.65437,16.3232,0,12.6689,0,8.16162C0,3.65437,3.65437,0,8.16162,0C12.6689,0,16.3232,3.65437,16.3232,8.16162C16.3232,12.6689,12.6689,16.3232,8.16162,16.3232C8.16162,16.3232,8.16162,16.3232,8.16162,16.3232ZM8.16162,14.963C11.918,14.963,14.963,11.918,14.963,8.16162C14.963,4.40523,11.918,1.36027,8.16162,1.36027C4.40523,1.36027,1.36027,4.40523,1.36027,8.16162C1.36027,11.918,4.40523,14.963,8.16162,14.963C8.16162,14.963,8.16162,14.963,8.16162,14.963ZM7.48149,7.48149C7.48149,7.10586,7.78599,6.80135,8.16162,6.80135C8.53725,6.80135,8.84176,7.10586,8.84176,7.48149C8.84176,7.48149,8.84176,12.2424,8.84176,12.2424C8.84176,12.6181,8.53725,12.9226,8.16162,12.9226C7.78599,12.9226,7.48149,12.6181,7.48149,12.2424C7.48149,12.2424,7.48149,7.48149,7.48149,7.48149C7.48149,7.48149,7.48149,7.48149,7.48149,7.48149ZM8.09361,5.30505C7.56773,5.30505,7.14142,4.87874,7.14142,4.35286C7.14142,3.82698,7.56773,3.40068,8.09361,3.40068C8.61949,3.40068,9.0458,3.82698,9.0458,4.35286C9.0458,4.87874,8.61949,5.30505,8.09361,5.30505C8.09361,5.30505,8.09361,5.30505,8.09361,5.30505Z" fill="#FA1155" fill-opacity="1"/></g></svg>