<svg xmlns="http://www.w3.org/2000/svg" width="38.351" height="34.592" viewBox="0 0 38.351 34.592">
  <path id="On_Leave" data-name="On Leave" d="M34.953,0H3.616A3.707,3.707,0,0,0,0,3.616v22.9a3.707,3.707,0,0,0,3.616,3.616H9.883a1.389,1.389,0,0,0,1.446-1.446,1.555,1.555,0,0,0-1.446-1.446H3.616a.77.77,0,0,1-.723-.723V3.616a.77.77,0,0,1,.723-.723h31.1a.77.77,0,0,1,.723.723v22.9a.77.77,0,0,1-.723.723H28.445A1.389,1.389,0,0,0,27,28.686a1.555,1.555,0,0,0,1.446,1.446h6.267a3.707,3.707,0,0,0,3.616-3.616V3.616A3.354,3.354,0,0,0,34.953,0ZM24.347,23.624a1.808,1.808,0,0,0-2.17,0l-3.134,3.134-2.893-3.134a1.8,1.8,0,0,0-2.17,0,1.808,1.808,0,0,0,0,2.17l2.893,3.134L13.74,32.061a1.808,1.808,0,0,0,0,2.17,1.808,1.808,0,0,0,2.17,0L19.043,31.1l3.134,3.134a1.808,1.808,0,0,0,2.17,0,1.808,1.808,0,0,0,0-2.17l-3.134-3.134,3.134-3.134a1.8,1.8,0,0,0,0-2.17Z" fill="#393638"/>
</svg>
