<svg xmlns="http://www.w3.org/2000/svg" width="38.98" height="39.745" viewBox="0 0 38.98 39.745">
  <path id="Out_Of_Service" data-name="Out Of Service" d="M48.956,29.751l-2.344,2.344L43.1,28.58l-3.513,3.515-2.344-2.344,3.515-3.513-3.515-3.513,2.344-2.344L43.1,23.9l3.513-3.515,2.344,2.344-3.515,3.513ZM42.727,16.335A14.842,14.842,0,0,0,24.754,5.117a6.54,6.54,0,0,1,.126,1.246,6.625,6.625,0,0,1-6.625,6.625,6.542,6.542,0,0,1-3-.752,14.834,14.834,0,0,0,0,14.754,6.542,6.542,0,0,1,3-.752,6.625,6.625,0,0,1,6.625,6.625,6.541,6.541,0,0,1-.126,1.242A14.741,14.741,0,0,0,35.52,32.588a9.877,9.877,0,0,0,2.68,2.244,18.074,18.074,0,0,1-14.92,2.309,6.607,6.607,0,0,1-10.544-7.925,18.1,18.1,0,0,1,0-19.213A6.605,6.605,0,0,1,23.28,2.077a18.147,18.147,0,0,1,22.9,14.753A9.837,9.837,0,0,0,43.1,16.3c-.128,0-.247.033-.373.038ZM18.255,36.176a3.313,3.313,0,1,0-3.313-3.313A3.313,3.313,0,0,0,18.255,36.176Zm0-33.126a3.313,3.313,0,1,0,3.313,3.313A3.313,3.313,0,0,0,18.255,3.05Z" transform="translate(-9.976 0.273)" fill="#3a3738"/>
</svg>
