<svg xmlns="http://www.w3.org/2000/svg" width="37.089" height="40.161" viewBox="0 0 37.089 40.161">
  <g id="Permit_Invalid" data-name="Permit Invalid" transform="translate(-63.76 -26.608)">
    <path id="a" d="M246.368,215.757a1.357,1.357,0,0,1-1.356,1.357h-18a1.357,1.357,0,0,1,0-2.714h18A1.357,1.357,0,0,1,246.368,215.757Zm8.709,28.159-5.507-5.506,5.417-5.417a1.327,1.327,0,1,0-1.872-1.873l-5.417,5.417-5.417-5.417a1.327,1.327,0,1,0-1.872,1.872l5.417,5.417-5.507,5.508a1.327,1.327,0,1,0,1.872,1.872l5.507-5.507,5.507,5.506a1.327,1.327,0,1,0,1.872-1.872Zm-15.99-19.09a1.291,1.291,0,0,1-1.29,1.291H226.875a1.291,1.291,0,0,1,0-2.581H237.8a1.291,1.291,0,0,1,1.29,1.291Zm-6.95,8.572a1.39,1.39,0,0,1-1.39,1.391H227.04a1.39,1.39,0,1,1,0-2.781h3.707A1.39,1.39,0,0,1,232.137,233.4Z" transform="translate(-155.129 -180.023)" fill="#ef0000"/>
    <path id="a-2" data-name="a" d="M78.464,64.122H68.111a1.715,1.715,0,0,1-1.7-1.726V30.981a1.715,1.715,0,0,1,1.7-1.726H96.5a1.714,1.714,0,0,1,1.7,1.726v8.956a1.4,1.4,0,0,0,1.381,1.456c1.39,0,1.267-1.456,1.267-1.456V30.981A4.367,4.367,0,0,0,96.5,26.608H68.111a4.367,4.367,0,0,0-4.351,4.373V62.4a4.367,4.367,0,0,0,4.351,4.373H78.464a1.306,1.306,0,0,0,1.324-1.283,1.406,1.406,0,0,0-1.324-1.364Z" fill="#ef0000"/>
  </g>
</svg>
