<svg xmlns="http://www.w3.org/2000/svg" width="37.7" height="39.414" viewBox="0 0 37.7 39.414">
  <g id="task1" transform="translate(-160 -128)">
    <path id="a" d="M163.427,164l-.015-30.86h5.156v1.7a3.436,3.436,0,0,0,3.42,3.444h13.723a3.436,3.436,0,0,0,3.42-3.444v-1.7l5.141-.014.014,30.86ZM185.7,131.444l.007,3.41L172,134.837v-3.393l-.007-.017Zm8.56-1.731h-5.612A3.4,3.4,0,0,0,185.712,128H171.989a3.4,3.4,0,0,0-2.941,1.714h-5.636A3.415,3.415,0,0,0,160,133.127V164a3.418,3.418,0,0,0,3.414,3.414h30.873A3.419,3.419,0,0,0,197.7,164V133.127A3.427,3.427,0,0,0,194.265,129.714Z" transform="translate(0 0)" fill="#399062"/>
    <path id="a-2" data-name="a" d="M363.787,419.241l-8.126,8.884-3.326-3.727a1.714,1.714,0,1,0-2.557,2.283l4.589,5.141a1.714,1.714,0,0,0,1.268.572h.01a1.718,1.718,0,0,0,1.265-.557l9.406-10.282a1.714,1.714,0,1,0-2.529-2.313" transform="translate(-179.203 -275.117)" fill="#399062"/>
  </g>
</svg>
