<svg xmlns="http://www.w3.org/2000/svg" width="34.66" height="33.445" viewBox="0 0 34.66 33.445">
  <path id="task" d="M58.837,50.954V35.562a3.578,3.578,0,0,0-3.579-3.579H33.787a3.578,3.578,0,0,0-3.579,3.579V59.419a5.965,5.965,0,0,0,5.637,5.955,1.356,1.356,0,0,0,.392.055H57.666c4.793,0,7.283-2.991,7.2-8.363l0-.146V54.533a3.579,3.579,0,0,0-3.579-3.579H58.837ZM36.949,63h-.776a3.578,3.578,0,0,1-3.579-3.579V35.562a1.192,1.192,0,0,1,1.194-1.193h21.47a1.193,1.193,0,0,1,1.192,1.193V50.954H44.1a3.579,3.579,0,0,0-3.578,3.579v2.386c0,.1,0,.2.013.3-.065,3.887-1.5,5.5-3.586,5.778Zm5.971-5.811-.006-.14a1.22,1.22,0,0,1-.006-.129V54.533A1.193,1.193,0,0,1,44.1,53.339H61.288a1.193,1.193,0,0,1,1.193,1.193v2.386l0,.116c.064,4.189-1.451,6.008-4.813,6.008H41.287A9.866,9.866,0,0,0,42.92,57.187Zm7.567-15.66a1.193,1.193,0,1,0,0-2.387H37.424a1.193,1.193,0,1,0,0,2.386H50.487Zm0,5.964a1.193,1.193,0,1,0,0-2.386H44.405a1.193,1.193,0,0,0,0,2.386Z" transform="translate(-30.208 -31.983)" fill="#399062"/>
</svg>
