<svg xmlns="http://www.w3.org/2000/svg" xmlns:xlink="http://www.w3.org/1999/xlink" width="57.483" height="60.962" viewBox="0 0 57.483 60.962">
  <defs>
    <linearGradient id="linear-gradient" y1="0.5" x2="1" y2="0.5" gradientUnits="objectBoundingBox">
      <stop offset="0" stop-color="#feef9f"/>
      <stop offset="1" stop-color="#edb506"/>
    </linearGradient>
  </defs>
  <g id="Most_Hrs" data-name="Most Hrs" transform="translate(-247.049 -431.937)">
    <g id="a" transform="translate(248 434)">
      <g id="a-2" data-name="a" transform="translate(0 0)">
        <g id="a-3" data-name="a">
          <path id="a-4" data-name="a" d="M222.135,602.35,233.361,612.7l-13.475,12.427-2.81-7.76-8.416-2.586Zm28.629,0,13.475,12.423-8.417,2.586-2.81,7.76L239.536,612.7Z" transform="translate(-208.66 -566.224)" fill="#d19a0e"/>
          <path id="a-5" data-name="a" d="M249.847,212.035l20.564,10.944a5.634,5.634,0,0,1,3.092,4.932V249.8a5.627,5.627,0,0,1-3.087,4.93l-20.569,10.948a6.636,6.636,0,0,1-6.175,0l-20.564-10.945a5.626,5.626,0,0,1-3.088-4.93V227.914a5.63,5.63,0,0,1,3.088-4.931l20.564-10.947A6.631,6.631,0,0,1,249.847,212.035Z" transform="translate(-218.971 -211.273)" stroke="#fff0cc" stroke-miterlimit="10" stroke-width="4" fill="url(#linear-gradient)"/>
          <path id="a-6" data-name="a" d="M248.3,214.5a3.313,3.313,0,0,0-3.088,0l-20.564,10.948a2.819,2.819,0,0,0-1.544,2.465v21.893a2.819,2.819,0,0,0,1.544,2.465l20.564,10.945a3.314,3.314,0,0,0,3.088,0l20.564-10.945a2.82,2.82,0,0,0,1.544-2.465V227.914a2.82,2.82,0,0,0-1.544-2.465Zm1.544-2.465,20.564,10.944a5.634,5.634,0,0,1,3.092,4.932V249.8a5.627,5.627,0,0,1-3.087,4.93l-20.569,10.948a6.636,6.636,0,0,1-6.175,0l-20.564-10.945a5.626,5.626,0,0,1-3.088-4.93V227.914a5.63,5.63,0,0,1,3.088-4.931l20.564-10.947A6.631,6.631,0,0,1,249.847,212.035Z" transform="translate(-218.971 -211.273)" fill="#e3a815"/>
        </g>
      </g>
    </g>
    <path id="a-7" data-name="a" d="M96.777,94.108V73.239a4.174,4.174,0,0,0-4.172-4.169H90.519V67.414a.437.437,0,0,0-.442-.43h-1.2a.433.433,0,0,0-.442.43V69.07h-14.6V67.414a.437.437,0,0,0-.442-.43h-1.2a.433.433,0,0,0-.442.43V69.07H69.655a4.168,4.168,0,0,0-4.172,4.169V94.108a4.174,4.174,0,0,0,4.172,4.169h22.95A4.168,4.168,0,0,0,96.777,94.108ZM67.57,73.239a2.082,2.082,0,0,1,2.085-2.083h2.087v1.656a.437.437,0,0,0,.442.43h1.2a.433.433,0,0,0,.442-.43V71.156h14.6v1.656a.437.437,0,0,0,.442.43h1.2a.433.433,0,0,0,.442-.43V71.156h2.087a2.087,2.087,0,0,1,2.086,2.083v2.09H67.57ZM92.606,96.191H69.655a2.087,2.087,0,0,1-2.085-2.083V77.415H94.691V94.108A2.082,2.082,0,0,1,92.606,96.191Z" transform="translate(194.395 377.797)" fill="#8d6013"/>
    <path id="a-8" data-name="a" d="M285.864,459.561a3.845,3.845,0,0,0,.208,1.226,2.615,2.615,0,0,0,.57.944,2.5,2.5,0,0,0,.931.607,3.933,3.933,0,0,0,2.47.031,3.063,3.063,0,0,0,.968-.521,2.492,2.492,0,0,0,.662-.821,2.616,2.616,0,0,0-.165-2.513,1.772,1.772,0,0,0-1.146-.729v-.025a1.682,1.682,0,0,0,.919-.7,2.14,2.14,0,0,0,.294-1.134,2.062,2.062,0,0,0-.852-1.716,2.886,2.886,0,0,0-.87-.429,3.376,3.376,0,0,0-.987-.147,2.929,2.929,0,0,0-1.164.221,2.531,2.531,0,0,0-.876.613,2.914,2.914,0,0,0-.57.925,3.537,3.537,0,0,0-.233,1.158h1.4a2.117,2.117,0,0,1,.074-.643,1.784,1.784,0,0,1,.264-.564,1.265,1.265,0,0,1,1.085-.545,1.4,1.4,0,0,1,.962.331,1.121,1.121,0,0,1,.374.883,1.242,1.242,0,0,1-.165.662,1.2,1.2,0,0,1-.435.423,1.906,1.906,0,0,1-.613.214,3.225,3.225,0,0,1-.686.049V458.4a6.746,6.746,0,0,1,.815.025,2.087,2.087,0,0,1,.717.19,1.27,1.27,0,0,1,.515.447,1.42,1.42,0,0,1,.2.8,1.4,1.4,0,0,1-.472,1.134,1.752,1.752,0,0,1-1.171.4,1.472,1.472,0,0,1-1.232-.521,1.939,1.939,0,0,1-.386-1.305h-1.4Zm9.193,2.819h1.532V453.8h-1.14a1.349,1.349,0,0,1-.313.662,1.931,1.931,0,0,1-.576.441,2.676,2.676,0,0,1-.754.245,4.93,4.93,0,0,1-.858.074v1.1h2.108v6.055Z" transform="translate(-9.364 6.372)" fill="#8d6013"/>
    <g id="a-9" data-name="a" transform="translate(263.293 457.737)">
      <path id="a-10" data-name="a" d="M689.395,649.39c.122.059.268.125.438.188.14.052.275.095.4.127v1.048c0,.418-.451.871-.837,1.159-.386-.286-.846-.74-.846-1.157v-1.048c.123-.034.259-.075.4-.127a4.262,4.262,0,0,0,.438-.188m0-.821a3.222,3.222,0,0,1-.689.34,3.96,3.96,0,0,1-.658.179.259.259,0,0,0-.206.258v1.408c0,1.17,1.561,2.012,1.561,2.012s1.552-.842,1.552-2.012v-1.408a.259.259,0,0,0-.206-.259,3.957,3.957,0,0,1-.658-.179,3.223,3.223,0,0,1-.689-.34Z" transform="translate(-679.237 -641.318)" fill="#8d6013" stroke="#8a5e12" stroke-width="0.4"/>
      <path id="a-11" data-name="a" d="M479.886,172.043m.358,0h0a.316.316,0,0,1,.358.358v3.445a.316.316,0,0,1-.358.358h0a.316.316,0,0,1-.358-.358V172.4A.316.316,0,0,1,480.243,172.043Z" transform="translate(-473.614 -170.12)" fill="#8d6013" stroke="#8a5e12" stroke-width="0.4"/>
      <path id="a-12" data-name="a" d="M483.151,480.13m0,.358h0a.316.316,0,0,1-.358.358h-2.55a.316.316,0,0,1-.358-.358h0a.316.316,0,0,1,.358-.358h2.55A.316.316,0,0,1,483.151,480.487Z" transform="translate(-473.614 -474.761)" fill="#8d6013" stroke="#8a5e12" stroke-width="0.4"/>
      <path id="a-13" data-name="a" d="M7.472,10.662a5.008,5.008,0,1,1,4.1-4.142.362.362,0,1,0,.715.114,5.723,5.723,0,1,0-4.7,4.732.357.357,0,1,0-.12-.7Z" transform="translate(0 0)" fill="#8d6013" stroke="#8a5e12" stroke-width="0.4"/>
    </g>
  </g>
</svg>
