<svg xmlns="http://www.w3.org/2000/svg" xmlns:xlink="http://www.w3.org/1999/xlink" width="57.483" height="60.962" viewBox="0 0 57.483 60.962">
  <defs>
    <linearGradient id="linear-gradient" y1="0.5" x2="1" y2="0.5" gradientUnits="objectBoundingBox">
      <stop offset="0" stop-color="#feef9f"/>
      <stop offset="1" stop-color="#edb506"/>
    </linearGradient>
  </defs>
  <g id="Most_Mileage" data-name="Most  Mileage" transform="translate(-247.049 -280.937)">
    <g id="a" transform="translate(248 283)">
      <g id="a-2" data-name="a" transform="translate(0 0)">
        <g id="a-3" data-name="a">
          <path id="a-4" data-name="a" d="M222.135,602.35,233.361,612.7l-13.475,12.427-2.81-7.76-8.416-2.586Zm28.629,0,13.475,12.423-8.417,2.586-2.81,7.76L239.536,612.7Z" transform="translate(-208.66 -566.224)" fill="#d19a0e"/>
          <path id="a-5" data-name="a" d="M249.847,212.035l20.564,10.944a5.634,5.634,0,0,1,3.092,4.932V249.8a5.627,5.627,0,0,1-3.087,4.93l-20.569,10.948a6.636,6.636,0,0,1-6.175,0l-20.564-10.945a5.626,5.626,0,0,1-3.088-4.93V227.914a5.63,5.63,0,0,1,3.088-4.931l20.564-10.947A6.631,6.631,0,0,1,249.847,212.035Z" transform="translate(-218.971 -211.273)" stroke="#fff0cc" stroke-miterlimit="10" stroke-width="4" fill="url(#linear-gradient)"/>
          <path id="a-6" data-name="a" d="M248.3,214.5a3.313,3.313,0,0,0-3.088,0l-20.564,10.948a2.819,2.819,0,0,0-1.544,2.465v21.893a2.819,2.819,0,0,0,1.544,2.465l20.564,10.945a3.314,3.314,0,0,0,3.088,0l20.564-10.945a2.82,2.82,0,0,0,1.544-2.465V227.914a2.82,2.82,0,0,0-1.544-2.465Zm1.544-2.465,20.564,10.944a5.634,5.634,0,0,1,3.092,4.932V249.8a5.627,5.627,0,0,1-3.087,4.93l-20.569,10.948a6.636,6.636,0,0,1-6.175,0l-20.564-10.945a5.626,5.626,0,0,1-3.088-4.93V227.914a5.63,5.63,0,0,1,3.088-4.931l20.564-10.947A6.631,6.631,0,0,1,249.847,212.035Z" transform="translate(-218.971 -211.273)" fill="#e3a815"/>
        </g>
      </g>
    </g>
    <g id="a-7" data-name="a" transform="translate(220.507 -37.638)">
      <path id="a-8" data-name="a" d="M62.517,603.906H48.828a.247.247,0,1,1,0-.495h13.69a.806.806,0,1,0,0-1.61H48.181a1.3,1.3,0,1,1,0-2.6h2.691a.247.247,0,0,1,.248.247c0,.137.071.247-.066.247H48.181a.806.806,0,1,0,0,1.61H62.517a1.3,1.3,0,1,1,0,2.6Zm-14.763,0h-.907a.247.247,0,1,1,0-.495h.907a.247.247,0,1,1,0,.495Z" transform="translate(-8.033 -242.142)" fill="#8d6013" stroke="#8d6013" stroke-width="0.4"/>
      <path id="a-9" data-name="a" d="M230.428,114.851a1.028,1.028,0,0,1-.456-.149,6.262,6.262,0,0,1-.6-.352,12.318,12.318,0,0,1-1.544-1.211,8.912,8.912,0,0,1-1.46-1.685,3.658,3.658,0,0,1-.67-1.95,4.6,4.6,0,1,1,9.209,0,3.807,3.807,0,0,1-.627,1.943,8.745,8.745,0,0,1-1.373,1.686,11.552,11.552,0,0,1-1.459,1.213,5.72,5.72,0,0,1-.572.354A.973.973,0,0,1,230.428,114.851Zm-.124-9.406a4.055,4.055,0,0,0-4.059,4.059,3.106,3.106,0,0,0,.564,1.625,8.226,8.226,0,0,0,1.337,1.559,11.886,11.886,0,0,0,1.459,1.161,3.609,3.609,0,0,0,.822.454,3.317,3.317,0,0,0,.78-.453,11.141,11.141,0,0,0,1.373-1.159,8.061,8.061,0,0,0,1.253-1.557,3.251,3.251,0,0,0,.53-1.63,4.055,4.055,0,0,0-4.059-4.059Zm.124,4.873a1.433,1.433,0,1,1,1.433-1.433A1.435,1.435,0,0,1,230.428,110.319Zm0-2.321a.888.888,0,1,0,.888.888A.889.889,0,0,0,230.428,108Z" transform="translate(-184.776 244.71)" fill="#8d6013" stroke="#8d6013" stroke-width="0.4"/>
    </g>
    <g id="a-10" data-name="a" transform="translate(272 297)">
      <path id="a-11" data-name="a" d="M285.864,459.561a3.845,3.845,0,0,0,.208,1.226,2.615,2.615,0,0,0,.57.944,2.5,2.5,0,0,0,.931.607,3.933,3.933,0,0,0,2.47.031,3.063,3.063,0,0,0,.968-.521,2.492,2.492,0,0,0,.662-.821,2.616,2.616,0,0,0-.165-2.513,1.772,1.772,0,0,0-1.146-.729v-.025a1.682,1.682,0,0,0,.919-.7,2.14,2.14,0,0,0,.294-1.134,2.062,2.062,0,0,0-.852-1.716,2.886,2.886,0,0,0-.87-.429,3.376,3.376,0,0,0-.987-.147,2.929,2.929,0,0,0-1.164.221,2.531,2.531,0,0,0-.876.613,2.914,2.914,0,0,0-.57.925,3.537,3.537,0,0,0-.233,1.158h1.4a2.117,2.117,0,0,1,.074-.643,1.784,1.784,0,0,1,.264-.564,1.265,1.265,0,0,1,1.085-.545,1.4,1.4,0,0,1,.962.331,1.121,1.121,0,0,1,.374.883,1.242,1.242,0,0,1-.165.662,1.2,1.2,0,0,1-.435.423,1.906,1.906,0,0,1-.613.214,3.225,3.225,0,0,1-.686.049V458.4a6.746,6.746,0,0,1,.815.025,2.087,2.087,0,0,1,.717.19,1.27,1.27,0,0,1,.515.447,1.42,1.42,0,0,1,.2.8,1.4,1.4,0,0,1-.472,1.134,1.752,1.752,0,0,1-1.171.4,1.472,1.472,0,0,1-1.232-.521,1.939,1.939,0,0,1-.386-1.305h-1.4Zm9.193,2.819h1.532V453.8h-1.14a1.349,1.349,0,0,1-.313.662,1.931,1.931,0,0,1-.576.441,2.676,2.676,0,0,1-.754.245,4.93,4.93,0,0,1-.858.074v1.1h2.108v6.055Z" transform="translate(-280.364 -443.98)" fill="#8d6013"/>
      <path id="a-12" data-name="a" d="M84.761,68.466H83.277V67.289a.311.311,0,0,0-.314-.306h-.854a.308.308,0,0,0-.314.306v1.177H71.415V67.289a.311.311,0,0,0-.314-.306h-.854a.308.308,0,0,0-.314.306v1.177H68.449a2.962,2.962,0,0,0-2.965,2.963V86.263a2.966,2.966,0,0,0,2.965,2.963H84.761a2.962,2.962,0,0,0,2.965-2.963V71.43A2.966,2.966,0,0,0,84.761,68.466Zm1.482,17.8a1.48,1.48,0,0,1-1.482,1.481H68.449a1.484,1.484,0,0,1-1.482-1.481V74.4H86.243Zm0-13.348H66.966V71.43a1.48,1.48,0,0,1,1.482-1.48h1.483v1.177a.311.311,0,0,0,.314.306H71.1a.308.308,0,0,0,.314-.306V69.949h10.38v1.177a.311.311,0,0,0,.314.306h.854a.308.308,0,0,0,.314-.306V69.949h1.483a1.484,1.484,0,0,1,1.482,1.48v1.485Z" transform="translate(-65.483 -66.984)" fill="#8d6013"/>
    </g>
  </g>
</svg>
