<svg xmlns="http://www.w3.org/2000/svg" xmlns:xlink="http://www.w3.org/1999/xlink" width="57.477" height="60.962" viewBox="0 0 57.477 60.962">
  <defs>
    <linearGradient id="linear-gradient" y1="0.5" x2="1" y2="0.5" gradientUnits="objectBoundingBox">
      <stop offset="0" stop-color="#fccba2"/>
      <stop offset="1" stop-color="#bc845e"/>
    </linearGradient>
    <linearGradient id="linear-gradient-2" y1="0.5" x2="1" y2="0.5" gradientUnits="objectBoundingBox">
      <stop offset="0" stop-color="#241217"/>
      <stop offset="1" stop-color="#bc845e"/>
    </linearGradient>
  </defs>
  <g id="Most_Platforms_Trained" data-name="Most  Platforms  Trained" transform="translate(-162.05 -78.937)">
    <g id="a" transform="translate(163 81)">
      <g id="a-2" data-name="a" transform="translate(0 0)">
        <path id="a-3" data-name="a" d="M224.623,608.37l11.226,10.346-13.472,12.427-2.81-7.759L211.15,620.8Zm28.629,0,13.477,12.423-8.417,2.586-2.81,7.76-13.474-12.418Z" transform="translate(-211.15 -572.244)" fill="#a0510e"/>
        <path id="a-4" data-name="a" d="M252.347,218.055,272.909,229A5.63,5.63,0,0,1,276,233.928v21.893a5.628,5.628,0,0,1-3.088,4.93L252.347,271.7a6.638,6.638,0,0,1-6.176,0l-20.564-10.945a5.626,5.626,0,0,1-3.087-4.93V233.934A5.629,5.629,0,0,1,225.607,229l20.564-10.947a6.633,6.633,0,0,1,6.176,0Z" transform="translate(-221.47 -217.293)" stroke="#fff0cc" stroke-miterlimit="10" stroke-width="4" fill="url(#linear-gradient)"/>
        <path id="a-5" data-name="a" d="M250.8,220.52a3.312,3.312,0,0,0-3.087,0l-20.564,10.948a2.821,2.821,0,0,0-1.544,2.465v21.893a2.821,2.821,0,0,0,1.544,2.465l20.564,10.945a3.312,3.312,0,0,0,3.087,0l20.564-10.945a2.819,2.819,0,0,0,1.544-2.465V233.934a2.819,2.819,0,0,0-1.544-2.465Zm1.545-2.465L272.909,229A5.63,5.63,0,0,1,276,233.928v21.893a5.628,5.628,0,0,1-3.088,4.93L252.347,271.7a6.638,6.638,0,0,1-6.176,0l-20.564-10.945a5.626,5.626,0,0,1-3.087-4.93V233.934A5.629,5.629,0,0,1,225.607,229l20.564-10.947A6.633,6.633,0,0,1,252.347,218.055Z" transform="translate(-221.47 -217.293)" opacity="0.6" fill="url(#linear-gradient-2)"/>
      </g>
    </g>
    <path id="a-6" data-name="a" d="M2.32,148h.863l2.052-2.36.055-.057a2.288,2.288,0,0,1,1.582-.623H22.95a2.314,2.314,0,0,1,1.617.656l5.107,5.98c.018.021.031.045.046.067a6.354,6.354,0,0,1,4.449,6.229v1.461a3.774,3.774,0,0,1-3.611,3.912H29.8a3.961,3.961,0,0,1-6.6,0H12.7a3.96,3.96,0,0,1-6.6-.01,3.7,3.7,0,0,1-3.33-2.993H2.32A2.323,2.323,0,0,1,0,157.942v-7.621A2.323,2.323,0,0,1,2.32,148Zm20.63-1.412H6.872a.683.683,0,0,0-.44.156l-2.145,2.468,0,2.249H10.1v-2.52a1.313,1.313,0,0,1,1.459-1.181h12.7l-.858-1.006A.68.68,0,0,0,22.95,146.588Zm4.469,4.873-1.768-2.072H21.415v2.072Zm-7.361-2.072H16.63v2.072h3.428Zm-4.785,0H11.73v2.072h3.543v-2.072ZM26.5,163.405a2.337,2.337,0,1,0-2.337-2.337A2.34,2.34,0,0,0,26.5,163.405Zm-17.1,0a2.337,2.337,0,1,0-2.337-2.337A2.34,2.34,0,0,0,9.405,163.405ZM4.3,159.352a2.322,2.322,0,0,0,1.162,2.073c-.011-.118-.018-.237-.018-.357a3.966,3.966,0,1,1,7.886.568h9.257a3.966,3.966,0,1,1,7.84,0h.136a2.152,2.152,0,0,0,1.982-2.284v-1.461a4.558,4.558,0,0,0-4.256-4.8H4.3v6.262Zm-2.667-1.411a.692.692,0,0,0,.692.692h.347V154l-.008-4.375H2.32a.693.693,0,0,0-.692.692v7.62Z" transform="translate(174 -46.762)" fill="#5c2906"/>
  </g>
</svg>
