<svg xmlns="http://www.w3.org/2000/svg" width="37.999" height="21.744" viewBox="0 0 37.999 21.744">
  <path id="bus" d="M27.149,18H13.22A3.975,3.975,0,0,1,5.37,18L2.421,18A2.424,2.424,0,0,1,0,15.577V2.42A2.424,2.424,0,0,1,2.421,0H29.727A7.886,7.886,0,0,1,37.6,7.878v7.7A2.424,2.424,0,0,1,35.179,18H35a3.976,3.976,0,0,1-7.851,0Zm1.156-.637A2.769,2.769,0,1,0,31.075,14.6,2.77,2.77,0,0,0,28.305,17.362Zm-21.781,0A2.77,2.77,0,1,0,9.294,14.6,2.77,2.77,0,0,0,6.525,17.362Zm28.654-.579a1.206,1.206,0,0,0,1.207-1.207V10.883H25.918v5.9H27.14a3.976,3.976,0,0,1,7.869,0Zm-10.468,0v-5.9H1.207v4.694a1.207,1.207,0,0,0,1.214,1.207H5.36a3.977,3.977,0,0,1,7.869,0ZM36.386,9.67V7.878a6.673,6.673,0,0,0-6.659-6.665H25.918V9.67Zm-11.675,0V1.213H2.421A1.213,1.213,0,0,0,1.207,2.42V9.67ZM18.823,7.765A1.342,1.342,0,0,1,17.489,6.43v-2.6a1.341,1.341,0,0,1,1.334-1.333h2.6A1.337,1.337,0,0,1,22.76,3.828v2.6a1.337,1.337,0,0,1-1.334,1.335ZM18.7,3.828v2.6a.121.121,0,0,0,.121.122h2.6a.12.12,0,0,0,.121-.122v-2.6a.12.12,0,0,0-.121-.12h-2.6A.12.12,0,0,0,18.7,3.828ZM11.5,7.765A1.342,1.342,0,0,1,10.166,6.43v-2.6A1.341,1.341,0,0,1,11.5,2.495h2.6a1.341,1.341,0,0,1,1.334,1.333v2.6A1.341,1.341,0,0,1,14.1,7.765ZM11.38,3.828v2.6a.12.12,0,0,0,.121.122h2.6a.12.12,0,0,0,.121-.122v-2.6a.12.12,0,0,0-.121-.12H11.5A.12.12,0,0,0,11.38,3.828Zm-7.2,3.937A1.337,1.337,0,0,1,2.85,6.43v-2.6A1.337,1.337,0,0,1,4.185,2.495h2.6A1.341,1.341,0,0,1,8.121,3.828v2.6A1.342,1.342,0,0,1,6.786,7.765ZM4.064,3.828v2.6a.12.12,0,0,0,.121.122h2.6a.12.12,0,0,0,.121-.122v-2.6a.12.12,0,0,0-.121-.12h-2.6A.12.12,0,0,0,4.064,3.828Z" transform="translate(0.2 0.2)" fill="#000000" stroke="#000000" stroke-width="0.4"/>
</svg>
