<svg xmlns="http://www.w3.org/2000/svg" width="31.626" height="29.367" viewBox="0 0 31.626 29.367">
  <path id="d" d="M92.614,133.775a2.259,2.259,0,0,1-4.518,0v-.753H71.279v.753a2.259,2.259,0,0,1-4.518,0v-.753h-.5A2.259,2.259,0,0,1,64,130.763v-9.036a2.259,2.259,0,0,1,2.259-2.259h.111l1.611-10.873a2.259,2.259,0,0,1,2.233-1.928h19.2a2.259,2.259,0,0,1,2.233,1.928l1.611,10.873h.111a2.259,2.259,0,0,1,2.259,2.259v9.036a2.259,2.259,0,0,1-2.259,2.259h-.753ZM72.66,124.739H69.648a1.883,1.883,0,0,0-.193,3.756l.193.009H72.66a1.883,1.883,0,0,0,0-3.765Zm17.319,0H86.967a1.883,1.883,0,0,0-.193,3.756l.193.009h3.012a1.883,1.883,0,1,0,0-3.765Zm-3.464-13.554H73.22a1.2,1.2,0,0,0-1.16.884l-.033.16-.98,7.239H88.7l-.989-7.241a1.2,1.2,0,0,0-1.032-1.032Z" transform="translate(-64 -106.667)" fill="#FFFFFF"/>
</svg>
