<svg xmlns="http://www.w3.org/2000/svg" width="25.942" height="29.909" viewBox="0 0 25.942 29.909">
  <g id="c" transform="translate(-1045 -344)">
    <g id="c-2" data-name="c" transform="translate(3354 -9319)">
      <g id="c-3" data-name="c" transform="translate(-2309 9663)">
        <g id="c-4" data-name="c">
          <path id="c-5" data-name="c" d="M118.182,56A1,1,0,1,1,119.49,57.5L114.7,61.665a1,1,0,0,1-.654.244H99.086A3.116,3.116,0,0,1,96,58.765V35.144A3.116,3.116,0,0,1,99.086,32h19.75a3.116,3.116,0,0,1,3.086,3.144V52.726a1,1,0,1,1-1.994,0V35.144a1.122,1.122,0,0,0-1.092-1.151H99.086a1.122,1.122,0,0,0-1.092,1.151v23.62a1.122,1.122,0,0,0,1.092,1.151h14.584Z" transform="translate(-96 -32)"/>
          <path id="c-6" data-name="c" d="M641.994,680.946a1,1,0,1,1-1.994,0v-5.8A3.116,3.116,0,0,1,643.086,672H648a1,1,0,0,1,0,1.994h-4.911a1.122,1.122,0,0,0-1.092,1.151v5.8Z" transform="translate(-623.051 -652.061)"/>
        </g>
        <path id="c-7" data-name="c" d="M256.89,265.78a.89.89,0,1,1,0-1.78h14.552a.89.89,0,0,1,0,1.78Z" transform="translate(-251.125 -258.429)"/>
        <path id="c-8" data-name="c" d="M256.89,265.78a.89.89,0,1,1,0-1.78h2.017a.89.89,0,0,1,0,1.78Z" transform="translate(-251.125 -254.947)"/>
        <path id="c-9" data-name="c" d="M256.89,265.78a.89.89,0,1,1,0-1.78h2.017a.89.89,0,0,1,0,1.78Z" transform="translate(-238.59 -254.947)"/>
        <path id="c-10" data-name="c" d="M274.89,265.78a.89.89,0,0,1,0-1.78h2.017a.89.89,0,0,1,0,1.78Z" transform="translate(-256.59 -251.465)"/>
        <path id="c-11" data-name="c" d="M274.89,265.78a.89.89,0,0,1,0-1.78h2.017a.89.89,0,0,1,0,1.78Z" transform="translate(-269.125 -251.465)"/>
        <path id="c-12" data-name="c" d="M256.89,265.78a.89.89,0,1,1,0-1.78h2.017a.89.89,0,0,1,0,1.78Z" transform="translate(-251.125 -247.983)"/>
        <path id="c-13" data-name="c" d="M256.89,265.78a.89.89,0,1,1,0-1.78h2.017a.89.89,0,0,1,0,1.78Z" transform="translate(-238.59 -247.983)"/>
        <path id="c-14" data-name="c" d="M256.89,265.78a.89.89,0,1,1,0-1.78h3.41a.89.89,0,0,1,0,1.78Z" transform="translate(-251.125 -244.501)"/>
        <path id="c-15" data-name="c" d="M256.89,265.78a.89.89,0,1,1,0-1.78h8.285a.89.89,0,0,1,0,1.78Z" transform="translate(-251.125 -241.019)"/>
        <path id="c-16" data-name="c" d="M39.97,26.562a1.5,1.5,0,1,1,1.452-1.5A1.476,1.476,0,0,1,39.97,26.562Zm1.127-5.4c0,.828-.459,1.5-1.025,1.5h-.2c-.566,0-1.025-.671-1.025-1.5l-.615-6c0-.828.459-1.5,1.025-1.5h1.435c.566,0,1.025.671,1.025,1.5Z" transform="translate(-26.999 -5.104)" fill="#d81e16"/>
      </g>
    </g>
  </g>
</svg>
