<svg xmlns="http://www.w3.org/2000/svg" width="31.713" height="31.578" viewBox="0 0 31.713 31.578">
  <g id="e" transform="translate(2825 -9615)">
    <g id="e-2" data-name="e" transform="translate(-2825 9615)">
      <circle id="e-3" data-name="e" cx="6.839" cy="6.839" r="6.839" transform="translate(9.029 0)" fill="#000000"/>
      <path id="e-4" data-name="e" d="M203.809,307.815l-5.413,7.119-2.8.22a6.352,6.352,0,0,0-3.581,1.491l-2.722,2.483a2.738,2.738,0,0,0-.935,1.689l-.321,2.2h-3.53l-1.767-2.385a2.906,2.906,0,0,1,.118-3.608l2.433-2.871,2.481-4.539A4.241,4.241,0,0,1,191.5,307.4H203.6A.257.257,0,0,1,203.809,307.815Z" transform="translate(-182.174 -291.435)" fill="#000000"/>
      <path id="e-5" data-name="e" d="M222.614,362.281h15.655l-.125-.992a3.4,3.4,0,0,0-1.472-2.395l-2.52-1.7a4.953,4.953,0,0,0-2-.788h0a9.677,9.677,0,0,0-3.418.068l-.6.12a4.954,4.954,0,0,0-2.145,1.007l-2.283,1.848a2.554,2.554,0,0,0-.921,1.62Z" transform="translate(-214.661 -330.703)" fill="#000000"/>
      <path id="e-6" data-name="e" d="M281.575,311.819l.619.491a4.88,4.88,0,0,1,1.368,1.715l1.672,3.492a3.544,3.544,0,0,0,.471.735l2.221,2.673a2.4,2.4,0,0,1,.056,3l-1.936,2.517h-3.453s-.552-3.971-2.693-5.422-3.729-2.244-4.765-2.089c-.879.132,4.007-5.365,5.51-7.035A.681.681,0,0,1,281.575,311.819Z" transform="translate(-256.768 -294.864)" fill="#000000"/>
    </g>
  </g>
</svg>
