<svg xmlns="http://www.w3.org/2000/svg" width="23.083" height="21.448" viewBox="0 0 23.083 21.448">
  <g id="people" transform="translate(-17.702 -53.648)">
    <path id="8432" data-name="8432" d="M659.262,181.9a6.57,6.57,0,0,0-3.634-5.24,4.655,4.655,0,0,0-2.878-8.313,4.7,4.7,0,0,0-1.107.139l-.325.076.224.245a6.431,6.431,0,0,1,.833,1.128l.059.1.118,0a.867.867,0,0,0,.11-.013.772.772,0,0,1,.089-.008,2.99,2.99,0,0,1,0,5.98c-.03,0-.063,0-.106-.008a.63.63,0,0,0-.089-.008l-.123-.008-.059.106a6.183,6.183,0,0,1-.934,1.238l-.444.456.621-.131a4.775,4.775,0,0,1,1-.106,4.888,4.888,0,0,1,4.877,4.412l.017.173h1.745v-.194Z" transform="translate(-618.477 -112.017)" fill="#FFFFFF"/>
    <path id="8433" data-name="8433" d="M36.026,71.917a9.447,9.447,0,0,0-3.47-4.683,9.434,9.434,0,0,0-2.316-1.2,6.753,6.753,0,1,0-7.049.325,9.4,9.4,0,0,0-3.88,3.3A9.3,9.3,0,0,0,17.7,74.9V75.1h1.581V74.9a.485.485,0,0,0,0-.08c0-.021,0-.038,0-.051a7.7,7.7,0,1,1,15.391,0,.26.26,0,0,1,0,.055c0,.025,0,.051,0,.076v.194h1.851V74.9a9.38,9.38,0,0,0-.482-2.979Zm-4.505-11.5a5.071,5.071,0,1,1-5.071-5.071A5.075,5.075,0,0,1,31.521,60.422Z" fill="#FFFFFF"/>
  </g>
</svg>
