<svg xmlns="http://www.w3.org/2000/svg" width="33.758" height="33.758" viewBox="0 0 33.758 33.758">
  <path id="return" d="M108.4,86.6a16.665,16.665,0,1,0,9.028,9.028.834.834,0,1,0-1.54.639,15,15,0,1,1-8.127-8.127.834.834,0,1,0,.639-1.54ZM95.7,101.18l6.82-6.821a.834.834,0,0,0-1.179-1.179L93.2,101.321a.814.814,0,0,0-.239.585.833.833,0,0,0,.247.586l8.255,8.256a.823.823,0,1,0,1.163-1.163l-6.748-6.748,14.659.1a.809.809,0,0,0,.822-.822.84.84,0,0,0-.834-.834Z" transform="translate(-85.133 -85.133)" fill="#FFFFFF" stroke="#FFFFFF" stroke-width="0.4"/>
</svg>
