<svg xmlns="http://www.w3.org/2000/svg" width="32.969" height="32.969" viewBox="0 0 32.969 32.969">
  <g id="b" transform="translate(-998.38 -342)">
    <g id="a" transform="translate(-275.152 53.415)">
      <g id="a-2" data-name="a" transform="translate(1273.532 288.585)">
        <circle id="a-3" data-name="a" cx="15.176" cy="15.176" r="15.176" transform="translate(1.308 1.308)" fill="#e50b18"/>
        <circle id="a-4" data-name="a" cx="11.382" cy="11.382" r="11.382" transform="translate(5.233 5.233)" fill="#e50b18"/>
        <circle id="a-5" data-name="a" cx="16.485" cy="16.485" r="16.485" fill="#e50b18"/>
      </g>
      <g id="a-6" data-name="a" transform="translate(1275.597 290.65)">
        <g id="a-7" data-name="a" transform="translate(1.144 1.144)" fill="#e50b18" stroke="#fff" stroke-width="3">
          <circle cx="13.275" cy="13.275" r="13.275" stroke="none"/>
          <circle cx="13.275" cy="13.275" r="11.775" fill="none"/>
        </g>
        <g id="a-8" data-name="a" transform="translate(4.578 4.578)" fill="#e50b18" stroke="#fff" stroke-width="3">
          <circle cx="9.956" cy="9.956" r="9.956" stroke="none"/>
          <circle cx="9.956" cy="9.956" r="8.456" fill="none"/>
        </g>
        <g id="a-9" data-name="a" transform="translate(0)" fill="#e50b18" stroke="#fff" stroke-width="3">
          <circle cx="14.42" cy="14.42" r="14.42" stroke="none"/>
          <circle cx="14.42" cy="14.42" r="12.92" fill="none"/>
        </g>
      </g>
      <g id="a-10" data-name="a" transform="translate(1280.225 296.282)">
        <path id="a-11" data-name="a" d="M101.048,99.827a8.239,8.239,0,0,1-3.71-1.432,25.981,25.981,0,0,1-4.3-3.382l-.431-.432a25.976,25.976,0,0,1-3.382-4.3,8.239,8.239,0,0,1-1.432-3.71,5.972,5.972,0,0,1,1.277-3.089c.293-.4,1.346-1.691,2.226-1.691.362,0,.759.242,1.277.776a13.237,13.237,0,0,1,1.173,1.467,15.952,15.952,0,0,1,1,1.622,2.779,2.779,0,0,1,.466,1.329,1.158,1.158,0,0,1-.587.984,5.108,5.108,0,0,1-.863.449,3.306,3.306,0,0,0-.656.328,5.18,5.18,0,0,0,.742,1.363,15.779,15.779,0,0,0,1.639,2.019,16.084,16.084,0,0,0,2.019,1.64,5.847,5.847,0,0,0,1.364.742,3.318,3.318,0,0,0,.328-.656,4.079,4.079,0,0,1,.449-.863,1.156,1.156,0,0,1,.983-.6,2.984,2.984,0,0,1,1.329.483,16,16,0,0,1,1.622,1,11.45,11.45,0,0,1,1.466,1.173c.535.517.776.914.776,1.277,0,.88-1.311,1.933-1.708,2.226a5.841,5.841,0,0,1-3.072,1.277Z" transform="translate(-87.796 -81.795)" fill="#fff"/>
        <path id="a-12" data-name="a" d="M509.191,357.11a.391.391,0,0,1-.4-.311,1.911,1.911,0,0,0-.88-1.329,2.227,2.227,0,0,0-1.657-.328.395.395,0,0,1-.138-.777,3.027,3.027,0,0,1,2.226.449,2.785,2.785,0,0,1,1.225,1.846.39.39,0,0,1-.31.449Z" transform="translate(-496.853 -348.482)" fill="#fff"/>
        <path id="a-13" data-name="a" d="M511.535,237.724a.406.406,0,0,1-.4-.328,3.869,3.869,0,0,0-1.708-2.571,4.421,4.421,0,0,0-3.175-.638.378.378,0,0,1-.449-.311.39.39,0,0,1,.311-.449,5.077,5.077,0,0,1,3.745.759,4.617,4.617,0,0,1,2.053,3.071.408.408,0,0,1-.311.466Z" transform="translate(-496.851 -230.097)" fill="#fff"/>
        <path id="a-14" data-name="a" d="M501.275,118.8a.4.4,0,0,1-.38-.328,6.489,6.489,0,0,0-2.916-4.366,7.357,7.357,0,0,0-5.383-1.087.394.394,0,1,1-.138-.777,8.177,8.177,0,0,1,5.953,1.208,7.405,7.405,0,0,1,3.261,4.9.39.39,0,0,1-.328.449Z" transform="translate(-483.467 -111.464)" fill="#fff"/>
      </g>
    </g>
  </g>
</svg>
