<?xml version="1.0" standalone="no"?><!DOCTYPE svg PUBLIC "-//W3C//DTD SVG 1.1//EN" "http://www.w3.org/Graphics/SVG/1.1/DTD/svg11.dtd"><svg t="1703567392013" class="icon" viewBox="0 0 1024 1024" version="1.1" xmlns="http://www.w3.org/2000/svg" p-id="1835" xmlns:xlink="http://www.w3.org/1999/xlink" width="48" height="48"><path d="M512 32a480 480 0 1 0 480 480A480 480 0 0 0 512 32z m0 194.24a64 64 0 0 1 64 64c0 81.28 1.92 26.24-11.52 276.48a53.44 53.44 0 0 1-106.88 0c-13.44-248.32-11.52-192-11.52-276.48a64 64 0 0 1 65.92-64z m0 571.52a70.08 70.08 0 1 1 70.4-70.4 70.08 70.08 0 0 1-70.4 70.4z" fill="#ffffff" p-id="1836"></path></svg>