<svg xmlns="http://www.w3.org/2000/svg" xmlns:xlink="http://www.w3.org/1999/xlink" width="101.734" height="119.438" viewBox="0 0 101.734 119.438">
  <defs>
    <filter id="8885" x="0" y="0" width="101.734" height="119.438" filterUnits="userSpaceOnUse">
      <feOffset dy="6" input="SourceAlpha"/>
      <feGaussianBlur stdDeviation="6" result="blur"/>
      <feFlood flood-color="#020000" flood-opacity="0.161"/>
      <feComposite operator="in" in2="blur"/>
      <feComposite in="SourceGraphic"/>
    </filter>
  </defs>
  <g id="a" transform="translate(-2365.808 139.527)">
    <g id="11059" data-name="11059" transform="translate(2384.208 -127.127)">
      <g transform="matrix(1, 0, 0, 1, -18.4, -12.4)" filter="url(#8885)">
        <path id="8885-2" data-name="8885" d="M192.432,63.989a32.5,32.5,0,0,0-32.459,32.459c0,17.276,29.1,47.959,30.333,49.259a2.952,2.952,0,0,0,2.142.92h.063a2.855,2.855,0,0,0,2.158-1.015l10.074-11.534c13.39-16.388,20.164-29.048,20.164-37.615A32.506,32.506,0,0,0,192.432,63.989Z" transform="translate(-141.57 -51.59)" fill="#91bed9" stroke="#097fc6" stroke-width="0.8"/>
      </g>
      <g id="11162" data-name="11162" transform="translate(6.413 6.237)">
        <g id="886" data-name="886" transform="translate(1.832 1.832)" fill="#91bed9" stroke="#fff" stroke-width="3">
          <ellipse cx="24.28" cy="23.822" rx="24.28" ry="23.822" stroke="none"/>
          <ellipse cx="24.28" cy="23.822" rx="22.78" ry="22.322" fill="none"/>
        </g>
        <g id="894" data-name="894" transform="translate(8.246 8.246)" fill="#91bed9" stroke="#fff" stroke-width="3">
          <ellipse cx="18.325" cy="17.866" rx="18.325" ry="17.866" stroke="none"/>
          <ellipse cx="18.325" cy="17.866" rx="16.825" ry="16.366" fill="none"/>
        </g>
        <g id="902" data-name="902" transform="translate(0 0)" fill="#91bed9" stroke="#fff" stroke-width="3">
          <ellipse cx="26.112" cy="26.112" rx="26.112" ry="26.112" stroke="none"/>
          <ellipse cx="26.112" cy="26.112" rx="24.612" ry="24.612" fill="none"/>
        </g>
      </g>
    </g>
    <g id="Hard_braking" data-name="Hard braking" transform="translate(2401.547 -109.357)">
      <path id="a-2" data-name="a" d="M169.426,137.37a3.823,3.823,0,0,1-1.785-1.222,7.6,7.6,0,0,1-.658,4.886,10.117,10.117,0,0,1-1.691,2.255,8.944,8.944,0,0,1-.94,2.631,40.252,40.252,0,0,1-8.363-3.946c.188-.376.282-.47.564-1.034-6.577-2.443-13.061-6.577-14.376-9.96,0-1.6,2.161-2.255,3.571-1.879,1.315.376,2.819,1.316,4.322,1.691.564.188,10.242.564,10.994.564-1.6-.94-1.973-1.315-2.067-1.691,1.409-1.879,5.92-6.671,7.047-8.833,2.349,2.255,3.195,14.846,3.477,16.444Zm-17.477,9.115-.564.752a1.011,1.011,0,0,1-1.316.188l-4.134-3.195-5.168,6.577a5.69,5.69,0,0,1-1.5-2.631l4.51-5.732-2.631-1.973a1.01,1.01,0,0,1-.188-1.315l.564-.752a1.011,1.011,0,0,1,1.315-.188l8.927,6.953A.994.994,0,0,1,151.949,146.484Z" transform="translate(-139.264 -120.832)" fill="#fff"/>
    </g>
  </g>
</svg>
