<svg xmlns="http://www.w3.org/2000/svg" width="28.403" height="28.138" viewBox="0 0 28.403 28.138">
  <path id="Hard_braking" data-name="Hard braking" d="M167.578,136.356a3.589,3.589,0,0,1-1.676-1.147,7.137,7.137,0,0,1-.617,4.587,9.5,9.5,0,0,1-1.588,2.117,8.4,8.4,0,0,1-.882,2.47,37.785,37.785,0,0,1-7.85-3.7c.176-.353.265-.441.529-.97-6.174-2.293-12.261-6.174-13.5-9.35,0-1.5,2.029-2.117,3.352-1.764,1.235.353,2.646,1.235,4.058,1.588.529.176,9.615.529,10.32.529-1.5-.882-1.852-1.235-1.941-1.588,1.323-1.764,5.557-6.263,6.615-8.291,2.205,2.117,3,13.937,3.264,15.436Zm-16.406,8.556-.529.706a.949.949,0,0,1-1.235.176l-3.881-3-4.851,6.174a5.342,5.342,0,0,1-1.411-2.47l4.234-5.381-2.47-1.852a.949.949,0,0,1-.176-1.235l.529-.706a.949.949,0,0,1,1.235-.176l8.38,6.527A.933.933,0,0,1,151.172,144.912Z" transform="translate(-139.264 -120.832)" fill="#ffffff"/>
</svg>
