<svg xmlns="http://www.w3.org/2000/svg" width="23.986" height="24.131" viewBox="0 0 23.986 24.131">
  <g id="Idle_Time" data-name="Idle Time" transform="translate(-132.647 -121.6)">
    <path id="a" d="M134.3,138.973a.722.722,0,0,1-.651-.4.745.745,0,0,1,.3-1l3.154-1.652a.739.739,0,0,1,.7,1.3l-3.154,1.652A.54.54,0,0,1,134.3,138.973Zm3.655,4.606a.943.943,0,0,1-.4-.1.789.789,0,0,1-.25-1.051l1.9-3a.764.764,0,0,1,1.3.8l-1.9,3A.73.73,0,0,1,137.959,143.579Zm5.507,2.153h0a.75.75,0,0,1-.751-.8l.15-3.555a.753.753,0,0,1,1.5.1l-.15,3.555A.8.8,0,0,1,143.466,145.731Zm5.808-.9a.722.722,0,0,1-.651-.4l-1.652-3.154a.739.739,0,0,1,1.3-.7l1.652,3.154a.745.745,0,0,1-.3,1A1.274,1.274,0,0,1,149.273,144.83Zm4.556-3.7a.944.944,0,0,1-.4-.1l-3-1.9a.764.764,0,1,1,.8-1.3l3,1.9a.789.789,0,0,1,.25,1.051A.73.73,0,0,1,153.829,141.125Zm-8.111-7.009a.77.77,0,0,1-.751-.751V122.351a.751.751,0,0,1,1.5,0v10.964A.781.781,0,0,1,145.719,134.116Zm-3.955-6.959a.722.722,0,0,1-.651-.4l-1.652-3.154a.739.739,0,1,1,1.3-.7l1.652,3.154a.745.745,0,0,1-.3,1A.422.422,0,0,1,141.764,127.157Zm-3.2,2.453a.943.943,0,0,1-.4-.1l-3-1.9a.764.764,0,1,1,.8-1.3l3,1.9a.789.789,0,0,1,.25,1.051A1.057,1.057,0,0,1,138.56,129.61Zm-1.6,3.7h0l-3.6-.15a.753.753,0,0,1,.1-1.5l3.555.15a.713.713,0,0,1,.7.8A.761.761,0,0,1,136.958,133.315Z" transform="translate(0 0)" fill="#999999"/>
    <path id="a-2" data-name="a" d="M537.314,475.1H527.151a.751.751,0,0,1,0-1.5h10.163a.77.77,0,0,1,.751.751A.737.737,0,0,1,537.314,475.1Z" transform="translate(-381.432 -340.986)" fill="#999999"/>
  </g>
</svg>
