<svg xmlns="http://www.w3.org/2000/svg" xmlns:xlink="http://www.w3.org/1999/xlink" width="101.734" height="119.438" viewBox="0 0 101.734 119.438">
  <defs>
    <filter id="8885" x="0" y="0" width="101.734" height="119.438" filterUnits="userSpaceOnUse">
      <feOffset dy="6" input="SourceAlpha"/>
      <feGaussianBlur stdDeviation="6" result="blur"/>
      <feFlood flood-color="#020000" flood-opacity="0.161"/>
      <feComposite operator="in" in2="blur"/>
      <feComposite in="SourceGraphic"/>
    </filter>
  </defs>
  <g id="a" transform="translate(-2599.932 139.527)">
    <g id="11062" data-name="11062" transform="translate(2618.332 -127.127)">
      <g transform="matrix(1, 0, 0, 1, -18.4, -12.4)" filter="url(#8885)">
        <path id="8885-2" data-name="8885" d="M192.432,63.989a32.5,32.5,0,0,0-32.459,32.459c0,17.276,29.1,47.959,30.333,49.259a2.952,2.952,0,0,0,2.142.92h.063a2.855,2.855,0,0,0,2.158-1.015l10.074-11.534c13.39-16.388,20.164-29.048,20.164-37.615A32.506,32.506,0,0,0,192.432,63.989Z" transform="translate(-141.57 -51.59)" fill="#b276ed" stroke="#7404e2" stroke-width="0.8"/>
      </g>
      <g id="11162" data-name="11162" transform="translate(6.413 6.237)">
        <g id="886" data-name="886" transform="translate(1.832 1.832)" fill="#b276ed" stroke="#fff" stroke-width="3">
          <ellipse cx="24.28" cy="23.822" rx="24.28" ry="23.822" stroke="none"/>
          <ellipse cx="24.28" cy="23.822" rx="22.78" ry="22.322" fill="none"/>
        </g>
        <g id="894" data-name="894" transform="translate(8.246 8.246)" fill="#b276ed" stroke="#fff" stroke-width="3">
          <ellipse cx="18.325" cy="17.866" rx="18.325" ry="17.866" stroke="none"/>
          <ellipse cx="18.325" cy="17.866" rx="16.825" ry="16.366" fill="none"/>
        </g>
        <g id="902" data-name="902" transform="translate(0 0)" fill="#b276ed" stroke="#fff" stroke-width="3">
          <ellipse cx="26.112" cy="26.112" rx="26.112" ry="26.112" stroke="none"/>
          <ellipse cx="26.112" cy="26.112" rx="24.612" ry="24.612" fill="none"/>
        </g>
      </g>
    </g>
    <g id="Idle_Time" data-name="Idle Time" transform="translate(2638.649 -107.738)">
      <path id="a-2" data-name="a" d="M134.412,140.106a.769.769,0,0,1-.693-.427.794.794,0,0,1,.32-1.067l3.36-1.76a.787.787,0,1,1,.747,1.387l-3.36,1.76A.575.575,0,0,1,134.412,140.106Zm3.893,4.907a1,1,0,0,1-.427-.107.841.841,0,0,1-.267-1.12l2.027-3.2a.814.814,0,0,1,1.387.853L139,144.64A.777.777,0,0,1,138.306,145.013Zm5.867,2.293h0a.8.8,0,0,1-.8-.853l.16-3.787a.8.8,0,0,1,1.6.107l-.16,3.787A.855.855,0,0,1,144.172,147.306Zm6.187-.96a.769.769,0,0,1-.693-.427l-1.76-3.36a.787.787,0,0,1,1.387-.747l1.76,3.36a.794.794,0,0,1-.32,1.067A1.358,1.358,0,0,1,150.359,146.346Zm4.853-3.947a1,1,0,0,1-.427-.107l-3.2-2.027a.814.814,0,1,1,.853-1.387l3.2,2.027a.841.841,0,0,1,.267,1.12A.777.777,0,0,1,155.212,142.4Zm-8.64-7.467a.82.82,0,0,1-.8-.8V122.4a.8.8,0,0,1,1.6,0v11.68A.832.832,0,0,1,146.572,134.933Zm-4.213-7.413a.769.769,0,0,1-.693-.427l-1.76-3.36a.787.787,0,1,1,1.387-.747l1.76,3.36a.794.794,0,0,1-.32,1.067A.45.45,0,0,1,142.359,127.52Zm-3.413,2.613a1,1,0,0,1-.427-.107l-3.2-2.027a.814.814,0,0,1,.853-1.387l3.2,2.027a.841.841,0,0,1,.267,1.12A1.126,1.126,0,0,1,138.945,130.133Zm-1.707,3.947h0l-3.84-.16a.8.8,0,1,1,.107-1.6l3.787.16a.759.759,0,0,1,.747.853A.811.811,0,0,1,137.239,134.08Z" transform="translate(-132.647 -121.6)" fill="#fff" stroke="#fff" stroke-width="0.6"/>
      <path id="a-3" data-name="a" d="M538.026,475.2H527.2a.8.8,0,0,1,0-1.6h10.826a.82.82,0,0,1,.8.8A.786.786,0,0,1,538.026,475.2Z" transform="translate(-513.275 -461.867)" fill="#fff" stroke="#fff" stroke-width="0.6"/>
    </g>
  </g>
</svg>
