<svg xmlns="http://www.w3.org/2000/svg" width="17.598" height="13.28" viewBox="0 0 17.598 13.28">
  <g id="On_road" data-name="On road" transform="translate(-199 -113.507)">
    <path id="a" d="M65.234,197.3h.429l.128-.433H64.617a.617.617,0,1,1,0-1.234h1.539l.686-2.324A2.153,2.153,0,0,1,68.8,192H77a2.159,2.159,0,0,1,1.968,1.352l.674,2.285h1.34a.617.617,0,0,1,0,1.234h-.976l.128.433h.231a1.235,1.235,0,0,1,1.234,1.234v5.455h-.985v.671a.617.617,0,1,1-1.234,0v-.671H66.067v.671a.617.617,0,1,1-1.234,0v-.671H64v-5.455A1.236,1.236,0,0,1,65.234,197.3Zm15.13,5.454v-2.023H78.942a1.241,1.241,0,0,1-1.154-.8l-.464-1.228a.6.6,0,0,1-.028-.17H68.611a.6.6,0,0,1-.028.17l-.464,1.227a1.239,1.239,0,0,1-1.154.8h-1.73v2.023ZM65.234,199.5h1.73l.363-.963H65.234Zm13.385-2.971a.6.6,0,0,1-.054-.184L77.8,193.74a.944.944,0,0,0-.8-.506H68.8a.956.956,0,0,0-.785.466l-1.062,3.6h11.9Zm-.041,2.008.364.964h1.423v-.964Z" transform="translate(135 -78.493)" fill="#fff"/>
    <path id="a-2" data-name="a" d="M394.729,626.24h3.637a.617.617,0,0,1,0,1.234h-3.637a.617.617,0,0,1,0-1.234Z" transform="translate(-188.748 -504.362)" fill="#fff"/>
  </g>
</svg>
