<svg xmlns="http://www.w3.org/2000/svg" width="15.741" height="18.411" viewBox="0 0 15.741 18.411">
  <g id="Out_Of_Service" data-name="Out Of Service" transform="translate(-174.259 -83.438)">
    <path id="a" d="M136.712,70.566A5.364,5.364,0,0,0,131.35,65.2v0a5.351,5.351,0,0,0-2.62,10.026,7.724,7.724,0,0,0-5.13,7.193v.107c0,.191.043.372.058.563h.012a.583.583,0,0,0,1.159,0h.018c-.016-.2-.06-.394-.06-.6a6.555,6.555,0,0,1,6.556-6.56l.6-.06A5.346,5.346,0,0,0,136.712,70.566Zm-9.537,0a4.175,4.175,0,1,1,4.175,4.175A4.176,4.176,0,0,1,127.175,70.566Z" transform="translate(50.659 18.238)" fill="#fff"/>
    <path id="a-2" data-name="a" d="M320.757,247.01a.454.454,0,0,0-.444.444v3.306a.454.454,0,0,0,.444.444.465.465,0,0,0,.444-.444v-3.306A.454.454,0,0,0,320.757,247.01Zm-2.112,0a.454.454,0,0,0-.444.444v3.306a.454.454,0,0,0,.444.444.465.465,0,0,0,.444-.444v-3.306A.435.435,0,0,0,318.645,247.01Z" transform="translate(-133.37 -150.909)" fill="#fff"/>
    <path id="a-3" data-name="a" d="M3.62.5A3.12,3.12,0,1,0,6.74,3.62,3.124,3.124,0,0,0,3.62.5m0-.5A3.62,3.62,0,1,1,0,3.62,3.62,3.62,0,0,1,3.62,0Z" transform="translate(182.76 94.518)" fill="#fff"/>
  </g>
</svg>
