<svg xmlns="http://www.w3.org/2000/svg" xmlns:xlink="http://www.w3.org/1999/xlink" width="101.734" height="119.438" viewBox="0 0 101.734 119.438">
  <defs>
    <filter id="8885" x="0" y="0" width="101.734" height="119.438" filterUnits="userSpaceOnUse">
      <feOffset dy="6" input="SourceAlpha"/>
      <feGaussianBlur stdDeviation="6" result="blur"/>
      <feFlood flood-color="#020000" flood-opacity="0.161"/>
      <feComposite operator="in" in2="blur"/>
      <feComposite in="SourceGraphic"/>
    </filter>
    <clipPath id="clip-path">
      <path id="6616" data-name="6616" d="M985.191,12708.772h0l4.166,2.345.658-2.037,1.056-5.608h-1.714l-3.189,2.888-.6,1.574" transform="translate(-985.191 -12703.472)" fill="none" stroke="#fff" stroke-width="1"/>
    </clipPath>
  </defs>
  <g id="a" transform="translate(-2443.546 139.527)">
    <g id="11060" data-name="11060" transform="translate(2461.946 -127.127)">
      <g transform="matrix(1, 0, 0, 1, -18.4, -12.4)" filter="url(#8885)">
        <path id="8885-2" data-name="8885" d="M192.432,63.989a32.5,32.5,0,0,0-32.459,32.459c0,17.276,29.1,47.959,30.333,49.259a2.952,2.952,0,0,0,2.142.92h.063a2.855,2.855,0,0,0,2.158-1.015l10.074-11.534c13.39-16.388,20.164-29.048,20.164-37.615A32.506,32.506,0,0,0,192.432,63.989Z" transform="translate(-141.57 -51.59)" fill="#7488f4" stroke="#1d39d5" stroke-width="0.8"/>
      </g>
      <g id="11162" data-name="11162" transform="translate(6.413 6.237)">
        <g id="886" data-name="886" transform="translate(1.832 1.832)" fill="#7488f4" stroke="#fff" stroke-width="3">
          <ellipse cx="24.28" cy="23.822" rx="24.28" ry="23.822" stroke="none"/>
          <ellipse cx="24.28" cy="23.822" rx="22.78" ry="22.322" fill="none"/>
        </g>
        <g id="894" data-name="894" transform="translate(8.246 8.246)" fill="#7488f4" stroke="#fff" stroke-width="3">
          <ellipse cx="18.325" cy="17.866" rx="18.325" ry="17.866" stroke="none"/>
          <ellipse cx="18.325" cy="17.866" rx="16.825" ry="16.366" fill="none"/>
        </g>
        <g id="902" data-name="902" transform="translate(0 0)" fill="#7488f4" stroke="#fff" stroke-width="3">
          <ellipse cx="26.112" cy="26.112" rx="26.112" ry="26.112" stroke="none"/>
          <ellipse cx="26.112" cy="26.112" rx="24.612" ry="24.612" fill="none"/>
        </g>
      </g>
    </g>
    <g id="Rapid_Acc" data-name="Rapid Acc" transform="translate(2477.076 -111.283)">
      <g id="a-2" data-name="a">
        <path id="a-3" data-name="a" d="M28.664,26.6H23.759a1.146,1.146,0,0,1,0-2.291h6.875a1.112,1.112,0,0,1,.183.015q.273-.529.508-1.08a15.2,15.2,0,0,0-8.081-19.9,15.205,15.205,0,0,0-19.9,8.08,15.244,15.244,0,0,0,0,11.817q.232.544.5,1.066h6.929a1.146,1.146,0,0,1,0,2.291H2.984a.537.537,0,0,1-.461-.259A17.257,17.257,0,0,1,0,17.362a17.337,17.337,0,1,1,33.12,7.152,17.6,17.6,0,0,1-.968,1.826.538.538,0,0,1-.461.259Z" transform="translate(0 0)" fill="#fff" stroke="#fff" stroke-width="0.4"/>
        <g id="a-4" data-name="a" transform="translate(11.168 7.05)">
          <g id="a-5" data-name="a" transform="translate(0 3.518)" fill="none">
            <path d="M5.792,0A5.792,5.792,0,1,1,0,5.792,5.792,5.792,0,0,1,5.792,0Z" stroke="none"/>
            <path d="M 5.79176664352417 2.199995040893555 C 3.811256408691406 2.199995040893555 2.199996948242188 3.811244487762451 2.199996948242188 5.79173469543457 C 2.199996948242188 7.772224426269531 3.811256408691406 9.383464813232422 5.79176664352417 9.383464813232422 C 7.772276878356934 9.383464813232422 9.383536338806152 7.772224426269531 9.383536338806152 5.79173469543457 C 9.383536338806152 3.811244487762451 7.772276878356934 2.199995040893555 5.79176664352417 2.199995040893555 M 5.79176664352417 -5.7220458984375e-06 C 8.990476608276367 -5.7220458984375e-06 11.58353710174561 2.593044281005859 11.58353710174561 5.79173469543457 C 11.58353710174561 8.990425109863281 8.990476608276367 11.58346462249756 5.79176664352417 11.58346462249756 C 2.593066215515137 11.58346462249756 -3.814697265625e-06 8.990425109863281 -3.814697265625e-06 5.79173469543457 C -3.814697265625e-06 2.593044281005859 2.593066215515137 -5.7220458984375e-06 5.79176664352417 -5.7220458984375e-06 Z" stroke="none" fill="#fff"/>
          </g>
          <g id="a-6" data-name="a" transform="translate(6.457)" clip-path="url(#clip-path)">
            <path id="6612" data-name="6612" d="M937.85,14422.579l1.832-5.806-4.58,4.155Z" transform="translate(-935.102 -14414.911)" fill="#fff" stroke="#fff" stroke-linejoin="round" stroke-width="1.2"/>
          </g>
        </g>
      </g>
    </g>
  </g>
</svg>
