<svg xmlns="http://www.w3.org/2000/svg" xmlns:xlink="http://www.w3.org/1999/xlink" width="39.651" height="30.513" viewBox="0 0 39.651 30.513">
  <defs>
    <clipPath id="clip-path">
      <path id="6616" data-name="6616" d="M985.191,12709.472h0l4.716,2.654.745-2.306,1.2-6.349h-1.94l-3.609,3.269-.676,1.782" transform="translate(-985.191 -12703.472)" fill="none" stroke="#272a33" stroke-width="1"/>
    </clipPath>
  </defs>
  <g id="Rapid_Acc" data-name="Rapid Acc" transform="translate(-890.172 -13998.982)">
    <path id="a" d="M32.448,30.11H26.9a1.3,1.3,0,0,1,0-2.595h7.782a1.311,1.311,0,0,1,.207.016q.311-.6.574-1.222a17.222,17.222,0,0,0,0-13.377A17.192,17.192,0,0,0,3.785,26.309q.262.616.567,1.207H12.2a1.3,1.3,0,0,1,0,2.594H3.377a.609.609,0,0,1-.521-.293,19.625,19.625,0,1,1,36.4-10.194,19.572,19.572,0,0,1-1.759,8.126,19.811,19.811,0,0,1-1.1,2.068.612.612,0,0,1-.522.293Z" transform="translate(890.372 13999.186)" fill="#ffffff" stroke="#ffffff" stroke-width="0.4"/>
    <g id="a-2" data-name="a" transform="translate(0.127 -1)">
      <g id="a-3" data-name="a" transform="translate(902.887 14012.146)" fill="none">
        <path d="M6.556,0A6.556,6.556,0,1,1,0,6.556,6.556,6.556,0,0,1,6.556,0Z" stroke="none"/>
        <path d="M 6.556353092193604 2.20000171661377 C 4.154253005981445 2.20000171661377 2.200002670288086 4.154241561889648 2.200002670288086 6.556321620941162 C 2.200002670288086 8.958401679992676 4.154253005981445 10.91264152526855 6.556353092193604 10.91264152526855 C 8.958453178405762 10.91264152526855 10.9127025604248 8.958401679992676 10.9127025604248 6.556321620941162 C 10.9127025604248 4.154241561889648 8.958453178405762 2.20000171661377 6.556353092193604 2.20000171661377 M 6.556353092193604 1.9073486328125e-06 C 10.17732334136963 1.9073486328125e-06 13.11270332336426 2.935361862182617 13.11270332336426 6.556321620941162 C 13.11270332336426 10.17728137969971 10.17732334136963 13.11264133453369 6.556353092193604 13.11264133453369 C 2.935382843017578 13.11264133453369 2.86102294921875e-06 10.17728137969971 2.86102294921875e-06 6.556321620941162 C 2.86102294921875e-06 2.935361862182617 2.935382843017578 1.9073486328125e-06 6.556353092193604 1.9073486328125e-06 Z" stroke="none" fill="#ffffff"/>
      </g>
      <g id="a-4" data-name="a" transform="translate(910.197 14008.163)" clip-path="url(#clip-path)">
        <path id="6612" data-name="6612" d="M938.213,14423.346l2.074-6.572-5.185,4.7Z" transform="translate(-935.102 -14414.665)" fill="#ffffff" stroke="#ffffff" stroke-linejoin="round" stroke-width="1.2"/>
      </g>
    </g>
  </g>
</svg>
