<svg xmlns="http://www.w3.org/2000/svg" width="24.076" height="24.131" viewBox="0 0 24.076 24.131">
  <g id="Speeding" transform="translate(-136.3 -121.309)">
    <path id="a" d="M159.48,122.2c-2.291-2.291-7.989-.053-13.252,5.21-.72.72-1.384,1.461-2,2.208l-.006-.022-7.236,2.19,4.163,4.163,4.58,4.586,4.163,4.163,2.19-7.239-.019-.006c.747-.615,1.489-1.282,2.208-2C159.533,130.2,161.772,124.5,159.48,122.2Zm-16.828,9.533a20.758,20.758,0,0,0-1.288,2.186l-1.38-1.38Zm6.488,9.966-1.38-1.38a20.441,20.441,0,0,0,2.186-1.288Zm-2.569-2.569-4.021-4.021a23.773,23.773,0,0,1,4.8-6.575c4.777-4.777,9.635-6.578,11.006-5.21s-.432,6.229-5.21,11.006A24.163,24.163,0,0,1,146.571,139.134Zm-3.641-.318a2.648,2.648,0,0,0-.278-.247,2.911,2.911,0,0,0-2.579-.522,3.186,3.186,0,0,0-2.134,1.868l-1.64,5.525,5.451-1.612.074-.028a3.186,3.186,0,0,0,1.868-2.134,2.916,2.916,0,0,0-.522-2.576A2.6,2.6,0,0,0,142.93,138.816Zm-.772,2.446a1.592,1.592,0,0,1-.9,1.053l-2.606.772.772-2.6a1.592,1.592,0,0,1,1.053-.9,1.344,1.344,0,0,1,1.189.232,1.293,1.293,0,0,1,.139.127,1.649,1.649,0,0,1,.12.136A1.329,1.329,0,0,1,142.158,141.262Z" transform="translate(0 0)" fill="#999999"/>
    <path id="a-2" data-name="a" d="M538.726,330.451a2.826,2.826,0,1,1,2-.828A2.8,2.8,0,0,1,538.726,330.451Zm0-4.064a1.233,1.233,0,0,0-1.235,1.235,1.244,1.244,0,0,0,.361.877,1.271,1.271,0,0,0,1.751,0,1.237,1.237,0,0,0-.877-2.112Z" transform="translate(-387.259 -197.207)" fill="#999999"/>
  </g>
</svg>
