<svg xmlns="http://www.w3.org/2000/svg" xmlns:xlink="http://www.w3.org/1999/xlink" width="101.734" height="119.438" viewBox="0 0 101.734 119.438">
  <defs>
    <filter id="8885" x="0" y="0" width="101.734" height="119.438" filterUnits="userSpaceOnUse">
      <feOffset dy="6" input="SourceAlpha"/>
      <feGaussianBlur stdDeviation="6" result="blur"/>
      <feFlood flood-color="#020000" flood-opacity="0.161"/>
      <feComposite operator="in" in2="blur"/>
      <feComposite in="SourceGraphic"/>
    </filter>
  </defs>
  <g id="a" transform="translate(-2520.4 139.527)">
    <g id="11061" data-name="11061" transform="translate(2538.8 -127.127)">
      <g transform="matrix(1, 0, 0, 1, -18.4, -12.4)" filter="url(#8885)">
        <path id="8885-2" data-name="8885" d="M192.432,63.989a32.5,32.5,0,0,0-32.459,32.459c0,17.276,29.1,47.959,30.333,49.259a2.952,2.952,0,0,0,2.142.92h.063a2.855,2.855,0,0,0,2.158-1.015l10.074-11.534c13.39-16.388,20.164-29.048,20.164-37.615A32.506,32.506,0,0,0,192.432,63.989Z" transform="translate(-141.57 -51.59)" fill="#b69e22" stroke="#836d00" stroke-width="0.8"/>
      </g>
      <g id="11162" data-name="11162" transform="translate(6.413 6.237)">
        <g id="886" data-name="886" transform="translate(1.832 1.832)" fill="#b69e22" stroke="#fff" stroke-width="3">
          <ellipse cx="24.28" cy="23.822" rx="24.28" ry="23.822" stroke="none"/>
          <ellipse cx="24.28" cy="23.822" rx="22.78" ry="22.322" fill="none"/>
        </g>
        <g id="894" data-name="894" transform="translate(8.246 8.246)" fill="#b69e22" stroke="#fff" stroke-width="3">
          <ellipse cx="18.325" cy="17.866" rx="18.325" ry="17.866" stroke="none"/>
          <ellipse cx="18.325" cy="17.866" rx="16.825" ry="16.366" fill="none"/>
        </g>
        <g id="902" data-name="902" transform="translate(0 0)" fill="#b69e22" stroke="#fff" stroke-width="3">
          <ellipse cx="26.112" cy="26.112" rx="26.112" ry="26.112" stroke="none"/>
          <ellipse cx="26.112" cy="26.112" rx="24.612" ry="24.612" fill="none"/>
        </g>
      </g>
    </g>
    <g id="Speeding" transform="translate(2558.443 -107.738)">
      <path id="a-2" data-name="a" d="M160.993,122.263c-2.441-2.441-8.511-.056-14.117,5.55-.767.767-1.474,1.556-2.132,2.352l-.007-.023-7.708,2.332,4.435,4.435,4.879,4.885,4.435,4.435,2.332-7.711-.02-.007c.8-.655,1.586-1.365,2.352-2.132C161.049,130.776,163.434,124.707,160.993,122.263Zm-17.926,10.156a22.114,22.114,0,0,0-1.372,2.329l-1.471-1.471Zm6.912,10.616-1.471-1.471a21.772,21.772,0,0,0,2.329-1.372Zm-2.737-2.737-4.283-4.283a25.325,25.325,0,0,1,5.116-7c5.089-5.089,10.264-7.007,11.725-5.55s-.461,6.636-5.55,11.725A25.74,25.74,0,0,1,147.242,140.3Zm-3.879-.339a2.82,2.82,0,0,0-.3-.263,3.1,3.1,0,0,0-2.747-.556,3.394,3.394,0,0,0-2.273,1.99l-1.747,5.885,5.807-1.717.079-.03a3.394,3.394,0,0,0,1.99-2.273,3.107,3.107,0,0,0-.556-2.744A2.769,2.769,0,0,0,143.363,139.958Zm-.822,2.606a1.7,1.7,0,0,1-.957,1.122l-2.777.822.822-2.773a1.7,1.7,0,0,1,1.122-.957,1.431,1.431,0,0,1,1.267.247,1.375,1.375,0,0,1,.148.135,1.753,1.753,0,0,1,.128.145A1.416,1.416,0,0,1,142.541,142.564Z" transform="translate(-136.3 -121.309)" fill="#fff" stroke="#fff" stroke-width="0.4"/>
      <path id="a-3" data-name="a" d="M538.91,330.82a3.01,3.01,0,1,1,2.128-.882A2.985,2.985,0,0,1,538.91,330.82Zm0-4.329a1.319,1.319,0,0,0-.931,2.25,1.354,1.354,0,0,0,1.865,0,1.318,1.318,0,0,0-.934-2.25Z" transform="translate(-522.754 -318.105)" fill="#fff" stroke="#fff" stroke-width="0.4"/>
    </g>
  </g>
</svg>
