<svg id="Cover_image" data-name="Cover image" xmlns="http://www.w3.org/2000/svg" width="68" height="53" viewBox="0 0 68 53">
  <g id="a" transform="translate(11.996 7.859)">
    <path id="a-2" data-name="a" d="M95.963,182.014,90.48,177.9a2.362,2.362,0,0,0-2.82,0l-4.827,3.619L76.4,176.373a2.339,2.339,0,0,0-2.782-.117l-6.482,4.359V163.134h34.471v17.236a1.567,1.567,0,1,0,3.134,0V163a3.005,3.005,0,0,0-3-3H67a3.005,3.005,0,0,0-3,3v28.467a3.005,3.005,0,0,0,3,3H90.637a1.567,1.567,0,0,0,0-3.134h-23.5v-6.945l7.754-5.214,7.884,6.307,6.3-4.724,5.013,3.76a1.567,1.567,0,1,0,1.88-2.506Z" transform="translate(-64 -160)" fill="#1a8d4a"/>
    <path id="a-3" data-name="a" d="M576,292.7a4.7,4.7,0,1,0,4.7-4.7A4.706,4.706,0,0,0,576,292.7Zm6.268,0a1.567,1.567,0,1,1-1.567-1.567A1.569,1.569,0,0,1,582.268,292.7Zm10.968,18.8H590.1v-3.134a1.567,1.567,0,1,0-3.134,0V311.5h-3.134a1.567,1.567,0,0,0,0,3.134h3.134v3.134a1.567,1.567,0,1,0,3.134,0v-3.134h3.134a1.567,1.567,0,1,0,0-3.134Z" transform="translate(-550.93 -281.732)" fill="#1a8d4a"/>
  </g>
  <g id="a-4" data-name="a" fill="none" stroke="#1a8d4a" stroke-width="1" stroke-dasharray="2">
    <rect width="68" height="53" rx="4" stroke="none"/>
    <rect x="0.5" y="0.5" width="67" height="52" rx="3.5" fill="none"/>
  </g>
</svg>
