<svg xmlns="http://www.w3.org/2000/svg" width="54" height="54" viewBox="0 0 54 54">
  <g id="Image" transform="translate(1970 -7666)">
    <rect id="a" width="54" height="54" rx="5" transform="translate(-1970 7666)" fill="#1a8d4a"/>
    <g id="a-2" data-name="a" transform="translate(-2023.95 7551.471)">
      <path id="a-3" data-name="a" d="M96.738,157.1H65.213A1.213,1.213,0,0,1,64,155.888V129.213A1.213,1.213,0,0,1,65.213,128H96.738a1.213,1.213,0,0,1,1.213,1.213v4.428a1.213,1.213,0,0,1-2.425,0v-3.216h-29.1v24.25h29.1V140.9l-7.818,9.273a1.211,1.211,0,0,1-1.7.152l-7.429-6.167L71.2,150.991a1.212,1.212,0,1,1-1.647-1.779l8.155-7.552a1.214,1.214,0,0,1,1.6-.044l7.321,6.077L95.812,136.8a1.212,1.212,0,0,1,2.139.782v18.3A1.213,1.213,0,0,1,96.738,157.1Z" fill="#fff"/>
      <path id="a-4" data-name="a" d="M196.244,264.488a4.244,4.244,0,1,1,4.244-4.244A4.248,4.248,0,0,1,196.244,264.488Zm0-6.063a1.819,1.819,0,1,0,1.819,1.819A1.821,1.821,0,0,0,196.244,258.425Z" transform="translate(-123.15 -123.15)" fill="#fff"/>
    </g>
  </g>
</svg>
