<svg xmlns="http://www.w3.org/2000/svg" width="15.111" height="15.535" viewBox="0 0 15.111 15.535">
  <path id="View" d="M86.408,59.5H82.894a.6.6,0,0,0,0,1.2h2.915v2.915a.6.6,0,1,0,1.2,0V60.1A.6.6,0,0,0,86.408,59.5ZM72.5,64.217a.6.6,0,0,0,.6-.6V60.7h2.915a.6.6,0,0,0,0-1.2H72.5a.6.6,0,0,0-.6.6v3.515A.6.6,0,0,0,72.5,64.217Zm3.514,9.616H73.1V70.918a.6.6,0,0,0-1.2,0v3.515a.6.6,0,0,0,.6.6h3.515a.6.6,0,1,0,0-1.2Zm10.394-3.515a.6.6,0,0,0-.6.6v2.915H82.894a.6.6,0,0,0,0,1.2H86.41a.6.6,0,0,0,.6-.6V70.918A.6.6,0,0,0,86.408,70.318Zm-2.54,1.8a.6.6,0,0,0,.414-1.035L82.767,69.64A4.414,4.414,0,0,0,79.432,62.7c-.094-.005-.187-.009-.28-.009a4.412,4.412,0,0,0-.273,8.816c.094.005.187.009.28.009a4.391,4.391,0,0,0,2.791-1l1.5,1.433A.6.6,0,0,0,83.868,72.12Zm-1.509-4.811a3.209,3.209,0,0,1-3.2,3.009c-.069,0-.137,0-.206-.007a3.21,3.21,0,0,1,.2-6.415c.069,0,.137,0,.2.007a3.215,3.215,0,0,1,3.006,3.406Z" transform="translate(-71.9 -59.5)" fill="#19ad1d"/>
</svg>
