<?xml version="1.0" standalone="no"?><!DOCTYPE svg PUBLIC "-//W3C//DTD SVG 1.1//EN" "http://www.w3.org/Graphics/SVG/1.1/DTD/svg11.dtd"><svg t="1682601633285" class="icon" viewBox="0 0 1024 1024" version="1.1" xmlns="http://www.w3.org/2000/svg" p-id="14321" xmlns:xlink="http://www.w3.org/1999/xlink" width="64" height="64"><path d="M672.017067 188.347733h-320v7.850667a32.017067 32.017067 0 0 1-64.034134 0v-7.850667H128a31.982933 31.982933 0 0 0-32.017067 31.982934v97.1776h832V220.330667a31.982933 31.982933 0 0 0-31.982933-31.982934h-160.017067v7.850667a31.982933 31.982933 0 1 1-64 0v-7.850667z m64-64h159.982933a95.982933 95.982933 0 0 1 96.017067 95.982934V896a95.982933 95.982933 0 0 1-96.017067 96.017067H128A95.982933 95.982933 0 0 1 31.982933 896V220.330667A95.982933 95.982933 0 0 1 128 124.347733h160.017067v-29.013333a31.982933 31.982933 0 1 1 63.965866 0v29.013333h320.034134v-29.013333a31.982933 31.982933 0 1 1 64 0v29.013333z m192 257.160534H96.017067V896c0 17.681067 14.336 32.017067 31.982933 32.017067h768c17.681067 0 32.017067-14.336 32.017067-32.017067V381.508267z m-608.017067 162.474666a31.982933 31.982933 0 1 1 0 64.034134h-128a31.982933 31.982933 0 1 1 0-64h128z m256 0a31.982933 31.982933 0 1 1 0 64.034134h-128a31.982933 31.982933 0 1 1 0-64h128z m256 0a31.982933 31.982933 0 1 1 0 64.034134h-128a31.982933 31.982933 0 1 1 0-64h128z m-512 192.034134a31.982933 31.982933 0 1 1 0 64h-128a31.982933 31.982933 0 1 1 0-64h128z m256 0a31.982933 31.982933 0 1 1 0 64h-128a31.982933 31.982933 0 1 1 0-64h128z m256 0a31.982933 31.982933 0 1 1 0 64h-128a31.982933 31.982933 0 1 1 0-64h128z" fill="#1d6348" p-id="14322"></path></svg>