<svg id="color" xmlns="http://www.w3.org/2000/svg" width="37.031" height="37.031" viewBox="0 0 37.031 37.031">
  <path id="a" d="M0,0H37.031V37.031H0ZM1.331,1.331V35.7H35.7V1.331Z" fill="#ccc"/>
  <path id="a-2" data-name="a" d="M112.242,112.242h8.116v8.116h-8.116Z" transform="translate(-108.183 -108.183)" fill="#fcce72"/>
  <path id="a-3" data-name="a" d="M406.756,112.242h8.118v8.116h-8.118Z" transform="translate(-392.046 -108.183)" fill="#ea6161"/>
  <path id="a-4" data-name="a" d="M701.383,112.242H709.5v8.116h-8.116Z" transform="translate(-676.019 -108.183)" fill="#f36ac5"/>
  <path id="a-5" data-name="a" d="M112.242,406.756h8.116v8.118h-8.116Z" transform="translate(-108.183 -392.046)" fill="#caf86e"/>
  <path id="a-6" data-name="a" d="M406.756,406.756h8.118v8.118h-8.118Z" transform="translate(-392.046 -392.046)" fill="#f3f3f3"/>
  <path id="a-7" data-name="a" d="M701.383,406.756H709.5v8.118h-8.116Z" transform="translate(-676.019 -392.046)" fill="#ce72fc"/>
  <path id="a-8" data-name="a" d="M112.242,701.383h8.116V709.5h-8.116Z" transform="translate(-108.183 -676.019)" fill="#65df65"/>
  <path id="a-9" data-name="a" d="M406.756,701.383h8.118V709.5h-8.118Z" transform="translate(-392.046 -676.019)" fill="#6ac5f3"/>
  <path id="a-10" data-name="a" d="M701.383,701.383H709.5V709.5h-8.116Z" transform="translate(-676.019 -676.019)" fill="#5e5ee7"/>
</svg>
