<svg xmlns="http://www.w3.org/2000/svg" width="59.667" height="59.667" viewBox="0 0 59.667 59.667">
  <path id="Deactivate_" data-name="Deactivate " d="M50.946,8.721a29.918,29.918,0,0,0-42.226,0,29.918,29.918,0,0,0,0,42.226,29.918,29.918,0,0,0,42.226,0,29.918,29.918,0,0,0,0-42.226ZM29.833,55.077A25.468,25.468,0,0,1,4.59,29.833,25.468,25.468,0,0,1,29.833,4.59,25.468,25.468,0,0,1,55.077,29.833,25.468,25.468,0,0,1,29.833,55.077ZM24.785,21.572a2.272,2.272,0,0,0-3.213,3.213L34.423,37.636a2.272,2.272,0,0,0,3.213-3.213Z" fill="#0c2fc3"/>
</svg>
