<svg t="1698029153329" class="icon" viewBox="0 0 1024 1024" version="1.1" xmlns="http://www.w3.org/2000/svg" p-id="4055" width="32" height="32"><path d="M924 1024H100A100 100 0 0 1 0 924V638a40 40 0 0 1 80 0v286a20 20 0 0 0 20 20h824a20 20 0 0 0 20-20V638a40 40 0 0 1 80 0v286a100 100 0 0 1-100 100z" fill="#ffffff" p-id="4056"></path><path d="M512 788a40 40 0 0 1-28-12L212 504a40 40 0 0 1 57-57l243 244 244-243a40 40 0 0 1 57 57L540 776a40 40 0 0 1-28 12z" fill="#ffffff" p-id="4057"></path><path d="M512 771a40 40 0 0 1-40-40V40a40 40 0 0 1 80 0v691a40 40 0 0 1-40 40z" fill="#ffffff" p-id="4058"></path></svg>