<svg xmlns="http://www.w3.org/2000/svg" width="32.932" height="30.085" viewBox="0 0 32.932 30.085">
  <g id="keypress_transations" data-name="keypress  transations" transform="translate(0)">
    <path id="a" d="M33.172,72.171H17.063a.845.845,0,0,1-.895-.895v-11.1a.845.845,0,0,1,.895-.895H46.237a.845.845,0,0,1,.895.895v7.875a.895.895,0,1,1-1.79,0v-6.98H17.958v9.307H33.172a.845.845,0,0,1,.895.895A.959.959,0,0,1,33.172,72.171ZM25.117,88.1H17.063a.845.845,0,0,1-.895-.895v-11.1a.845.845,0,0,1,.895-.895H32.456a.895.895,0,0,1,0,1.79h-14.5v9.307h7.159a.845.845,0,0,1,.895.895.959.959,0,0,1-.895.895Z" transform="translate(-16.169 -59.284)" fill="#399062"/>
    <path id="a-2" data-name="a" d="M385.834,230.474a7.18,7.18,0,0,0-7.159,7.159,6.915,6.915,0,0,0,1.969,4.833l-2.327,2.864-1.969-1.611a.895.895,0,1,0-1.074,1.432l1.969,1.611-1.79,1.969-1.969-1.611a.895.895,0,0,0-1.074,1.432L375.1,250.7c.179.358.537.179.895-.179l3.043-3.58,2.864-3.222a7.342,7.342,0,0,0,3.938,1.253,7.18,7.18,0,0,0,7.159-7.159,7.336,7.336,0,0,0-7.159-7.338Zm0,12.529a5.369,5.369,0,1,1,5.369-5.369A5.274,5.274,0,0,1,385.834,243Zm-7.517-14.856h-5.548a.959.959,0,0,1-.895-.895.845.845,0,0,1,.895-.895h5.548a.895.895,0,0,1,0,1.79Z" transform="translate(-360.061 -220.809)" fill="#399062"/>
  </g>
</svg>
