<svg xmlns="http://www.w3.org/2000/svg" width="28" height="28" viewBox="0 0 28 28">
  <g id="keys" transform="translate(-518 -751)">
    <path id="a" d="M135.363,194.777l7.052-7.052a.987.987,0,1,1,1.4,1.4l-.7.7,1.745,1.745a.988.988,0,0,1-1.4,1.4l-1.746-1.746-1.4,1.4,1.4,1.4a.988.988,0,1,1-1.4,1.4l-1.4-1.4-2.164,2.164a4.946,4.946,0,1,1-1.4-1.4Zm.2,3.322a3.014,3.014,0,1,0-.831,2.893A2.962,2.962,0,0,0,135.566,198.1Z" transform="translate(395.579 569.369)" fill="#399062"/>
    <g id="a-2" data-name="a" transform="translate(518 751)" fill="none" stroke="#399062" stroke-width="1.7">
      <rect width="28" height="28" rx="3" stroke="none"/>
      <rect x="0.85" y="0.85" width="26.3" height="26.3" rx="2.15" fill="none"/>
    </g>
  </g>
</svg>
