<svg t="1691731517092" class="icon" viewBox="0 0 1370 1024" version="1.1" xmlns="http://www.w3.org/2000/svg" p-id="4110" width="200" height="200">
  <path d="M1190.414112 303.022712a45.159868 45.159868 0 0 1 45.159868-45.159867 45.159868 45.159868 0 0 0 45.159868-45.159868V45.159868a45.159868 45.159868 0 0 0-45.159868-45.159868H45.159868a45.159868 45.159868 0 0 0-45.159868 45.159868v933.680264a45.159868 45.159868 0 0 0 45.159868 45.159868h1189.736714a45.159868 45.159868 0 0 0 45.159868-45.159868v-167.543109a45.159868 45.159868 0 0 0-45.159868-45.159868 45.159868 45.159868 0 0 1-45.159868-45.159867zM915.390518 689.816979c-98.222712 17.386549-180.639471-95.964719-180.639471-95.964719a100.254906 100.254906 0 0 0-71.804189-36.353693H217.218964v-108.835281a45.159868 45.159868 0 0 1 45.159867-45.159868c24.837927 0 45.159868 14.225358 45.159868 31.837707s20.32194 31.837707 45.159868 31.837706h70.675193a45.159868 45.159868 0 0 0 45.159867-45.159867v-29.805513a45.159868 45.159868 0 0 1 45.159868-45.159868 45.159868 45.159868 0 0 1 45.159868 45.159868v29.579713a45.159868 45.159868 0 0 0 45.159867 45.159868h58.482029A94.835722 94.835722 0 0 0 732.718853 429.018743s65.481808-97.996913 149.704962-97.996913a180.639471 180.639471 0 0 1 32.966703 358.34355z" fill="#eeda97" p-id="4111"></path>
  <path d="M882.198015 512.1129m-90.319735 0a90.319735 90.319735 0 1 0 180.639471 0 90.319735 90.319735 0 1 0-180.639471 0Z" fill="#eeda97" p-id="4112"></path>
  <path d="M1324.990518 257.862845a45.159868 45.159868 0 0 0-45.159868 45.159867v417.954576a45.159868 45.159868 0 1 0 90.319736 0V303.022712a45.159868 45.159868 0 0 0-45.159868-45.159867z" fill="#eeda97" p-id="4113"></path>
</svg>
