<svg xmlns="http://www.w3.org/2000/svg" width="32.933" height="29.146" viewBox="0 0 32.933 29.146">
  <g id="Box_" data-name="Box " transform="translate(0)">
    <path id="a" d="M28.569,63.275H22.7a3.8,3.8,0,0,0-.484-2.126c-.879-1.5-2.816-2.272-5.759-2.293s-4.847.72-5.73,2.2a3.805,3.805,0,0,0-.492,2.215H4.364A4.368,4.368,0,0,0,0,67.639v16A4.37,4.37,0,0,0,4.364,88H28.569a4.37,4.37,0,0,0,4.364-4.366v-16A4.368,4.368,0,0,0,28.569,63.275ZM12.294,61.985c.525-.871,1.949-1.323,4.152-1.309,2.219.014,3.67.5,4.2,1.387a2.064,2.064,0,0,1,.243,1.212H12.057A2.125,2.125,0,0,1,12.294,61.985Zm18.58,21.651a2.309,2.309,0,0,1-2.305,2.307H4.364a2.309,2.309,0,0,1-2.305-2.307v-16a2.307,2.307,0,0,1,2.305-2.305H28.569a2.307,2.307,0,0,1,2.305,2.305Z" transform="translate(0 -58.855)" fill="#399062"/>
    <path id="a-2" data-name="a" d="M201.417,463.616a4.275,4.275,0,0,0-3.878,2.478H185.247l-.607,1.5,1.809,1.68,1.887-.607,1.552.887,2-1.385,1.739,1.239h3.789a4.277,4.277,0,1,0,4-5.79Zm.119,5.3a1.072,1.072,0,1,1,1.072-1.072A1.072,1.072,0,0,1,201.536,468.916Z" transform="translate(-178.702 -450.598)" fill="#399062"/>
  </g>
</svg>
