<svg xmlns="http://www.w3.org/2000/svg" width="27" height="29" viewBox="0 0 31.274 32.37">
  <g id="keypress_location" data-name="keypress location" transform="translate(-526.768 -708.289)">
    <g id="a" transform="translate(526.768 708.289)">
      <path id="a-2" data-name="a" d="M53.523,16.287,39.613,6.059a1.866,1.866,0,0,0-2.454,0L23.045,16.287a.989.989,0,0,0,0,1.432c.2.409.614.409,1.023.409V35.105a2.8,2.8,0,0,0,2.864,2.864h22.91A2.8,2.8,0,0,0,52.7,35.105V18.128a.747.747,0,0,0,1.023-.409.876.876,0,0,0-.2-1.432ZM50.864,35.105a.966.966,0,0,1-1.023,1.023H26.931a.966.966,0,0,1-1.023-1.023v-17.8a1.063,1.063,0,0,1,.409-.818L37.773,8.309a1.3,1.3,0,0,1,1.227,0l11.455,8.182a1.063,1.063,0,0,1,.409.818v17.8Z" transform="translate(-22.738 -5.599)" fill="#399062"/>
    </g>
    <path id="a-3" data-name="a" d="M134.547,194l6.3-6.3a.882.882,0,1,1,1.248,1.248l-.624.625,1.559,1.559a.883.883,0,0,1-1.248,1.249l-1.56-1.56-1.248,1.248,1.248,1.248a.883.883,0,1,1-1.248,1.249l-1.248-1.249-1.934,1.934A4.42,4.42,0,1,1,134.547,194Zm.182,2.969a2.694,2.694,0,1,0-.743,2.586A2.647,2.647,0,0,0,134.729,196.965Z" transform="translate(406.675 533.825)" fill="#399062"/>
  </g>
</svg>
