<svg xmlns="http://www.w3.org/2000/svg" width="26.904" height="28.146" viewBox="0 0 26.904 28.146">
  <g id="Unit" transform="translate(0 -1)">
    <path id="a" d="M237.735,498.775H218.453v-.022a1.761,1.761,0,0,1,1.771-1.771h15.739A1.766,1.766,0,0,1,237.735,498.775Z" transform="translate(-214.642 -482.901)" fill="#399062"/>
    <path id="a-2" data-name="a" d="M229,337.811v5.807H227.2v-5.807Zm-10.545,12.133v-5.157a1.775,1.775,0,0,1,1.771-1.771h.022v6.905h-1.794Zm19.281,0v-5.157a1.775,1.775,0,0,0-1.771-1.771h-.022v6.905h1.794Z" transform="translate(-214.642 -328.958)" fill="#399062"/>
    <path id="a-3" data-name="a" d="M115.852,69.267a4.708,4.708,0,1,0,4.708,4.708A4.708,4.708,0,0,0,115.852,69.267Zm0,7.623a2.915,2.915,0,1,1,2.915-2.915A2.909,2.909,0,0,1,115.852,76.89ZM107.108,88a4.708,4.708,0,1,0,4.708,4.708A4.708,4.708,0,0,0,107.108,88Zm0,7.623a2.915,2.915,0,1,1,2.915-2.915A2.909,2.909,0,0,1,107.108,95.619ZM124.6,88A4.708,4.708,0,1,0,129.3,92.7,4.708,4.708,0,0,0,124.6,88Zm0,7.623A2.915,2.915,0,1,1,127.51,92.7,2.909,2.909,0,0,1,124.6,95.619Z" transform="translate(-102.4 -68.267)" fill="#399062"/>
  </g>
</svg>
