<svg xmlns="http://www.w3.org/2000/svg" width="65.515" height="61.667" viewBox="0 0 65.515 61.667">
  <g id="Mark_Leave" data-name="Mark Leave" transform="translate(-33.633 -62.135)">
    <path id="z" d="M63.165,120.7a29.032,29.032,0,1,1,26.566-40.76,28.312,28.312,0,0,1,2.051,6.832,1.729,1.729,0,0,1-3.41.576,25.575,25.575,0,1,0-25.207,29.9,1.728,1.728,0,1,1,0,3.456Z" transform="translate(0 0)" fill="#e57200" stroke="#e5721f" stroke-width="1"/>
    <path id="z-2" data-name="z" d="M273.514,322.127a1.725,1.725,0,0,1-.415-3.4l10.749-2.707V305.515a1.728,1.728,0,0,1,3.456,0v11.843a1.739,1.739,0,0,1-1.3,1.682l-12.062,3.03A1.405,1.405,0,0,1,273.514,322.127Z" transform="translate(-221.616 -224.874)" fill="#e57200" stroke="#e5721f" stroke-width="1"/>
    <path id="z-3" data-name="z" d="M541.321,528.488a15.668,15.668,0,1,1,15.668-15.668A15.684,15.684,0,0,1,541.321,528.488Zm0-27.88a12.212,12.212,0,1,0,12.212,12.212A12.226,12.226,0,0,0,541.321,500.608Z" transform="translate(-458.341 -405.186)" fill="#e57200" stroke="#e5721f" stroke-width="1"/>
    <path id="a" d="M694.472,707.115H688.32a1.728,1.728,0,0,1,0-3.456h6.152a1.728,1.728,0,0,1,0,3.456Z" transform="translate(-608.416 -597.753)" fill="#e57200" stroke="#e5721f" stroke-width="1"/>
  </g>
</svg>
