<?xml version="1.0" standalone="no"?><!DOCTYPE svg PUBLIC "-//W3C//DTD SVG 1.1//EN" "http://www.w3.org/Graphics/SVG/1.1/DTD/svg11.dtd"><svg t="1693280986129" class="icon" viewBox="0 0 1024 1024" version="1.1" xmlns="http://www.w3.org/2000/svg" p-id="13934" xmlns:xlink="http://www.w3.org/1999/xlink" width="200" height="200"><path d="M524.8 853.333333h-26.88a454.4 454.4 0 0 1-348.16-160.853333 273.493333 273.493333 0 0 1-4.266667-348.586667L149.333333 341.333333a453.12 453.12 0 0 1 354.133334-170.666666h16.213333a453.12 453.12 0 0 1 354.133333 170.666666l3.413334 3.84a274.773333 274.773333 0 0 1-3.84 349.013334A455.68 455.68 0 0 1 524.8 853.333333z m-21.333333-597.333333a368.64 368.64 0 0 0-288 136.96L213.333333 397.653333a188.16 188.16 0 0 0 0 239.786667A370.346667 370.346667 0 0 0 497.92 768h26.88a370.346667 370.346667 0 0 0 283.306667-130.986667A188.586667 188.586667 0 0 0 810.666667 396.8l-2.986667-3.84A368.64 368.64 0 0 0 519.68 256z" p-id="13935" fill="#2c2c2c"></path><path d="M512 640a128 128 0 1 1 128-128 128 128 0 0 1-128 128z m0-170.666667a42.666667 42.666667 0 1 0 42.666667 42.666667 42.666667 42.666667 0 0 0-42.666667-42.666667z" p-id="13936" fill="#2c2c2c"></path><path d="M128 938.666667a42.666667 42.666667 0 0 1-30.293333-12.373334 42.666667 42.666667 0 0 1 0-60.586666l768-768a42.666667 42.666667 0 1 1 60.586666 60.586666l-768 768A42.666667 42.666667 0 0 1 128 938.666667z" p-id="13937" fill="#2c2c2c"></path></svg>