<svg xmlns="http://www.w3.org/2000/svg" width="51.43" height="62.545" viewBox="0 0 51.43 62.545">
  <g id="Reset" transform="translate(-98.497 -9.182)">
    <path id="z" d="M124.069,57.224a.772.772,0,0,0-1.287.566v5.193a22.728,22.728,0,0,1-21.43-22.469,22.478,22.478,0,0,1,12.575-20.081,1.22,1.22,0,0,0,.566-1.822,1.271,1.271,0,0,0-1.853-.566A24.917,24.917,0,0,0,98.5,40.52a25.344,25.344,0,0,0,24.285,25.137v5.336a.79.79,0,0,0,1.281.566l6.294-6.182a1.346,1.346,0,0,0,.05-1.922l-.05-.05-6.287-6.182Zm1.573-41.834V9.917a.79.79,0,0,0-1.281-.566l-6.294,6.182a1.341,1.341,0,0,0-.044,1.922.27.27,0,0,0,.044.037l6.294,6.182a.771.771,0,0,0,1.281-.566V18.194A22.337,22.337,0,0,1,134.5,60.6a1.226,1.226,0,0,0-.572,1.822,1.644,1.644,0,0,0,1.281.846c.286,0,.435,0,.572-.137A25.146,25.146,0,0,0,125.643,15.39Z" fill="#44af36"/>
    <path id="a" d="M315.918,306.074a2.6,2.6,0,0,1-.031.864,4.813,4.813,0,0,1-.3,1.032,4.359,4.359,0,0,1-.5.939,1.876,1.876,0,0,1-.653.6,1.393,1.393,0,0,1-.628.18,1.687,1.687,0,0,1-.591-.118q-.3-.084-.746-.168a3.693,3.693,0,0,0-.908-.031,4.416,4.416,0,0,0-.92.193,1.792,1.792,0,0,0-.79.51,2.94,2.94,0,0,0-.84,1.7,3.385,3.385,0,0,0,.267,1.822,1.14,1.14,0,0,1-.087,1.194,2.194,2.194,0,0,1-.566.491,6.881,6.881,0,0,1-.852.466,4.948,4.948,0,0,1-.97.33,3.857,3.857,0,0,1-.9.118.739.739,0,0,1-.5-.211,1.259,1.259,0,0,1-.33-.448h-.031a3.681,3.681,0,0,0-1.119-1.6,2.75,2.75,0,0,0-1.835-.672,2.821,2.821,0,0,0-1.835.672,3.673,3.673,0,0,0-1.15,1.567,1.011,1.011,0,0,1-.448.522,1.272,1.272,0,0,1-.653.162,3.444,3.444,0,0,1-.939-.149,8.767,8.767,0,0,1-1.045-.373,5.028,5.028,0,0,1-.939-.522,2.654,2.654,0,0,1-.628-.6.949.949,0,0,1-.168-.491,1.743,1.743,0,0,1,.224-.79,3,3,0,0,0,.255-1.567,2.726,2.726,0,0,0-.759-1.623,1.972,1.972,0,0,0-1.014-.585,4.025,4.025,0,0,0-1.132-.106,4.792,4.792,0,0,0-1.281.243,1.21,1.21,0,0,1-.833-.062,1.308,1.308,0,0,1-.609-.547,6.925,6.925,0,0,1-.51-.958,5.857,5.857,0,0,1-.342-1.076,2.368,2.368,0,0,1-.056-.908.915.915,0,0,1,.6-.833,4.27,4.27,0,0,0,1.611-1.182,2.71,2.71,0,0,0,.715-1.835,2.6,2.6,0,0,0-.715-1.822,4.5,4.5,0,0,0-1.611-1.138.8.8,0,0,1-.442-.429,1.534,1.534,0,0,1-.18-.7,3.5,3.5,0,0,1,.118-.864,6.757,6.757,0,0,1,.311-.927,5.158,5.158,0,0,1,.448-.821,1.87,1.87,0,0,1,.553-.553.71.71,0,0,1,.466-.118,2.424,2.424,0,0,1,.491.118,3.6,3.6,0,0,0,1.866.224,3.01,3.01,0,0,0,1.716-.852,2.211,2.211,0,0,0,.522-.883,5.164,5.164,0,0,0,.211-1.032,4.6,4.6,0,0,0,0-.927q-.047-.42-.075-.6a4.028,4.028,0,0,1-.106-.417.617.617,0,0,1,.044-.417,1.646,1.646,0,0,1,.641-.728,4.637,4.637,0,0,1,1-.522,6.832,6.832,0,0,1,1.045-.317,4.3,4.3,0,0,1,.8-.106.759.759,0,0,1,.609.255,1.59,1.59,0,0,1,.311.522,3.6,3.6,0,0,0,1.076,1.418,2.676,2.676,0,0,0,1.76.616,3.041,3.041,0,0,0,1.847-.585,3.143,3.143,0,0,0,1.132-1.48,1.937,1.937,0,0,1,.373-.491.745.745,0,0,1,.522-.255,3.834,3.834,0,0,1,.908.118,5.578,5.578,0,0,1,.97.33,3.64,3.64,0,0,1,.883.535,2.869,2.869,0,0,1,.641.715.671.671,0,0,1,.087.522,1.933,1.933,0,0,1-.118.4,3.2,3.2,0,0,0-.243,1.822,3.009,3.009,0,0,0,.864,1.673,2.671,2.671,0,0,0,1.76.79,3.848,3.848,0,0,0,1.94-.342.872.872,0,0,1,.578-.118.9.9,0,0,1,.578.267,3.559,3.559,0,0,1,.79,1.269,7.169,7.169,0,0,1,.46,1.716,1.049,1.049,0,0,1-.162.79,1.146,1.146,0,0,1-.466.373,3.518,3.518,0,0,0-1.58,1.151,2.916,2.916,0,0,0-.653,1.866,3,3,0,0,0,.547,1.779,3.065,3.065,0,0,0,1.443,1.088,3.305,3.305,0,0,1,.361.236A1.318,1.318,0,0,1,315.918,306.074Zm-13.849,2.68a6.468,6.468,0,0,0,4.6-1.909,6.682,6.682,0,0,0,1.387-2.077,6.549,6.549,0,0,0,0-5.037,6.5,6.5,0,0,0-5.989-3.955,6.246,6.246,0,0,0-2.519.51,6.5,6.5,0,0,0-3.439,3.445,6.353,6.353,0,0,0-.51,2.519,6.246,6.246,0,0,0,.51,2.519,6.831,6.831,0,0,0,1.387,2.077,6.359,6.359,0,0,0,2.058,1.4A6.173,6.173,0,0,0,302.068,308.754Zm0,0" transform="translate(-177.906 -261.854)" fill="#44af36"/>
  </g>
</svg>
