<svg xmlns="http://www.w3.org/2000/svg" width="67.789" height="62.205" viewBox="0 0 67.789 62.205">
  <g id="jiaohuan" transform="translate(-1306.587 -655.812)">
    <path id="z" d="M365.073,290.856a.5.5,0,0,0-.7.7l6.7,6.7H353.539a.507.507,0,1,0,0,1.013h17.536l-6.742,6.7a.58.58,0,0,0-.156.351.423.423,0,0,0,.156.351.7.7,0,0,0,.351.156.423.423,0,0,0,.351-.156l7.56-7.56a.494.494,0,0,0,0-.7Z" transform="translate(975.441 379.556)" fill="#009f4f" stroke="#169f4f" stroke-linecap="round" stroke-width="0.3"/>
    <path id="z-2" data-name="z" d="M364.723,289.51a1.685,1.685,0,0,1,1.2.5l7.523,7.562a1.68,1.68,0,0,1,.347.5l.054.137a1.707,1.707,0,0,1,0,1.121l-.051.129a1.688,1.688,0,0,1-.349.506l-7.51,7.51a1.624,1.624,0,0,1-1.249.557,1.794,1.794,0,0,1-1.017-.358,1.6,1.6,0,0,1-.69-1.349,1.768,1.768,0,0,1,.507-1.2l4.681-4.654H353.539a1.707,1.707,0,1,1,0-3.413h14.639l-4.654-4.654a1.7,1.7,0,0,1,1.2-2.9Z" transform="translate(975.441 379.556)" fill="#169f4f" stroke="#169f4f" stroke-linecap="round" stroke-width="0.3"/>
    <path id="z-3" data-name="z" d="M136.328,148.921a22.392,22.392,0,0,0-6.469-.117,21.2,21.2,0,1,0-37.838-1.948H81.539a.516.516,0,0,0-.507.507v28.8a.516.516,0,0,0,.507.507h29.889a.563.563,0,0,0,.273-.078l34.409-22.368C146.226,154.142,142.6,149.934,136.328,148.921Zm-7.755,0c-7.56,1.247-14.379,5.806-18.822,9.43l-16.523-11.3a19.717,19.717,0,0,1-1.987-8.69,20.186,20.186,0,1,1,37.332,10.56Zm-46.528-1.052H92.684l16.367,11.223-7.014,7.521L92.06,159.6a.453.453,0,0,0-.39-.078.535.535,0,0,0-.312.195.5.5,0,0,0,.117.7l10.288,7.287a.486.486,0,0,0,.662-.078l7.716-8.261c6.313-5.261,15.977-11.145,25.992-9.508a19.415,19.415,0,0,1,8.885,3.858l-33.708,21.939H82.084V147.868Z" transform="translate(1226.905 540.001)" fill="#009f4f" stroke="#169f4f" stroke-linecap="round" stroke-width="0.3"/>
    <path id="a" d="M111.428,177.866H81.539a1.709,1.709,0,0,1-1.707-1.707v-28.8a1.709,1.709,0,0,1,1.707-1.707h8.727a22.4,22.4,0,1,1,41.616,1.785q.434-.016.863-.016a22.667,22.667,0,0,1,3.778.312,18.749,18.749,0,0,1,7.658,3.116,16.494,16.494,0,0,1,2.077,1.7c.915.893.982,1.2,1.025,1.4a1.2,1.2,0,0,1-.509,1.265l-.012.008-34.466,22.4-.061.03A1.73,1.73,0,0,1,111.428,177.866Zm-28.143-3.413h27.67l31.937-20.787a18.9,18.9,0,0,0-6.955-2.627,20.363,20.363,0,0,0-3.272-.262c-4.709,0-12.292,1.643-21.7,9.461l-7.644,8.184a1.7,1.7,0,0,1-1.275.577,1.663,1.663,0,0,1-1-.33L90.792,161.4a1.693,1.693,0,0,1,.5-3.021l.044-.015.045-.011a1.687,1.687,0,0,1,.409-.051,1.669,1.669,0,0,1,.938.295l.025.017,9.121,6.413,5.351-5.737-14.91-10.224H83.284Zm10.89-28.211,15.52,10.615a54.7,54.7,0,0,1,7.725-5.167,35.443,35.443,0,0,1,10.409-3.858,18.965,18.965,0,1,0-35.386-9.473A18.536,18.536,0,0,0,94.174,146.242Z" transform="translate(1226.905 540.001)" fill="#169f4f" stroke="#169f4f" stroke-linecap="round" stroke-width="0.3"/>
  </g>
</svg>
