<svg xmlns="http://www.w3.org/2000/svg" width="53" height="53" viewBox="0 0 53 53">
  <g id="Driver_Control" data-name="Driver Control" transform="translate(-4370 -3289)">
    <path id="a" d="M85.737,93a7.246,7.246,0,1,1,7.246-7.246A7.246,7.246,0,0,1,85.737,93Zm1.035-2.28A5.078,5.078,0,0,0,90.7,86.786h-2.06c-.652.09-1.117.588-1.871.859Zm-1.035-3.931A1.035,1.035,0,1,0,84.7,85.751,1.035,1.035,0,0,0,85.737,86.786ZM84.7,90.717V87.645a16.39,16.39,0,0,0-1.814-.859H80.771A5.078,5.078,0,0,0,84.7,90.717Zm1.035-10.038a5.074,5.074,0,0,0-4.966,4.037h2.141c.865-.192,1.423-1.035,2.825-1.035,1.437,0,1.988.886,2.877,1.035H90.7A5.074,5.074,0,0,0,85.737,80.679Zm-9.3-2.174c-3.284,0-6.228-4.373-6.228-8.375a6.211,6.211,0,0,1,12.421-.017C82.632,74.115,79.722,78.506,76.439,78.506Zm-3.64-.518,3.623,3.105,3.623-3.105a11.263,11.263,0,0,1,1.351.11A8.806,8.806,0,0,0,77.5,88.857H65.035C64,88.857,64,87.727,64,87.727V83.164A10.952,10.952,0,0,1,72.8,77.988Z" transform="translate(4318 3236.985)" fill="#dbb227"/>
    <g id="a-2" data-name="a" transform="translate(4370 3289)" fill="none" stroke="#dbb227" stroke-width="1">
      <circle cx="26.5" cy="26.5" r="26.5" stroke="none"/>
      <circle cx="26.5" cy="26.5" r="26" fill="none"/>
    </g>
  </g>
</svg>
