<svg xmlns="http://www.w3.org/2000/svg" width="53" height="53" viewBox="0 0 53 53">
  <g id="Events" transform="translate(-4370 -3414)">
    <g id="a" transform="translate(4370 3414)" fill="none" stroke="#dbb227" stroke-width="1">
      <circle cx="26.5" cy="26.5" r="26.5" stroke="none"/>
      <circle cx="26.5" cy="26.5" r="26" fill="none"/>
    </g>
    <g id="a-2" data-name="a" transform="translate(4308.167 3264.5)">
      <path id="a-3" data-name="a" d="M168.189,206.218h1.232a.958.958,0,1,0,0-1.916h-1.232a1.675,1.675,0,0,1-1.673-1.673v-18.24a1.675,1.675,0,0,1,1.673-1.673h1.424a.958.958,0,0,0,0-1.916h-1.424a3.594,3.594,0,0,0-3.589,3.589v18.24A3.591,3.591,0,0,0,168.189,206.218Zm12.675-23.506h1.061a1.675,1.675,0,0,1,1.673,1.673v2.969a.958.958,0,0,0,1.916,0v-2.964a3.594,3.594,0,0,0-3.589-3.589h-1.061a.956.956,0,1,0,0,1.912Z" transform="translate(-91.51 -18.474)" fill="#dbb227"/>
      <path id="a-4" data-name="a" d="M252.108,167.4h8.046a.958.958,0,0,0,0-1.916h-1.6v-2.665a1.321,1.321,0,0,0-1.318-1.318h-2.216a1.321,1.321,0,0,0-1.318,1.318v2.665h-1.6a.958.958,0,1,0,0,1.916Zm4.021-4.757a1.223,1.223,0,1,1-1.223,1.223A1.223,1.223,0,0,1,256.129,162.642Zm-6.271,6.823a.958.958,0,1,0,0,1.916h4.44a.958.958,0,1,0,0-1.916Zm22.329,7.482a6.226,6.226,0,0,0-6.215-6.1h-5.441a6.223,6.223,0,0,0-6.211,6.036A4.107,4.107,0,0,0,251,180.9V183a4.106,4.106,0,0,0,4.1,4.1h.09v1.279a.958.958,0,0,0,1.916,0V187.1H269.3v1.279a.958.958,0,1,0,1.916,0V187.1a4.1,4.1,0,0,0,4.012-4.1v-2.1A4.1,4.1,0,0,0,272.187,176.946Zm-11.657-4.192h5.437a4.311,4.311,0,0,1,4.295,4.042H256.24A4.307,4.307,0,0,1,260.531,172.754ZM273.308,183a2.187,2.187,0,0,1-2.186,2.186H255.1A2.187,2.187,0,0,1,252.912,183v-2.1a2.187,2.187,0,0,1,2.186-2.186h16.02A2.187,2.187,0,0,1,273.3,180.9V183Z" transform="translate(-172.205 0)" fill="#dbb227"/>
      <path id="a-5" data-name="a" d="M387.285,601.785m-1.685,0a1.685,1.685,0,1,0,1.685-1.685A1.685,1.685,0,0,0,385.6,601.785Z" transform="translate(-303.057 -419.838)" fill="#dbb227"/>
      <path id="a-6" data-name="a" d="M701.785,601.785m-1.685,0a1.685,1.685,0,1,0,1.685-1.685A1.685,1.685,0,0,0,700.1,601.785Z" transform="translate(-604.104 -419.838)" fill="#dbb227"/>
      <path id="a-7" data-name="a" d="M101.386,815.1H74.557a.958.958,0,1,0,0,1.916h26.829a.958.958,0,1,0,0-1.916Zm-28.553.958Z" transform="translate(0 -625.641)" fill="#dbb227"/>
    </g>
  </g>
</svg>
