<svg xmlns="http://www.w3.org/2000/svg" width="86" height="86" viewBox="0 0 86 86">
  <g id="key" transform="translate(-1041 -453)">
    <g id="key-2" data-name="key" transform="translate(516 -110)">
      <g id="t_2" data-name="t 2" transform="translate(525 563)" fill="none" stroke="#d8b213" stroke-width="1">
        <circle cx="43" cy="43" r="43" stroke="none"/>
        <circle cx="43" cy="43" r="42.5" fill="none"/>
      </g>
    </g>
    <path id="p_2" data-name="p 2" d="M110.135,158.979l-.085-.413a13.454,13.454,0,0,0-20.244-8.547q-9.436-6.208-18.861-12.431l-5.609,1.141q-.862,1.275-1.7,2.565l1.144,5.6q1.776,1.188,3.567,2.353c.658-.141,1.317-.27,1.977-.406.134.658.271,1.316.4,1.976q1.779,1.184,3.57,2.353c.383-.082.766-.159,1.148-.239.086.386.164.773.242,1.161.859.564,1.713,1.138,2.578,1.693.382-.081.765-.158,1.148-.239.084.386.163.773.241,1.161,1.325.878,2.656,1.75,3.981,2.629a13.408,13.408,0,0,0,11.1,15.291,13.881,13.881,0,0,0,4.573-.026l.561-.114a14.523,14.523,0,0,0,2.84-1,13.436,13.436,0,0,0,7.429-14.507Zm-26.12-1.405c-.95-.623-1.893-1.256-2.848-1.874-.156-.709-.292-1.424-.442-2.135-.7.134-1.4.3-2.105.419-.5-.251-.941-.615-1.422-.9-.15-.709-.291-1.419-.438-2.128-.676.134-1.35.279-2.026.411-.149.04-.263-.1-.385-.161-.7-.484-1.434-.911-2.11-1.421-.219-.97-.4-1.949-.605-2.922-.981.2-1.963.4-2.943.6-.747-.48-1.481-.978-2.227-1.461-.067-.056-.174-.095-.189-.194-.274-1.309-.533-2.62-.808-3.929-.007-.1-.069-.215,0-.307.192-.31.41-.6.6-.917,1.4.886,2.766,1.819,4.153,2.723q5.953,3.927,11.906,7.855a1.391,1.391,0,0,0,.962.362.809.809,0,0,0,.7-.906.971.971,0,0,0-.492-.7c-5.108-3.358-10.2-6.739-15.315-10.09.869-.157,1.729-.362,2.6-.516a1.854,1.854,0,0,1,.447.262q8.653,5.712,17.308,11.418a13.628,13.628,0,0,0-3.594,4.665A14.972,14.972,0,0,0,84.016,157.574Zm24.256,6.812a11.762,11.762,0,0,1-20.12,4.834,11.692,11.692,0,0,1-2.3-11.79,11.76,11.76,0,0,1,21.611-1.194,10.415,10.415,0,0,1,.59,1.417A11.7,11.7,0,0,1,108.272,164.385Zm-4.632-9.3a15.35,15.35,0,0,0-2.312-1.879q-5.122,7.73-10.239,15.461a22.071,22.071,0,0,0,2.087,1.159,9.22,9.22,0,0,0,10.464-14.741Zm-.184,10.073a7.562,7.562,0,0,1-9.988,2.951l8.282-12.5a7.534,7.534,0,0,1,1.706,9.549Z" transform="matrix(0.259, -0.966, 0.966, 0.259, 910.41, 542.906)" fill="#d8b213"/>
  </g>
</svg>
