<svg xmlns="http://www.w3.org/2000/svg" width="53" height="53" viewBox="0 0 53 53">
  <g id="Manage_User" data-name="Manage User" transform="translate(-4607 -3289)">
    <path id="a" d="M18.86,107.521a1.048,1.048,0,0,1-1.109-1.109v-2.219a3.269,3.269,0,0,0-3.328-3.328H5.547a3.269,3.269,0,0,0-3.328,3.328v2.219a1.048,1.048,0,0,1-1.109,1.109A1.048,1.048,0,0,1,0,106.412v-2.219a5.493,5.493,0,0,1,5.547-5.547h8.875a5.493,5.493,0,0,1,5.547,5.547v2.219A1.048,1.048,0,0,1,18.86,107.521ZM9.985,96.427a5.547,5.547,0,0,1,0-11.094,5.547,5.547,0,0,1,0,11.094Zm0-8.875a3.328,3.328,0,1,0,0,6.656,3.328,3.328,0,1,0,0-6.656Zm15.532,19.969a1.048,1.048,0,0,1-1.109-1.109v-2.219a3.216,3.216,0,0,0-2.552-3.217,1.09,1.09,0,1,1,.555-2.108,5.593,5.593,0,0,1,4.1,5.436v2.219c.111.555-.333,1-1,1Zm-7.766-11.2a1.336,1.336,0,0,1-1.109-.777,1.053,1.053,0,0,1,.777-1.331,3.6,3.6,0,0,0,2.441-2.441,3.423,3.423,0,0,0-2.441-4.1,1.09,1.09,0,1,1,.555-2.108,5.558,5.558,0,0,1,3.994,6.767,5.789,5.789,0,0,1-3.994,3.994Z" transform="translate(4620 3218.667)" fill="#dbb227"/>
    <g id="a-2" data-name="a" transform="translate(4607 3289)" fill="none" stroke="#dbb227" stroke-width="1">
      <circle cx="26.5" cy="26.5" r="26.5" stroke="none"/>
      <circle cx="26.5" cy="26.5" r="26" fill="none"/>
    </g>
  </g>
</svg>
