<svg xmlns="http://www.w3.org/2000/svg" width="53" height="53" viewBox="0 0 53 53">
  <g id="manage_role" data-name="manage role" transform="translate(-4693 -3289)">
    <g id="a" transform="translate(4693 3289)" fill="none" stroke="#dbb227" stroke-width="1">
      <circle cx="26.5" cy="26.5" r="26.5" stroke="none"/>
      <circle cx="26.5" cy="26.5" r="26" fill="none"/>
    </g>
    <g id="a-2" data-name="a" transform="translate(3258.054 3033.043)">
      <path id="a-3" data-name="a" d="M19.29,108.027a1.072,1.072,0,0,1-1.135-1.135v-2.269a3.343,3.343,0,0,0-3.4-3.4H5.673a3.343,3.343,0,0,0-3.4,3.4v2.269a1.072,1.072,0,0,1-1.135,1.135A1.072,1.072,0,0,1,0,106.893v-2.269A5.618,5.618,0,0,1,5.673,98.95h9.078a5.618,5.618,0,0,1,5.673,5.674v2.269A1.072,1.072,0,0,1,19.29,108.027ZM10.212,96.68a5.674,5.674,0,0,1,0-11.347,5.674,5.674,0,0,1,0,11.347Zm0-9.078a3.4,3.4,0,0,0,0,6.808,3.4,3.4,0,0,0,0-6.808Z" transform="translate(1446.252 185.858)" fill="#d8b227"/>
      <g id="a-4" data-name="a" transform="translate(1465.544 272.008)">
        <g id="a-5" data-name="a" transform="translate(0 0)">
          <path id="a-6" data-name="a" d="M97.834,28.33l-.184-.085a.811.811,0,0,1-.329-.409,1.359,1.359,0,0,1-.1-.378V18.9h-1.3a.9.9,0,0,1-.622-.3.859.859,0,0,1-.229-.64.879.879,0,0,1,.851-.852h1.3V8.529a.822.822,0,0,1,.163-.508.933.933,0,0,1,.756-.426h2.3a.892.892,0,0,1,.639.279.918.918,0,0,1,.245.641.9.9,0,0,1-.868.869H99.027v7.71h1.429a.9.9,0,0,1,0,1.8H99.027v7.693h1.412a.9.9,0,0,1,0,1.8l-2.3,0-.31-.069Z" transform="translate(-95.074 -6.773)" fill="#d8b227"/>
          <path id="a-7" data-name="a" d="M104.385,27.237a1.723,1.723,0,1,1,1.723-1.723A1.723,1.723,0,0,1,104.385,27.237ZM95.069,15.984C95.083,15.519,95.054,16.219,95.069,15.984Zm9.316,1.756a1.724,1.724,0,1,1,1.725-1.723A1.724,1.724,0,0,1,104.385,17.74Zm0-9.5a1.723,1.723,0,1,1,1.537-.845A1.723,1.723,0,0,1,104.385,8.242Z" transform="translate(-95.064 -4.797)" fill="#d8b227"/>
        </g>
        <path id="a-8" data-name="a" d="M102.4,8.561a.822.822,0,0,0,.163.508.932.932,0,0,0,.756.426h2.3a.892.892,0,0,0,.639-.279.918.918,0,0,0,.245-.641.9.9,0,0,0-.868-.869h-1.428C103.581,7.542,103.293,7.386,102.4,8.561Z" transform="translate(-100.254 12.127)" fill="#d8b227"/>
      </g>
    </g>
  </g>
</svg>
