<svg xmlns="http://www.w3.org/2000/svg" width="53" height="53" viewBox="0 0 53 53">
  <g id="notification" transform="translate(-4732 -3659)">
    <g id="a" transform="translate(4732 3659)" fill="none" stroke="#dbb227" stroke-width="1">
      <circle cx="26.5" cy="26.5" r="26.5" stroke="none"/>
      <circle cx="26.5" cy="26.5" r="26" fill="none"/>
    </g>
    <g id="a-2" data-name="a" transform="translate(4614.396 3515.818)">
      <path id="a-3" data-name="a" d="M144.619,158.322a1.22,1.22,0,0,0-1.326.122c-1.423,1.1-5.166,4.405-5.8,4.963h-4.781a2.115,2.115,0,0,0-2.112,2.112v7.6a2.115,2.115,0,0,0,2.112,2.112h4.1c.844.761,4.889,4.4,6.471,5.65a1.2,1.2,0,0,0,.754.27,1.3,1.3,0,0,0,.568-.136,2.5,2.5,0,0,0,1.228-2.1V160.41A2.507,2.507,0,0,0,144.619,158.322Zm-.192,20.6a1.277,1.277,0,0,1-.364.779c-1.776-1.426-6.408-5.607-6.455-5.65h0a.7.7,0,0,0-.517-.227h-4.374a.7.7,0,0,1-.7-.7v-7.6a.7.7,0,0,1,.7-.7h4.907a2.387,2.387,0,0,0,.723-.279c.042-.037,4.155-3.683,5.716-4.906a1.268,1.268,0,0,1,.365.78V178.92Z" transform="translate(0 0)" fill="#dbb227"/>
      <path id="a-4" data-name="a" d="M695.8,369.308a7.248,7.248,0,0,0-2.346-4.661.7.7,0,1,0-.912,1.073,5.837,5.837,0,0,1,1.853,3.68,5.987,5.987,0,0,1-1.836,4.387.7.7,0,1,0,1.043.946A7.327,7.327,0,0,0,695.8,369.308Z" transform="translate(-543.385 -199.574)" fill="#dbb227"/>
      <path id="a-5" data-name="a" d="M786.75,255.7a13.02,13.02,0,0,0-3.2-4.962.7.7,0,0,0-.939,1.05,11.7,11.7,0,0,1,2.811,4.384,9.621,9.621,0,0,1,.454,4.8,13,13,0,0,1-2.95,6.079.7.7,0,1,0,1.091.89,14.373,14.373,0,0,0,3.249-6.745A11.015,11.015,0,0,0,786.75,255.7Z" transform="translate(-630.532 -89.369)" fill="#dbb227"/>
    </g>
  </g>
</svg>
