<svg xmlns="http://www.w3.org/2000/svg" width="86" height="86" viewBox="0 0 86 86">
  <g id="report" transform="translate(-669 -364)">
    <g id="tuo_3" data-name="tuo 3" transform="translate(669 364)" fill="none" stroke="#d8b213" stroke-width="1">
      <circle cx="43" cy="43" r="43" stroke="none"/>
      <circle cx="43" cy="43" r="42.5" fill="none"/>
    </g>
    <g id="g_1" data-name="g 1" transform="translate(657.849 326.686)">
      <path id="p_3" data-name="p 3" d="M191.489,99.188H171.9a4.638,4.638,0,0,1-4.647-4.647V65.23a3.814,3.814,0,0,1,3.789-3.789h21.3a3.814,3.814,0,0,1,3.789,3.789V94.613a4.623,4.623,0,0,1-4.647,4.575Zm-20.446-35.6A1.663,1.663,0,0,0,169.4,65.23V94.613a2.533,2.533,0,0,0,2.5,2.5h19.589a2.533,2.533,0,0,0,2.5-2.5V65.23a1.663,1.663,0,0,0-1.644-1.644h-21.3Z" transform="translate(-127.544 0)" fill="#d8b213"/>
      <path id="p_4" data-name="p 4" d="M71.309,228.973H67.52a1.1,1.1,0,0,1-1.072-1.072V204.165a1.1,1.1,0,0,1,1.072-1.072h3.789a2.794,2.794,0,0,1,2.86,2.717v20.518a2.783,2.783,0,0,1-2.86,2.645Zm-2.717-2.145h2.717a.649.649,0,0,0,.715-.572V205.81a.706.706,0,0,0-.715-.572H68.592Zm-27.81,2.145H36.993a2.794,2.794,0,0,1-2.86-2.717V205.81a2.794,2.794,0,0,1,2.86-2.717h3.789a1.1,1.1,0,0,1,1.072,1.072V227.9a1.1,1.1,0,0,1-1.072,1.072Zm-3.789-23.735a.649.649,0,0,0-.715.572v20.518a.706.706,0,0,0,.715.572H39.71V205.238Z" transform="translate(0 -135.719)" fill="#d8b213"/>
      <path id="p_5" data-name="p 5" d="M329.541,253.025H315.1a1.072,1.072,0,0,1,0-2.145h14.513a1.1,1.1,0,0,1,1.072,1.072A1.116,1.116,0,0,1,329.541,253.025Zm0,6.577H315.1a1.072,1.072,0,0,1,0-2.145h14.513a1.1,1.1,0,0,1,1.072,1.072A1.116,1.116,0,0,1,329.541,259.6Zm0,6.577H315.1a1.072,1.072,0,0,1,0-2.145h14.513a1.1,1.1,0,0,1,1.072,1.072A1.116,1.116,0,0,1,329.541,266.179Zm0,6.577H315.1a1.072,1.072,0,0,1,0-2.145h14.513a1.1,1.1,0,0,1,1.072,1.072A1.116,1.116,0,0,1,329.541,272.756Z" transform="translate(-268.169 -181.504)" fill="#d8b213"/>
    </g>
  </g>
</svg>
