<svg xmlns="http://www.w3.org/2000/svg" width="53" height="53" viewBox="0 0 53 53">
  <g id="Resources_Dashboard" data-name="Resources Dashboard" transform="translate(-4614 -3659)">
    <g id="a" transform="translate(4614 3659)" fill="none" stroke="#dbb227" stroke-width="1">
      <circle cx="26.5" cy="26.5" r="26.5" stroke="none"/>
      <circle cx="26.5" cy="26.5" r="26" fill="none"/>
    </g>
    <g id="a-2" data-name="a" transform="translate(-55.331 -72.428)">
      <path id="a-3" data-name="a" d="M249.538,201.472h-8.985a.446.446,0,1,0,0,.892h8.985a.446.446,0,0,0,0-.892Zm-12.567,0h-2.605a.446.446,0,1,0,0,.892h2.605a.446.446,0,0,0,0-.892Zm12.567-2.949h-8.985a.446.446,0,1,0,0,.892h8.985a.446.446,0,0,0,0-.892Zm-9.368-3.261h.031a5.773,5.773,0,0,0,7.718-6.879v-.049a5.769,5.769,0,1,0-7.722,6.919Zm2.159-.477a4.826,4.826,0,0,1-1.4-.205l1.784-4.341,4.412-1.222a4.714,4.714,0,0,1,.085.892A4.907,4.907,0,0,1,242.329,194.784Zm4.577-6.625-4.385,1.213-2.547-3.779a4.907,4.907,0,0,1,6.933,2.565Zm-9.475,1.726a4.907,4.907,0,0,1,1.784-3.792l2.632,3.9-1.758,4.247A4.907,4.907,0,0,1,237.431,189.886Zm-.459,8.637h-2.605a.446.446,0,1,0,0,.892h2.605a.446.446,0,0,0,0-.892Z" transform="translate(4453.765 3564.161)" fill="#dbb227" stroke="#dbb227" stroke-width="0.3"/>
      <path id="a-4" data-name="a" d="M99.99,48h-16a.446.446,0,0,0-.21.058.366.366,0,0,0-.178.094l-5.675,5.3a.792.792,0,0,0-.17.393V71.938a2.231,2.231,0,0,0,2.231,2.231h20a2.231,2.231,0,0,0,2.231-2.231V50.231A2.231,2.231,0,0,0,99.99,48ZM83.484,49.374v3.979H79.228Zm17.845,22.564a1.338,1.338,0,0,1-1.338,1.338h-20a1.338,1.338,0,0,1-1.338-1.338V54.147h5.224a.4.4,0,0,0,.406-.4V48.892H99.99a1.338,1.338,0,0,1,1.338,1.338Z" transform="translate(4605.571 3696.491)" fill="#dbb227" stroke="#dbb227" stroke-width="0.3"/>
    </g>
  </g>
</svg>
