<svg xmlns="http://www.w3.org/2000/svg" width="53" height="53" viewBox="0 0 53 53">
  <g id="Resources_Dashboard" data-name="Resources Dashboard" transform="translate(-4370 -3659)">
    <g id="a" transform="translate(4370 3659)" fill="none" stroke="#dbb227" stroke-width="1">
      <circle cx="26.5" cy="26.5" r="26.5" stroke="none"/>
      <circle cx="26.5" cy="26.5" r="26" fill="none"/>
    </g>
    <path id="a-2" data-name="a" d="M91,66H79V64H77v2H65a1,1,0,0,0-1,1V83a1,1,0,0,0,1,1H77v1.575l-4.776,2.8,1,1.75,4.5-2.625h.6l4.5,2.625,1-1.75L79,85.578V84H91a1,1,0,0,0,1-1V67A1,1,0,0,0,91,66ZM90,82H66V68H90Z" transform="translate(4318 3608)" fill="#dbb227"/>
    <path id="a-3" data-name="a" d="M134.183,129.082l3.7,1.237-3.7,1.237-3.7-1.237,3.7-1.237m0-1.082L128,130.061v.515l6.183,2.061,6.183-2.061v-.515Zm0,6.273L129.03,132.6H128v.515l6.183,2.061,6.183-2.061V132.6h-1.03Zm0,2.615-5.152-1.674H128v.515l6.183,2.061,6.183-2.061v-.515h-1.03Zm0,2.576-5.152-1.674H128v.515l6.183,2.061,6.183-2.061v-.515h-1.03Z" transform="translate(4262 3549)" fill="#dbb227"/>
  </g>
</svg>
