<svg xmlns="http://www.w3.org/2000/svg" width="53" height="53" viewBox="0 0 53 53">
  <g id="Resources" transform="translate(-4607 -3414)">
    <path id="a" d="M140.12,130.121l7.247,2.424-7.247,2.424-7.247-2.424,7.247-2.424m0-2.121L128,132.04v1.01l12.12,4.04,12.12-4.04v-1.01Zm0,12.3-10.1-3.282H128v1.01l12.12,4.04,12.12-4.04v-1.01h-2.02Zm0,5.126-10.1-3.282H128v1.01l12.12,4.04,12.12-4.04v-1.01h-2.02Zm0,5.05-10.1-3.282H128v1.01l12.12,4.04,12.12-4.04v-1.01h-2.02Z" transform="translate(4493 3300)" fill="#dbb227"/>
    <g id="a-2" data-name="a" transform="translate(4607 3414)" fill="none" stroke="#dbb227" stroke-width="1">
      <circle cx="26.5" cy="26.5" r="26.5" stroke="none"/>
      <circle cx="26.5" cy="26.5" r="26" fill="none"/>
    </g>
  </g>
</svg>
