<svg xmlns="http://www.w3.org/2000/svg" width="53" height="53" viewBox="0 0 53 53">
  <g id="SOS" transform="translate(-4816 -3659)">
    <g id="a" transform="translate(4816 3659)" fill="none" stroke="#dbb227" stroke-width="1">
      <circle cx="26.5" cy="26.5" r="26.5" stroke="none"/>
      <circle cx="26.5" cy="26.5" r="26" fill="none"/>
    </g>
    <path id="a-2" data-name="a" d="M7.19,224.577a4.775,4.775,0,0,0-2.363-.622,3.385,3.385,0,1,1,3.343-3.882H9.632a4.829,4.829,0,1,0-4.8,5.328,3.385,3.385,0,1,1-3.264,4.262H.081a4.827,4.827,0,1,0,7.109-5.086Zm21.227,0a4.768,4.768,0,0,0-2.363-.62,3.385,3.385,0,1,1,3.343-3.882h1.459a4.828,4.828,0,1,0-4.8,5.326,3.385,3.385,0,1,1-3.264,4.262H21.308a4.828,4.828,0,1,0,7.109-5.086Zm-13.056,9a4.645,4.645,0,0,1-4.762-4.505v-8.8a4.645,4.645,0,0,1,4.762-4.507,4.645,4.645,0,0,1,4.762,4.507v8.8A4.642,4.642,0,0,1,15.361,233.572Zm0-16.365a3.2,3.2,0,0,0-3.318,3.063v8.8a3.2,3.2,0,0,0,3.318,3.061,3.2,3.2,0,0,0,3.318-3.061v-8.8A3.2,3.2,0,0,0,15.361,217.207Z" transform="translate(4827 3461.256)" fill="#dbb227"/>
  </g>
</svg>
