<svg t="1650888254651" class="icon" viewBox="0 0 1024 1024" version="1.1" xmlns="http://www.w3.org/2000/svg" p-id="1383" width="28" height="28"><path d="M301.35722651 775.30346686h421.28554698v78.99104006H301.35722651z m210.64277349-210.64277349c29.127946 0 52.66069337-23.53274735 52.66069337-52.66069337s-23.53274735-52.66069337-52.66069337-52.66069337c-4.93694001 0-9.87388 0.65825867-14.48169067 1.97477601l-109.76463275-80.14299274-6.58258668 5.75976334 80.47212206 109.76463275c-1.481082 4.77237533-2.30390533 9.87388-2.30390533 15.30451401 0 29.127946 23.53274735 52.66069337 52.66069337 52.66069337z" fill="#4361b9" p-id="1384"></path><path d="M512 169.70549308C322.91519786 169.70549308 169.70549308 322.91519786 169.70549308 512c0 79.48473406 27.15317003 152.55144611 72.57301806 210.64277349h96.76402408l6.58258666-6.58258667 36.36879135-36.36879136-37.68530869-37.68530869-36.36879136 36.20422669c-32.74836869-39.98921403-52.82525804-88.86492007-57.9267627-139.87996678H301.35722651v-52.66069336H250.01305048c5.10150467-51.01504671 25.17839402-99.89075272 57.9267627-139.87996678l36.36879136 36.20422669 37.68530869-37.68530869-36.20422669-36.36879136c39.98921403-32.74836869 88.86492007-52.82525804 139.87996678-57.9267627V301.35722651h52.66069336V250.01305048c51.01504671 5.10150467 99.89075272 25.17839402 139.87996678 57.9267627l-36.20422669 36.36879136 37.68530869 37.68530869 36.36879136-36.20422669c32.74836869 39.98921403 52.82525804 88.86492007 57.9267627 139.87996678H722.64277349v52.66069336h51.34417604c-5.10150467 51.01504671-25.17839402 99.89075272-57.92676271 139.87996678l-36.36879136-36.20422669-37.68530869 37.68530869 36.36879135 36.36879136 6.58258666 6.58258666h96.76402409c45.41984804-58.09132737 72.57301807-131.15803942 72.57301805-210.64277348 0-189.08480214-153.20970477-342.29450692-342.29450692-342.29450692z" fill="#4361b9" p-id="1385"></path></svg>