<?xml version="1.0" standalone="no"?>
<!DOCTYPE svg PUBLIC "-//W3C//DTD SVG 1.1//EN" "http://www.w3.org/Graphics/SVG/1.1/DTD/svg11.dtd">
<svg t="1700210760925" class="icon" viewBox="0 0 1024 1024" version="1.1" xmlns="http://www.w3.org/2000/svg" p-id="4026" width="48" height="48" xmlns:xlink="http://www.w3.org/1999/xlink">
<path d="M389.11 479.93H171.06c-39.14 0-70.98-31.84-70.98-70.98V170.9c0-39.14 31.84-70.97 70.97-70.97H389.1c39.14 0 70.98 31.84 70.98 70.98v238.05c0.01 39.13-31.83 70.97-70.97 70.97z m-218.05-320c-6.05 0-10.97 4.92-10.97 10.97v238.05c0 6.05 4.92 10.98 10.98 10.98h218.05c6.05 0 10.97-4.92 10.97-10.97V170.9c0-6.05-4.92-10.98-10.98-10.98H171.06zM397.08 925.64H165.02c-39.14 0-70.98-31.84-70.98-70.98V616.61c0-39.14 31.84-70.97 70.97-70.97h232.06c39.14 0 70.98 31.84 70.98 70.97v238.05c0 39.14-31.84 70.98-70.97 70.98z m-232.06-320c-6.05 0-10.97 4.92-10.97 10.97v238.05c0 6.05 4.92 10.98 10.98 10.98h232.06c6.05 0 10.97-4.92 10.97-10.97V616.61c0-6.05-4.92-10.97-10.98-10.97H165.02zM855.15 924.64H623.1c-39.14 0-70.98-31.84-70.98-70.98V615.61c0-39.14 31.84-70.97 70.97-70.97h232.06c39.14 0 70.97 31.84 70.97 70.97v238.05c0.01 39.14-31.83 70.98-70.97 70.98z m-232.05-320c-6.05 0-10.97 4.92-10.97 10.97v238.05c0 6.05 4.92 10.98 10.98 10.98h232.06c6.05 0 10.97-4.92 10.97-10.97V615.61c0-6.05-4.92-10.97-10.97-10.97H623.1zM718.17 499.63c-18.96 0-36.78-7.38-50.19-20.79L524.33 335.18c-27.67-27.67-27.67-72.7 0-100.37L667.99 91.14c13.41-13.41 31.23-20.79 50.19-20.79 18.96 0 36.78 7.38 50.19 20.79L912.02 234.8c13.41 13.41 20.79 31.23 20.79 50.19 0 18.96-7.38 36.78-20.79 50.19L768.36 478.84c-13.4 13.4-31.23 20.79-50.19 20.79z m0-369.28c-1.7 0-4.96 0.42-7.76 3.21L566.75 277.23c-4.28 4.28-4.28 11.24 0 15.52l143.66 143.66c2.8 2.8 6.06 3.21 7.76 3.21 1.7 0 4.96-0.42 7.76-3.21L869.6 292.75c2.8-2.8 3.21-6.06 3.21-7.76 0-1.7-0.42-4.96-3.21-7.76L725.93 133.57c-2.79-2.8-6.06-3.22-7.76-3.22z" fill="#000000" p-id="4027"></path>
</svg>