<svg xmlns="http://www.w3.org/2000/svg" width="53" height="53" viewBox="0 0 53 53">
  <g id="task_Dashboard" data-name="task Dashboard" transform="translate(-4490 -3659)">
    <g id="a" transform="translate(4490 3659)" fill="none" stroke="#dbb227" stroke-width="1">
      <circle cx="26.5" cy="26.5" r="26.5" stroke="none"/>
      <circle cx="26.5" cy="26.5" r="26" fill="none"/>
    </g>
    <path id="a-2" data-name="a" d="M91,66H79V64H77v2H65a1,1,0,0,0-1,1V83a1,1,0,0,0,1,1H77v1.575l-4.776,2.8,1,1.75,4.5-2.625h.6l4.5,2.625,1-1.75L79,85.578V84H91a1,1,0,0,0,1-1V67A1,1,0,0,0,91,66ZM90,82H66V68H90Z" transform="translate(4438 3608)" fill="#dbb227"/>
    <g id="a-3" data-name="a" transform="translate(4414.842 3560.466)">
      <path id="a-4" data-name="a" d="M437.813,800.959a.479.479,0,1,1,0-.959h6.392a.479.479,0,1,1,0,.959Z" transform="translate(-337.049 -673.226)" fill="#dbb227"/>
      <path id="a-5" data-name="a" d="M100.764,123.258a.479.479,0,0,1,0-.959h6.392a.479.479,0,0,1,0,.959Zm0-4.475a.479.479,0,1,1,0-.959h6.392a.479.479,0,1,1,0,.959Zm-4.814.5-.639-.639a.479.479,0,1,1,.678-.678l.3.3,1.579-1.579a.479.479,0,1,1,.678.678l-1.918,1.918a.478.478,0,0,1-.678,0Zm0,4.474-.639-.639a.479.479,0,0,1,.678-.678l.3.3,1.579-1.578a.479.479,0,0,1,.678.678l-1.918,1.918a.478.478,0,0,1-.678,0Zm0,4.475-.639-.639a.479.479,0,1,1,.678-.678l.3.3,1.579-1.579a.479.479,0,0,1,.678.678l-1.918,1.918a.478.478,0,0,1-.678,0Z" transform="translate(0 0)" fill="#dbb227"/>
    </g>
  </g>
</svg>
