<svg xmlns="http://www.w3.org/2000/svg" width="53" height="53" viewBox="0 0 53 53">
  <g id="TaskAssign" transform="translate(-4490 -3414)">
    <path id="a" d="M155.748,134.014h-5.143v-3.433c0-1.324-1.159-1.713-2.567-1.713h-10.3c-1.409,0-2.567.383-2.567,1.713v3.433h-5.143a2.567,2.567,0,0,0-2.576,2.573v19.3a2.58,2.58,0,0,0,2.576,2.573h25.725a2.567,2.567,0,0,0,2.576-2.573v-19.3A2.58,2.58,0,0,0,155.748,134.014Zm-18.008-2.573h10.292v2.573H137.74Zm-7.716,5.146s25.728.005,25.728,0,0,2.248,0,5.208a1.237,1.237,0,0,0-.308-.062H130.019C130.019,138.8,130.021,136.587,130.024,136.587Zm15.078,7.719a2.552,2.552,0,0,1-4.432,0Zm10.646,11.579s-25.728-.005-25.728,0,0-6.206,0-11.579h7.9a5.122,5.122,0,0,0,9.928,0h7.595a1.236,1.236,0,0,0,.308-.062C155.753,149.632,155.753,155.885,155.748,155.885Z" transform="translate(4373.553 3297.132)" fill="#dbb227"/>
    <g id="a-2" data-name="a" transform="translate(4490 3414)" fill="none" stroke="#dbb227" stroke-width="1">
      <circle cx="26.5" cy="26.5" r="26.5" stroke="none"/>
      <circle cx="26.5" cy="26.5" r="26" fill="none"/>
    </g>
  </g>
</svg>
