<?xml version="1.0" standalone="no"?><!DOCTYPE svg PUBLIC "-//W3C//DTD SVG 1.1//EN" "http://www.w3.org/Graphics/SVG/1.1/DTD/svg11.dtd"><svg t="1687928091574" class="icon" viewBox="0 0 1024 1024" version="1.1" xmlns="http://www.w3.org/2000/svg" p-id="1654" width="48" height="48" xmlns:xlink="http://www.w3.org/1999/xlink"><path d="M960 682.666667h-170.666667a128 128 0 0 0-128 128v149.333333a21.333333 21.333333 0 0 0 42.666667 0v-149.333333a85.333333 85.333333 0 0 1 85.333333-85.333334h170.666667a21.333333 21.333333 0 0 0 0-42.666666z m-444.8-152.533334a10.666667 10.666667 0 0 0 15.146667-15.146666l-128-128a10.666667 10.666667 0 0 0-15.146667 15.146666zM490.666667 212.266667v54.4A245.546667 245.546667 0 0 0 736 512h192a10.666667 10.666667 0 0 0 0-21.333333h-192A224.213333 224.213333 0 0 1 512 266.666667V212.266667a53.333333 53.333333 0 1 0-21.333333 0zM501.333333 128A32 32 0 1 1 469.333333 160 32 32 0 0 1 501.333333 128zM789.333333 362.666667h170.666667a21.333333 21.333333 0 0 0 0-42.666667h-170.666667a85.333333 85.333333 0 0 1-85.333333-85.333333V64a21.333333 21.333333 0 0 0-42.666667 0v170.666667a128 128 0 0 0 128 128z m-216.533333 195.2a10.666667 10.666667 0 0 0-15.146667 15.146666l64 64a10.666667 10.666667 0 0 0 15.146667-15.146666zM512 790.4V757.333333A245.546667 245.546667 0 0 0 266.666667 512h-192a10.666667 10.666667 0 0 0 0 21.333333h192A224.213333 224.213333 0 0 1 490.666667 757.333333v33.066667a53.333333 53.333333 0 1 0 21.333333 0zM501.333333 874.666667a32 32 0 1 1 32-32 32 32 0 0 1-32 32zM64 362.666667h170.666667a128 128 0 0 0 128-128V64a21.333333 21.333333 0 0 0-42.666667 0v170.666667a85.333333 85.333333 0 0 1-85.333333 85.333333H64a21.333333 21.333333 0 0 0 0 42.666667z m170.666667 320H64a21.333333 21.333333 0 0 0 0 42.666666h170.666667a85.333333 85.333333 0 0 1 85.333333 85.333334v149.333333a21.333333 21.333333 0 0 0 42.666667 0v-149.333333a128 128 0 0 0-128-128z" p-id="1655" fill="#999999"></path></svg>