<svg t="1650858152679" class="icon" viewBox="0 0 1024 1024" version="1.1" xmlns="http://www.w3.org/2000/svg" p-id="1088" width="30" height="30"><path d="M947.82675781 803.50419922L559.58398438 162.82373047a55.64882813 55.64882813 0 0 0-47.59013672-26.79785156 55.6453125 55.6453125 0 0 0-47.57871094 26.79785156L76.18466797 803.50419922c-10.41503906 17.17646484-10.74990234 38.63847656-0.89208985 56.13574219a55.62861328 55.62861328 0 0 0 48.46992188 28.33505859h776.475c20.07333984 0 38.59892578-10.82460938 48.46992188-28.33417969 9.85605469-17.49814453 9.52119141-38.96103516-0.88066407-56.13574218zM123.76074219 832.33320313l388.23046875-640.66728516 388.24453125 640.66728516H123.76074219z" fill="#4361b9" p-id="1089"></path><path d="M511.99384766 614.02080078c15.38085938 0 27.82529297-12.4453125 27.82529296-27.81386719V491.95214844c0-15.36152344-12.4453125-27.81386719-27.82617187-27.81386719-15.36767578 0-27.81386719 12.45234375-27.81386719 27.81474609V586.20605469c0 15.36855469 12.4453125 27.81386719 27.8147461 27.81386718z m-0.54580078 102.36357422c19.12060547 0 34.62539063-15.50390625 34.62539062-34.63769531s-15.50390625-34.63769531-34.62539062-34.63769532c-19.14433594 0-34.63769531 15.50390625-34.63769532 34.63769532s15.49335938 34.63769531 34.63769532 34.63769531z" fill="#4361b9" p-id="1090"></path><path d="M765.01865234 759.38134766H309.98955078c-10.25419922 0-18.56337891 8.296875-18.56337891 18.53876953s8.30830078 18.53789062 18.5625 18.53789062h487.95732422a18.55019531 18.55019531 0 0 0 16.16132813-9.4368164 18.58447266 18.58447266 0 0 0-0.29707031-18.72333985L646.24501953 491.76230469c-5.29980469-8.75566406-16.70537109-11.56113281-25.46191406-6.24199219-8.78027344 5.30068359-11.56552734 16.70625-6.25253906 25.4671875l150.48808593 248.39384766zM496.14189453 296.42011719L210.18886719 768.29785156c-5.31298828 8.76708984-2.52773438 20.17353516 6.25341797 25.48476563a18.52734375 18.52734375 0 0 0 9.58447265 2.67626953c6.27802734 0 12.38466797-3.17109375 15.8756836-8.9296875l270.09052734-445.7100586 59.83681641 98.74248047c5.31386719 8.74951172 16.71855469 11.56113281 25.46191406 6.25341797 8.78027344-5.31298828 11.56640625-16.71855469 6.26660156-25.47949219l-75.70195312-124.91542968c-3.35566406-5.54853516-9.37441406-8.93496094-15.86425782-8.93496094s-12.49453125 3.38642578-15.85019531 8.93496094z" fill="#4361b9" p-id="1091"></path></svg>