<?xml version="1.0" standalone="no"?><!DOCTYPE svg PUBLIC "-//W3C//DTD SVG 1.1//EN" "http://www.w3.org/Graphics/SVG/1.1/DTD/svg11.dtd"><svg t="1704685044685" class="icon" viewBox="0 0 1024 1024" version="1.1" xmlns="http://www.w3.org/2000/svg" p-id="10795" width="48" height="48" xmlns:xlink="http://www.w3.org/1999/xlink"><path d="M884.352 0a139.648 139.648 0 0 1 46.592 271.36v481.28a139.690667 139.690667 0 1 1-178.261333 178.304H271.317333a139.690667 139.690667 0 1 1-178.261333-178.261333V271.317333A139.690667 139.690667 0 1 1 271.36 93.056h481.365333A139.690667 139.690667 0 0 1 884.352 0zM139.648 837.802667a46.506667 46.506667 0 1 0 0 93.098666 46.506667 46.506667 0 0 0 0-93.098666z m744.704 0a46.506667 46.506667 0 1 0 0 93.098666 46.506667 46.506667 0 0 0 0-93.098666zM186.197333 577.834667v174.848a140.032 140.032 0 0 1 85.12 85.12l174.805334-0.042667-259.925334-259.925333z m0-306.517334v174.848l391.594667 391.594667 174.890667 0.042667c1.621333-4.650667 3.541333-9.173333 5.632-13.610667L199.808 265.642667l-5.802667 2.645333a138.666667 138.666667 0 0 1-7.808 3.029333z m259.968-85.12H271.317333l-3.029333 7.808-2.645333 5.802667 558.549333 558.506667c4.437333-2.133333 8.96-4.010667 13.610667-5.632l-0.042667-174.890667-391.594667-391.594667z m306.517334 0h-174.848l259.925333 259.925334 0.042667-174.805334a140.032 140.032 0 0 1-85.12-85.12zM139.648 93.098667a46.506667 46.506667 0 1 0 0 93.098666 46.506667 46.506667 0 0 0 0-93.098666z m744.704 0a46.506667 46.506667 0 1 0 0 93.098666 46.506667 46.506667 0 0 0 0-93.098666z" fill="#4361b9" p-id="10796"></path></svg>