<svg t="1650883965867" class="icon" viewBox="0 0 1024 1024" version="1.1" xmlns="http://www.w3.org/2000/svg" p-id="1805" width="32" height="32"><path d="M512 512m-432 0a432 432 0 1 0 864 0 432 432 0 1 0-864 0Z" fill="#0683F8" p-id="1806"></path><path d="M625.12 576.256c1.536 13.184 1.536 13.088 12.608 12.8 23.68-0.864 47.328-1.728 71.008-2.464 14.08-0.448 17.216 2.624 17.312 16.896a320.512 320.512 0 0 1-0.608 32.704 14.976 14.976 0 0 1-6.816 11.136 439.648 439.648 0 0 1-90.336 24.064v-31.136a152.864 152.864 0 0 0-11.712-59.776l-0.608-1.472c-8.416-18.688-21.536-20.256-34.4-4.288a62.048 62.048 0 0 0-11.104 32c-0.576 3.968-1.984 6.08-6.4 6.112-37.248 0.384-74.496 0.992-111.776 1.472a59.584 59.584 0 0 1-6.4-0.48c4.416-19.712 9.6-39.136 13.024-58.848 2.848-16 4.224-32 5.632-48.256a18.624 18.624 0 0 0-14.944-21.536 107.328 107.328 0 0 0-28.256-4.384q-60.64 0.448-121.248 2.56a106.848 106.848 0 0 0-22.56 5.728 66.816 66.816 0 0 1 25.6-28.544 17.184 17.184 0 0 0 10.272-18.368c-1.056-10.816 0-21.824-0.32-32.704-0.224-7.648 4.896-6.912 9.6-6.88s9.92-0.928 9.6 6.816c-0.352 10.624 0 21.248 0 33.184 6.912-2.624 13.024-4.8 18.976-7.36 1.056-0.448 1.664-2.432 2.048-3.84q6.848-25.6 13.504-51.488c0.256-0.992 0.864-2.56 0.448-2.944-6.144-5.696-3.008-11.872 0.608-16.352a48.256 48.256 0 0 1 17.28-15.232c11.456-4.576 24.16-5.856 36.032-9.6a56.992 56.992 0 0 0 14.368-8.832 10.528 10.528 0 0 0 3.2-4.576 71.008 71.008 0 0 1 59.808-40.416 713.6 713.6 0 0 1 117.568-9.6 235.584 235.584 0 0 1 72.768 6.4c19.456 5.76 26.496 11.968 28.256 32.288 2.56 29.408 5.856 58.848 6.4 88.32 0.96 53.472 0 106.944 0 160.416 0 8.64-5.536 13.984-16.576 14.528-22.848 1.12-45.728 1.472-68.576 2.08-4.352-0.032-8.608-0.128-13.28-0.128z m-3.68-217.056c-17.312-0.864-33.184-2.944-48.896-2.24-61.6 2.752-123.136 6.624-184.736 9.376a18.176 18.176 0 0 0-17.92 12.48 148.416 148.416 0 0 0-2.976 7.392 162.72 162.72 0 0 0-9.6 47.488c4.672-0.64 8.32-1.408 12-1.568 36.928-1.472 73.824-3.392 110.784-4.128s73.408-0.16 110.112-0.416c2.976 0 7.968-1.152 8.64-2.976 7.52-20.832 14.464-41.92 22.432-65.376z m-111.616 251.808c10.656 0 21.344 0.64 32-0.256a24.928 24.928 0 0 0 15.616-6.112 27.2 27.2 0 0 0 7.008-18.272c-0.736-7.136-9.152-5.632-14.784-5.344-17.248 0.832-34.592 1.312-51.712 3.424a88.448 88.448 0 0 0-26.848 8.512c-3.616 1.728-5.184 7.776-7.648 11.872 4.064 2.048 8.032 4.32 12.192 6.048a15.264 15.264 0 0 0 5.536 0.192z m124.064-235.584l-2.432-1.024a40.928 40.928 0 0 0-4.896 7.456 134.4 134.4 0 0 0-8.416 24.832c-2.656 15.584-3.968 31.424-5.28 47.232-0.192 2.24 2.784 6.72 4.352 6.752a14.976 14.976 0 0 0 10.08-3.552 16.512 16.512 0 0 0 3.872-10.176c1.024-23.808 1.728-47.68 2.592-71.456z m64.256 28.384c0 17.088-0.288 33.888 0.384 50.656 0 1.984 5.504 4.608 8.768 5.216 1.248 0.224 4.768-4.256 4.896-6.752 0.576-10.304 0.224-20.672 0.256-31.008-0.128-12.128-1.184-13.568-14.432-18.112z m-45.056-3.04c2.176-16-2.912-22.912-16.672-22.752v22.752z" fill="#FFFFFF" p-id="1807"></path><path d="M608.64 285.6l35.936 34.144q59.808 56.864 119.52 113.824a12.8 12.8 0 0 1 4.128 7.904c0.256 43.36 0.192 86.72 0.192 131.648l-159.744-5.6zM230.848 613.792c113.472 3.52 224.896 12 336 5.184v61.344c-12.256 0.928-23.264 2.432-34.272 2.432-43.84 0-87.712-0.32-131.552-0.672-14.112 0-28.192-0.544-42.272-1.152-4.576-0.192-5.92 1.536-7.52 5.824a162.976 162.976 0 0 1-16.192 36.768 29.216 29.216 0 0 1-51.776-1.568 101.792 101.792 0 0 1-15.36-38.976c-0.928-4.576-2.528-6.816-7.584-7.104a174.464 174.464 0 0 1-22.912-2.976c-2.368-0.448-6.208-2.944-6.4-4.576-0.352-18.24-0.16-36.48-0.16-54.528z m122.56 37.216v-1.152h-26.304c-5.536 0-7.808 2.368-7.52 7.68a36.704 36.704 0 0 1 0 6.4c-0.864 7.072 2.4 9.312 9.184 9.344 14.88 0 29.76 0.576 44.8 1.12 13.184 0.48 13.28 0.48 13.472-12.8v-3.2c0.32-5.056-2.144-7.328-7.136-7.296l-26.496-0.096z m63.072 1.664c-20.864 0-18.272-3.872-19.2 17.44-0.192 5.248 1.888 7.936 7.424 7.904 7.712 0 15.424 0.16 23.136 0.384 4.96 0 7.104-2.016 7.456-7.072 1.504-20.544 0-18.72-16.512-18.656z m50.144 1.856a55.808 55.808 0 0 0-11.104 0.192 8.256 8.256 0 0 0-5.472 4.48c-4.288 14.304 0 20 14.912 20.032h10.336c6.4 0.352 8.928-2.272 8.896-8.896 0-16 0.16-16-16-16z m-173.664 15.616c16.896 0.384 16.48 0.352 17.088-12.16 0.352-7.104-2.496-9.6-8.992-9.6a154.944 154.944 0 0 1-16-0.704c-6.4-0.704-8.896 1.76-9.056 8.384-0.352 13.856-0.672 13.824 12.8 14.048z m-48.384-13.024c0 10.144 0.192 10.336 14.08 10.816 10.336 0.384 7.296-7.52 8.064-12.8 1.408-9.888-5.76-8.8-11.84-8.928-9.952-0.256-10.144 0.096-10.304 10.944z" fill="#FFFFFF" p-id="1808"></path><path d="M208.224 731.36c17.344 3.712 34.592 8.224 52.032 10.912a724.896 724.896 0 0 0 82.432 10.304 1067.904 1067.904 0 0 0 114.816-1.408 747.584 747.584 0 0 0 87.872-13.824 489.92 489.92 0 0 0 121.344-41.952 464.48 464.48 0 0 0 119.808-81.984 3.2 3.2 0 0 1 3.2-0.928c-3.52 4.192-6.944 8.512-10.56 12.544s-7.68 8.448-11.68 12.384a416.896 416.896 0 0 1-134.688 90.368 607.68 607.68 0 0 1-79.776 27.456 556.8 556.8 0 0 1-204.48 12.992 546.88 546.88 0 0 1-129.92-31.232c-3.616-1.376-7.168-3.2-10.752-4.704z" fill="#FFFFFF" p-id="1809"></path><path d="M491.328 641.792c3.008-16 5.696-32.192 9.216-48a43.2 43.2 0 0 1 7.04-14.144 11.776 11.776 0 0 1 21.632 0.576 105.088 105.088 0 0 1 13.92 45.248 215.52 215.52 0 0 1-5.024 84.544 91.52 91.52 0 0 1-9.6 21.76 11.328 11.328 0 0 1-20.192 0.8 75.2 75.2 0 0 1-13.92-40.928c-1.472-16.32-0.352-32.864-0.352-49.344zM609.568 287.36l32.448-2.08v281.6h-18.784c0.672-44.16 2.816-87.712 1.568-131.2s-5.76-87.456-9.312-131.2a76.8 76.8 0 0 0-5.92-17.12zM337.632 552.992c0 14.08-0.192 28.16 0 42.24 0 5.728-1.632 8.32-7.68 8.064-7.968-0.32-16 0-23.904 0-4.384 0-6.944-1.184-6.912-6.4v-87.712c0-4.608 1.952-6.816 6.72-6.72 7.968 0 16 0.192 23.904 0 5.92-0.192 7.936 2.464 7.84 8.192-0.128 14.176 0.032 28.256 0.032 42.336z" fill="#FFFFFF" p-id="1810"></path><path d="M327.2 552.672V510.4c0-5.792 2.048-8.192 7.936-7.936 7.68 0.32 15.424 0.224 23.136 0 4.96 0 7.488 1.92 7.488 6.976 0 29.248 0 58.496-0.256 87.712a8.064 8.064 0 0 1-5.44 5.664c-8.992 0.64-18.048 0.192-27.104 0.352-5.568 0-5.664-3.584-5.664-7.488v-43.072z" fill="#FFFFFF" p-id="1811"></path><path d="M362.816 552.64c0-14.08 0.192-28.16 0-42.208 0-5.824 1.824-8.256 7.776-7.968 7.168 0.32 14.336 0.256 21.504 0 4.992 0 7.424 1.824 7.424 6.944v87.616c0 4.352-2.112 6.176-6.4 6.112-7.968 0-16-0.224-23.904 0-5.056 0-6.4-2.208-6.4-6.784 0.096-14.496 0-29.088 0-43.712zM310.624 553.152c0 14.112-0.224 28.192 0 42.304 0 5.984-2.176 7.744-7.968 7.84-22.176 0.384-22.176 0.544-22.176-21.44 0-23.424 0.16-46.816 0-70.24 0-6.944 2.208-9.344 9.216-9.184 24.96 0.576 20.64-3.2 20.992 21.184v29.536zM631.808 623.264c2.336-14.208 4.384-28.32 7.168-42.304 0.576-2.848 3.808-5.184 5.824-7.744 2.016 2.56 5.12 4.8 5.888 7.68a157.344 157.344 0 0 1 0 84.832c-0.8 2.88-3.84 5.12-5.856 7.648-2.048-2.528-5.376-4.8-5.92-7.584-2.752-13.984-4.704-28.096-7.104-42.528z" fill="#FFFFFF" p-id="1812"></path><path d="M729.568 597.536l-76.352 15.616-2.944-27.2h79.296z" fill="#FFFFFF" p-id="1813"></path><path d="M676.512 617.504c-1.792 12.48-3.36 25.088-5.632 37.536-0.48 2.592-3.648 4.672-5.568 6.976-1.888-2.336-4.8-4.416-5.536-7.104a141.824 141.824 0 0 1 0-75.36c0.704-2.656 3.648-4.704 5.568-7.04 1.952 2.304 5.152 4.384 5.632 6.976 2.08 12.48 3.584 25.088 5.536 38.016zM235.488 608.672c1.824-1.376 3.552-3.744 5.472-3.904a128.576 128.576 0 0 1 14.336 0.224c5.44 0 11.648 1.664 13.152-6.4a14.912 14.912 0 0 0-9.248-18.016c-4.992-1.472-10.272-2.048-16-3.2a63.328 63.328 0 0 1 22.912-36.448 201.6 201.6 0 0 0 11.808 69.472h-40.96zM737.152 625.568a86.688 86.688 0 0 1-0.384-50.368 60.8 60.8 0 0 1 0.384 50.368zM748.352 576.64v42.272h-2.464v-42.176z" fill="#FFFFFF" p-id="1814"></path></svg>