<?xml version="1.0" standalone="no"?><!DOCTYPE svg PUBLIC "-//W3C//DTD SVG 1.1//EN" "http://www.w3.org/Graphics/SVG/1.1/DTD/svg11.dtd"><svg t="1676355472831" class="icon" viewBox="0 0 1024 1024" version="1.1" xmlns="http://www.w3.org/2000/svg" p-id="3510" width="32" height="32" xmlns:xlink="http://www.w3.org/1999/xlink"><path d="M770.56 89.6H384c-84.48 0-153.6 69.12-153.6 153.6v202.24l-61.44 33.28c-33.28 17.92-56.32 51.2-56.32 89.6v271.36c0 56.32 46.08 102.4 102.4 102.4l419.84-2.56h135.68c84.48 0 153.6-69.12 153.6-153.6V243.2c0-84.48-69.12-153.6-153.6-153.6z m-186.88 750.08H435.2v-156.16c0-28.16-23.04-51.2-51.2-51.2s-51.2 23.04-51.2 51.2v156.16H215.04V568.32l161.28-84.48c15.36-7.68 30.72-7.68 46.08 0l161.28 81.92v273.92z m238.08-51.2c0 28.16-23.04 51.2-51.2 51.2h-84.48V568.32c0-38.4-20.48-74.24-56.32-92.16l-161.28-81.92c-43.52-20.48-92.16-23.04-135.68 0V243.2c0-28.16 23.04-51.2 51.2-51.2h386.56c28.16 0 51.2 23.04 51.2 51.2v545.28z" p-id="3511" fill="#4361b9"></path><path d="M665.6 256h-179.2c-28.16 0-51.2 23.04-51.2 51.2s23.04 51.2 51.2 51.2h179.2c28.16 0 51.2-23.04 51.2-51.2s-23.04-51.2-51.2-51.2z" p-id="3512" fill="#4361b9"></path></svg>