<?xml version="1.0" standalone="no"?><!DOCTYPE svg PUBLIC "-//W3C//DTD SVG 1.1//EN" "http://www.w3.org/Graphics/SVG/1.1/DTD/svg11.dtd"><svg t="1677204329422" class="icon" viewBox="0 0 1024 1024" version="1.1" xmlns="http://www.w3.org/2000/svg" p-id="6416" width="64" height="64" xmlns:xlink="http://www.w3.org/1999/xlink"><path d="M512.622592 57.344C261.197824 57.344 57.91744 260.62336 57.91744 512.048128c0 251.423744 203.27936 454.703104 454.704128 454.703104 251.423744 0 454.703104-203.27936 454.703104-454.703104C967.325696 260.62336 764.04736 57.344 512.622592 57.344zM380.223488 336.852992c6.68672-17.385472 17.385472-33.4336 30.758912-46.80704 13.37344-13.37344 29.422592-24.073216 45.47072-30.76096 17.385472-6.68672 36.108288-10.697728 53.49376-10.697728 18.72384 0 37.44768 4.012032 53.495808 10.698752 17.385472 6.68672 33.4336 17.385472 45.469696 30.758912 13.37344 13.37344 24.073216 29.422592 30.759936 46.808064 6.68672 17.385472 10.698752 36.109312 10.698752 54.832128s-4.012032 37.445632-10.698752 54.832128c-6.68672 17.385472-17.386496 33.4336-30.759936 46.80704-13.37344 13.37344-29.421568 24.073216-45.469696 30.759936-17.386496 6.68672-36.109312 10.698752-53.494784 10.698752-18.72384 0-37.446656-4.012032-53.494784-10.698752-17.385472-6.68672-33.4336-17.385472-45.47072-30.759936-13.37344-13.37344-24.072192-29.421568-30.758912-46.80704-6.68672-17.386496-10.698752-36.109312-10.698752-54.832128 0-20.06016 4.012032-38.784 10.698752-54.832128z m354.40128 406.55872c-5.349376 14.710784-16.048128 22.734848-30.758912 30.758912-13.37344 8.025088-32.09728 10.699776-52.15744 10.699776H370.86208c-20.06016 0-37.446656-4.012032-52.15744-12.03712-14.710784-8.024064-25.409536-20.06016-30.758912-33.4336-5.3504-14.710784-5.3504-36.109312 0-52.15744 2.674688-6.68672 4.012032-14.710784 8.024064-21.397504 40.12032-77.568 121.699328-131.06176 215.315456-131.06176 68.205568 0 129.724416 26.74688 173.856768 72.2176 18.72384 20.06016 29.422592 34.770944 40.12032 56.169472 4.013056 6.68672 8.025088 13.37344 9.362432 21.397504 2.674688 8.024064 5.349376 20.06016 5.349376 30.759936 0 10.698752-2.674688 20.06016-5.349376 28.084224z" fill="#d81e06" p-id="6417"></path></svg>