<?xml version="1.0" standalone="no"?><!DOCTYPE svg PUBLIC "-//W3C//DTD SVG 1.1//EN" "http://www.w3.org/Graphics/SVG/1.1/DTD/svg11.dtd"><svg t="1677204410358" class="icon" viewBox="0 0 1386 1024" version="1.1" xmlns="http://www.w3.org/2000/svg" p-id="6673" xmlns:xlink="http://www.w3.org/1999/xlink" width="86.625" height="64"><path d="M1020.4 903.8H365.6c-4.2 0-8.6-0.4-12.8-1.2-4.2-0.8-8.2-2.2-12.2-3.8-3.8-1.6-7.6-3.8-11-6.2-3.4-2.4-6.4-5.2-9.2-8.4-12-13.6-17-32.4-13.4-51.2 15.6-82.4 64.6-151.4 141.6-200 68.4-43 155-66.8 244-66.8s175.6 23.8 244 66.8c77 48.6 126 117.6 141.6 200 3.6 18.8-1.2 37.6-13.4 51.2-2.8 3.2-5.8 5.8-9.2 8.4-3.4 2.4-7 4.6-11 6.2s-8 3-12.2 3.8c-3.6 0.8-7.8 1.2-12 1.2zM835.6 173.6c-36.2-37-86.8-57.2-142.6-57.2-56 0-106.8 20.2-142.8 57-36.4 37.2-54.2 87.6-50 142 8.2 107.4 94.8 194.8 192.8 194.8s184.4-87.4 192.8-194.8c4.2-54.2-13.6-104.4-50.2-141.8z" p-id="6674" fill="#ffffff"></path></svg>