<svg xmlns="http://www.w3.org/2000/svg" xmlns:xlink="http://www.w3.org/1999/xlink" width="193.4" height="236.208" viewBox="0 0 193.4 236.208">
  <defs>
    <filter id="8885" x="0" y="0" width="193.4" height="236.208" filterUnits="userSpaceOnUse">
      <feOffset dy="6" input="SourceAlpha"/>
      <feGaussianBlur stdDeviation="6" result="blur"/>
      <feFlood flood-color="#020000" flood-opacity="0.161"/>
      <feComposite operator="in" in2="blur"/>
      <feComposite in="SourceGraphic"/>
    </filter>
  </defs>
  <g id="11166" data-name="11166" transform="translate(-3696.8 -12870.992)">
    <g transform="matrix(1, 0, 0, 1, 3696.8, 12870.99)" filter="url(#8885)">
      <path id="8885-2" data-name="8885" d="M238.454,63.989a78.578,78.578,0,0,0-78.481,78.481c0,41.772,70.349,115.957,73.341,119.1a7.138,7.138,0,0,0,5.178,2.225h.153a6.9,6.9,0,0,0,5.217-2.455l24.357-27.886c32.374-39.624,48.753-70.234,48.753-90.947A78.594,78.594,0,0,0,238.454,63.989Z" transform="translate(-141.77 -51.79)" fill="#fc0d1b" stroke="#000" stroke-width="0.4"/>
    </g>
    <g id="11162" data-name="11162" transform="translate(1732.192 -165.808)">
      <g id="886" data-name="886" transform="translate(2003.808 13068.808)" fill="#fc0d1b" stroke="#fff" stroke-width="3">
        <circle cx="58" cy="58" r="58" stroke="none"/>
        <circle cx="58" cy="58" r="56.5" fill="none"/>
      </g>
      <g id="894" data-name="894" transform="translate(2018.808 13083.808)" fill="#fc0d1b" stroke="#fff" stroke-width="3">
        <circle cx="43.5" cy="43.5" r="43.5" stroke="none"/>
        <circle cx="43.5" cy="43.5" r="42" fill="none"/>
      </g>
      <g id="902" data-name="902" transform="translate(1998.808 13063.808)" fill="#fc0d1b" stroke="#fff" stroke-width="3">
        <circle cx="63" cy="63" r="63" stroke="none"/>
        <circle cx="63" cy="63" r="61.5" fill="none"/>
      </g>
    </g>
    <g id="11163" data-name="11163" transform="translate(3663.424 12840.813)">
      <path id="8879" data-name="8879" d="M145.7,160.579c-5.052,0-11.61-3.392-16.209-6.257a113.513,113.513,0,0,1-18.772-14.776l-1.884-1.886a113.487,113.487,0,0,1-14.777-18.773c-2.865-4.6-6.257-11.158-6.257-16.209,0-5.428,3.921-11.233,5.579-13.5,1.282-1.734,5.88-7.388,9.726-7.388,1.583,0,3.317,1.056,5.579,3.392a57.836,57.836,0,0,1,5.126,6.409,69.7,69.7,0,0,1,4.373,7.087c1.886,3.467,2.036,4.976,2.036,5.8a5.058,5.058,0,0,1-2.564,4.3,22.316,22.316,0,0,1-3.77,1.961,14.449,14.449,0,0,0-2.865,1.433,22.634,22.634,0,0,0,3.243,5.955,68.941,68.941,0,0,0,7.162,8.821,70.278,70.278,0,0,0,8.819,7.164,25.543,25.543,0,0,0,5.958,3.242,14.5,14.5,0,0,0,1.431-2.865,17.821,17.821,0,0,1,1.961-3.771,5.051,5.051,0,0,1,4.3-2.639c.831,0,2.262.228,5.8,2.112a69.9,69.9,0,0,1,7.088,4.374,50.017,50.017,0,0,1,6.407,5.127c2.338,2.26,3.392,3.995,3.392,5.579,0,3.844-5.729,8.444-7.462,9.724-2.187,1.659-7.992,5.579-13.421,5.579Z" transform="translate(0)" fill="#fff"/>
      <path id="8880" data-name="8880" d="M520.6,366.519a1.71,1.71,0,0,1-1.735-1.357,8.351,8.351,0,0,0-3.844-5.8,9.731,9.731,0,0,0-7.239-1.432,1.724,1.724,0,0,1-.6-3.393,13.228,13.228,0,0,1,9.724,1.961,12.169,12.169,0,0,1,5.353,8.066,1.7,1.7,0,0,1-1.356,1.961Z" transform="translate(-378.902 -247.028)" fill="#fff"/>
      <path id="8881" data-name="8881" d="M530.853,252.488a1.774,1.774,0,0,1-1.732-1.433,16.906,16.906,0,0,0-7.465-11.233,19.318,19.318,0,0,0-13.872-2.79,1.65,1.65,0,0,1-1.96-1.357,1.7,1.7,0,0,1,1.357-1.961,22.18,22.18,0,0,1,16.36,3.318,20.171,20.171,0,0,1,8.971,13.419,1.782,1.782,0,0,1-1.359,2.036Z" transform="translate(-378.901 -137.369)" fill="#fff"/>
      <path id="8882" data-name="8882" d="M532.1,141.318a1.759,1.759,0,0,1-1.659-1.433,28.351,28.351,0,0,0-12.74-19.075,32.144,32.144,0,0,0-23.521-4.749,1.724,1.724,0,1,1-.6-3.393,35.725,35.725,0,0,1,26.01,5.278,32.355,32.355,0,0,1,14.249,21.411,1.7,1.7,0,0,1-1.433,1.961Z" transform="translate(-366.504 -27.482)" fill="#fff"/>
    </g>
  </g>
</svg>
