<svg xmlns="http://www.w3.org/2000/svg" width="40.414" height="37.776" viewBox="0 0 40.414 37.776">
  <path id="task" d="M61.575,91.428a1.758,1.758,0,0,1-.933,2.3l-18.7,7.907a1.758,1.758,0,0,1-1.384-.008l-18.2-7.907a1.758,1.758,0,1,1,1.4-3.224l17.508,7.607,18-7.611A1.756,1.756,0,0,1,61.575,91.428Zm0-9.665a1.758,1.758,0,0,1-.933,2.3l-18.7,7.907a1.758,1.758,0,0,1-1.384-.008l-18.2-7.907a1.758,1.758,0,0,1,1.4-3.221l17.508,7.606,18-7.614A1.758,1.758,0,0,1,61.575,81.764ZM41.508,64l18.834,7.967a1.758,1.758,0,0,1,.079,3.2l-.132.055L41.508,82.449,22.73,75.227a1.758,1.758,0,0,1-.187-3.2l.132-.063Zm0,3.816L28.054,73.509,41.508,78.68l13.457-5.174Z" transform="translate(-21.301 -64)" fill="#399062"/>
</svg>
